<svg xmlns="http://www.w3.org/2000/svg" xmlns:xlink="http://www.w3.org/1999/xlink" width="117" height="117" viewBox="0 0 117 117">
  <defs>
    <clipPath id="clip-path">
      <path id="path9849" d="M0-682.665H85.675v85.675H0Z" transform="translate(0 682.665)"/>
    </clipPath>
  </defs>
  <g id="Grupo_971761" data-name="Grupo 971761" transform="translate(-328 -475)">
    <circle id="Elipse_5889" data-name="Elipse 5889" cx="58.5" cy="58.5" r="58.5" transform="translate(328 475)" fill="#fff"/>
    <g id="g9843" transform="translate(344 1171.665)">
      <g id="g9845" transform="translate(0 -682.665)">
        <g id="g9847" transform="translate(0 0)" clip-path="url(#clip-path)">
          <g id="g9853" transform="translate(48.803 52.528)">
            <path id="path9855" d="M0-80.164q3.6,1.73,7.2,3.456l8.619-9.631a3.2,3.2,0,0,0-.488-4.708,3.2,3.2,0,0,0-4.091.253Z" transform="translate(0 91.668)" fill="#f89f8e"/>
          </g>
          <g id="g9857" transform="translate(48.803 52.528)">
            <path id="path9859" d="M0-80.164q3.6,1.73,7.2,3.456l8.619-9.631a3.2,3.2,0,0,0-.488-4.708,3.2,3.2,0,0,0-4.091.253Z" transform="translate(0 91.668)" fill="none" stroke="#000" stroke-linecap="round" stroke-linejoin="round" stroke-miterlimit="10" stroke-width="2.5"/>
          </g>
          <g id="g9861" transform="translate(54.04 55.686)">
            <path id="path9863" d="M0-75.726q3.516,1.9,7.034,3.788l9.059-9.218a3.2,3.2,0,0,0-.268-4.726,3.2,3.2,0,0,0-4.1.061Z" transform="translate(0 86.593)" fill="#fdb0a0"/>
          </g>
          <g id="g9865" transform="translate(54.04 55.686)">
            <path id="path9867" d="M0-75.726q3.516,1.9,7.034,3.788l9.059-9.218a3.2,3.2,0,0,0-.268-4.726,3.2,3.2,0,0,0-4.1.061Z" transform="translate(0 86.593)" fill="none" stroke="#000" stroke-linecap="round" stroke-linejoin="round" stroke-miterlimit="10" stroke-width="2.5"/>
          </g>
          <g id="g9869" transform="translate(12.067 6.475)">
            <path id="path9871" d="M-393.493-196.747a28.235,28.235,0,0,1-28.235,28.235,28.235,28.235,0,0,1-28.235-28.235,28.235,28.235,0,0,1,28.235-28.235,28.235,28.235,0,0,1,28.235,28.235" transform="translate(449.964 224.982)" fill="#64b9fc"/>
          </g>
          <g id="g9873" transform="translate(37.494 6.474)">
            <path id="path9875" d="M-216.313-196.751a28.236,28.236,0,0,1-28.234,28.236c-.948,0-1.886-.046-2.809-.138a28.238,28.238,0,0,0,25.423-28.1,28.238,28.238,0,0,0-25.423-28.1c.924-.092,1.862-.138,2.809-.138a28.236,28.236,0,0,1,28.234,28.236" transform="translate(247.357 224.987)" fill="#31a7fb"/>
          </g>
          <g id="g9877" transform="translate(23.499 6.645)">
            <path id="path9879" d="M-313.824-195.561a28.1,28.1,0,0,1-5.047,16.114l-8.258-2.75a1.673,1.673,0,0,0-1.936.682l-1.775,2.758a1.673,1.673,0,0,1-.7.611l-4.8,2.238a1.673,1.673,0,0,1-1.669-.148l-5.914-4.157a1.673,1.673,0,0,1-.571-2.039l.882-2.017a1.674,1.674,0,0,1,1.126-.953l6.434-1.615a1.673,1.673,0,0,0,1.082-.86l2.176-4.248a1.673,1.673,0,0,0-.062-1.636l-2.341-3.829a1.673,1.673,0,0,0-1.428-.8h-1.857a1.673,1.673,0,0,0-1.408.769l-3.244,5.052a1.674,1.674,0,0,1-1.894.7l-2.623-.795a1.673,1.673,0,0,0-1.679.429l-1.476,1.5a1.673,1.673,0,0,1-2.117.223l-3.271-2.165a1.674,1.674,0,0,1-.626-.763l-1.919-4.7a1.672,1.672,0,0,1,.112-1.49l2.941-4.931a1.673,1.673,0,0,1,1.961-.732l4.974,1.64a1.673,1.673,0,0,0,1.29-.1l7.819-4.028a1.674,1.674,0,0,0,.9-1.6l-.237-3.479a1.673,1.673,0,0,0-.786-1.307l-1.7-1.057a1.673,1.673,0,0,1-.621-2.154l3.129-6.429a28.239,28.239,0,0,1,25.127,28.065" transform="translate(358.861 223.626)" fill="#99d53b"/>
          </g>
          <g id="g9881" transform="translate(42.901 6.645)">
            <path id="path9883" d="M-178.631-195.561a28.1,28.1,0,0,1-5.047,16.114l-4.62-1.539a28.108,28.108,0,0,0,4.048-14.575,28.243,28.243,0,0,0-20.016-27.019l.509-1.046a28.239,28.239,0,0,1,25.127,28.065" transform="translate(204.266 223.626)" fill="#8dc637"/>
          </g>
          <g id="g9885" transform="translate(23.499 6.645)">
            <path id="path9887" d="M-278.657-307.848l-8.258-2.75a1.673,1.673,0,0,0-1.936.682l-1.774,2.757a1.673,1.673,0,0,1-.7.611l-4.8,2.238a1.674,1.674,0,0,1-1.669-.148l-5.914-4.157a1.673,1.673,0,0,1-.571-2.039l.882-2.017a1.674,1.674,0,0,1,1.126-.953l6.434-1.615a1.673,1.673,0,0,0,1.082-.86l2.176-4.247a1.673,1.673,0,0,0-.062-1.636l-2.341-3.829a1.673,1.673,0,0,0-1.428-.8h-1.857a1.674,1.674,0,0,0-1.408.769l-3.244,5.052a1.674,1.674,0,0,1-1.894.7l-2.623-.795a1.673,1.673,0,0,0-1.679.429l-1.476,1.5a1.673,1.673,0,0,1-2.117.223l-3.271-2.165a1.672,1.672,0,0,1-.626-.763l-1.919-4.7a1.673,1.673,0,0,1,.112-1.49l2.941-4.931a1.673,1.673,0,0,1,1.961-.732l4.974,1.64a1.673,1.673,0,0,0,1.29-.1l7.819-4.028a1.673,1.673,0,0,0,.9-1.6l-.237-3.479a1.673,1.673,0,0,0-.786-1.307l-1.7-1.057a1.673,1.673,0,0,1-.621-2.154l3.129-6.429" transform="translate(318.648 352.027)" fill="none" stroke="#000" stroke-linecap="round" stroke-linejoin="round" stroke-miterlimit="10" stroke-width="2.5"/>
          </g>
          <g id="g9889" transform="translate(59.382 24.448)">
            <path id="path9891" d="M-63.8-71.514a28.2,28.2,0,0,1-1.628,9.471c-2.909-.76-8.4-3.686-7.409-10.536A11.035,11.035,0,0,1-66-81.715a.838.838,0,0,1,.283-.062A28.139,28.139,0,0,1-63.8-71.514" transform="translate(72.95 81.777)" fill="#8dc637"/>
          </g>
          <g id="g9893" transform="translate(14.578 44.956)">
            <path id="path9895" d="M-101.144-56.233a3.626,3.626,0,0,0-3.648.918c-.846.8-1.687,1.911-2.793,2.805a28.306,28.306,0,0,1-8.074-10.384,8.793,8.793,0,0,1,6.374-1.291,11.028,11.028,0,0,1,9.136,6.831.835.835,0,0,1-.995,1.12" transform="translate(115.66 64.303)" fill="#31a7fb"/>
          </g>
          <g id="g9897" transform="translate(16.445 8.348)">
            <path id="path9899" d="M-74.175-95.485A11.046,11.046,0,0,1-84.82-97.933a28.33,28.33,0,0,1,13.727-11.255q.641.078,1.318.176a2.976,2.976,0,0,1,.68.181,2.92,2.92,0,0,1,1.8,2.234c.474,2.867.02,9.372-6.883,11.112" transform="translate(84.82 109.188)" fill="#31a7fb"/>
          </g>
          <g id="g9901" transform="translate(12.067 6.475)">
            <path id="path9903" d="M-318.065-41.85a28.113,28.113,0,0,0-17.411-6.006A28.235,28.235,0,0,0-363.711-19.62,28.235,28.235,0,0,0-335.476,8.615,28.235,28.235,0,0,0-307.241-19.62a28.123,28.123,0,0,0-6.794-18.37" transform="translate(363.711 47.856)" fill="none" stroke="#000" stroke-linecap="round" stroke-linejoin="round" stroke-miterlimit="10" stroke-width="2.5"/>
          </g>
          <g id="g9905" transform="translate(10.281 57.332)">
            <path id="path9907" d="M-476.136-26.15a3.2,3.2,0,0,0-3.941-1.126l-10.861,4.816a4.261,4.261,0,0,0-4.212-3.621h-9.189a16.762,16.762,0,0,1-5.322-.867l-7.754-2.6a6.941,6.941,0,0,0-4.144-.082l-5.035,1.466a6.942,6.942,0,0,0-4.22,3.464,14.181,14.181,0,0,1-4.875,5.362l-8.778,5.684,10.835,10.835,11.308-8.644,21.809,1.466a6.59,6.59,0,0,0,3.606-.794l19.663-10.761a3.2,3.2,0,0,0,1.11-4.6" transform="translate(544.467 29.903)" fill="#ffcec0"/>
          </g>
          <g id="g9909" transform="translate(17.7 59.724)">
            <path id="path9911" d="M-416.707-41.541-436.37-30.78a6.592,6.592,0,0,1-3.6.8l-21.811-1.467-11.307,8.645-3.416-3.416,11.806-9.024a1.176,1.176,0,0,1,.793-.239l21.368,1.436a6.6,6.6,0,0,0,3.606-.794L-419.274-45.6a3.183,3.183,0,0,0,1.531-1.9,3.2,3.2,0,0,1,2.146,1.362,3.2,3.2,0,0,1-1.11,4.6" transform="translate(476.509 47.503)" fill="#fdb0a0"/>
          </g>
          <g id="g9913" transform="translate(10.282 57.332)">
            <path id="path9915" d="M0-113.251l8.778-5.684a14.182,14.182,0,0,0,4.875-5.362,6.942,6.942,0,0,1,4.22-3.464l5.035-1.466a6.943,6.943,0,0,1,4.144.083l7.754,2.6a16.763,16.763,0,0,0,5.322.867h9.189a4.26,4.26,0,0,1,4.26,4.26,4.26,4.26,0,0,1-4.26,4.26H38.246a24,24,0,0,0-5.606.664" transform="translate(0 129.503)" fill="none" stroke="#000" stroke-linecap="round" stroke-linejoin="round" stroke-miterlimit="10" stroke-width="2.5"/>
          </g>
          <g id="g9917" transform="translate(21.117 59.684)">
            <path id="path9919" d="M-297.493-35.472l10.861-4.816a3.2,3.2,0,0,1,3.941,1.126,3.2,3.2,0,0,1-1.11,4.6L-303.464-23.8a6.589,6.589,0,0,1-3.606.794l-21.809-1.466-11.308,8.644" transform="translate(340.187 40.563)" fill="none" stroke="#000" stroke-linecap="round" stroke-linejoin="round" stroke-miterlimit="10" stroke-width="2.5"/>
          </g>
          <g id="g9921" transform="translate(8.977 41.557)">
            <path id="path9923" d="M-6.212-73.334a2.923,2.923,0,0,1-.817-2.753c.655-2.831,3.55-8.674,10.6-7.653A11.029,11.029,0,0,1,12.7-76.91a.835.835,0,0,1-.995,1.121,3.628,3.628,0,0,0-3.648.917c-2.438,2.3-4.826,7.228-13.713,1.964a2.989,2.989,0,0,1-.56-.426" transform="translate(7.103 83.859)" fill="#99d53b"/>
          </g>
          <g id="g9925" transform="translate(8.978 45.298)">
            <path id="path9927" d="M-131.077-30.161a3.63,3.63,0,0,0-3.649.917c-2.437,2.3-4.825,7.228-13.712,1.964a2.928,2.928,0,0,1-.56-.427,2.926,2.926,0,0,1-.871-2.435c8.431,4.734,10.769-.036,13.156-2.285a3.625,3.625,0,0,1,3.648-.916.836.836,0,0,0,.994-1.121c0-.008-.007-.016-.01-.024a11.128,11.128,0,0,1,2,3.207.835.835,0,0,1-.994,1.121" transform="translate(149.888 34.489)" fill="#8dc637"/>
          </g>
          <g id="g9929" transform="translate(8.977 41.56)">
            <path id="path9931" d="M-61.988,0c-5.766.107-8.225,5.188-8.822,7.769a2.923,2.923,0,0,0,.817,2.753,2.983,2.983,0,0,0,.56.426c8.886,5.264,11.274.333,13.713-1.964a3.628,3.628,0,0,1,3.648-.917.835.835,0,0,0,.995-1.121,10.764,10.764,0,0,0-5.463-5.764" transform="translate(70.884)" fill="none" stroke="#000" stroke-linecap="round" stroke-linejoin="round" stroke-miterlimit="10" stroke-width="2.5"/>
          </g>
          <g id="g9933" transform="translate(6.51 46.596)">
            <path id="path9935" d="M0-54.319a17.32,17.32,0,0,1,14.247-7.8" transform="translate(0 62.115)" fill="none" stroke="#000" stroke-linecap="round" stroke-linejoin="round" stroke-miterlimit="10" stroke-width="2.5"/>
          </g>
          <g id="g9937" transform="translate(14.917 4.238)">
            <path id="path9939" d="M-114.066-3.006a2.923,2.923,0,0,1,1.8,2.234c.473,2.867.02,9.372-6.884,11.112A11.03,11.03,0,0,1-130.195,7.5a.835.835,0,0,1,.493-1.415,3.628,3.628,0,0,0,3.024-2.237C-125.3.8-124.967-4.67-114.746-3.187a3.006,3.006,0,0,1,.68.181Z" transform="translate(130.436 3.437)" fill="#a3e440"/>
          </g>
          <g id="g9941" transform="translate(16.685 4.302)">
            <path id="path9943" d="M-66.344-95.555A11.134,11.134,0,0,1-75.865-97.1a12.176,12.176,0,0,0,5.718-.157c6.9-1.74,7.357-8.245,6.883-11.112a2.934,2.934,0,0,0-.308-.9c.513.042,1.055.1,1.63.186a3.087,3.087,0,0,1,.68.181,2.922,2.922,0,0,1,1.8,2.236c.474,2.867.022,9.37-6.883,11.11" transform="translate(75.865 109.268)" fill="#8dc637"/>
          </g>
          <g id="g9945" transform="translate(14.917 4.238)">
            <path id="path9947" d="M-114.066-3.006a2.923,2.923,0,0,1,1.8,2.234c.473,2.867.02,9.372-6.884,11.112A11.03,11.03,0,0,1-130.195,7.5a.835.835,0,0,1,.493-1.415,3.628,3.628,0,0,0,3.024-2.237C-125.3.8-124.967-4.67-114.746-3.187a3.006,3.006,0,0,1,.68.181Z" transform="translate(130.436 3.437)" fill="none" stroke="#000" stroke-linecap="round" stroke-linejoin="round" stroke-miterlimit="10" stroke-width="2.5"/>
          </g>
          <g id="g9949" transform="translate(23.308 1.255)">
            <path id="path9951" d="M-71.111,0A17.32,17.32,0,0,1-81.316,12.633" transform="translate(81.316)" fill="none" stroke="#000" stroke-linecap="round" stroke-linejoin="round" stroke-miterlimit="10" stroke-width="2.5"/>
          </g>
          <g id="g9953" transform="translate(61.891 21.21)">
            <path id="path9955" d="M-73.335-132.244a2.923,2.923,0,0,1-2.753.817c-2.832-.655-8.674-3.55-7.654-10.6a11.03,11.03,0,0,1,6.83-9.136.835.835,0,0,1,1.121.995,3.628,3.628,0,0,0,.917,3.648c2.3,2.438,7.228,4.826,1.964,13.713a3,3,0,0,1-.426.56" transform="translate(83.86 151.223)" fill="#a3e440"/>
          </g>
          <g id="g9957" transform="translate(65.632 21.21)">
            <path id="path9959" d="M-30.162-7.374a3.63,3.63,0,0,0,.917,3.648c2.3,2.437,7.228,4.825,1.964,13.712a2.928,2.928,0,0,1-.427.56,2.926,2.926,0,0,1-2.435.871C-25.409,2.987-30.179.65-32.428-1.738a3.625,3.625,0,0,1-.917-3.648.836.836,0,0,0-1.121-.994l-.024.01a11.127,11.127,0,0,1,3.207-2,.835.835,0,0,1,1.121.994" transform="translate(34.491 8.432)" fill="#99d53b"/>
          </g>
          <g id="g9961" transform="translate(61.893 21.21)">
            <path id="path9963" d="M-11.844-111.354a11.1,11.1,0,0,0,6.07,3.815,2.923,2.923,0,0,0,2.753-.817,2.994,2.994,0,0,0,.426-.56c5.264-8.886.333-11.274-1.964-13.713a3.628,3.628,0,0,1-.917-3.648.835.835,0,0,0-1.121-.995,11.03,11.03,0,0,0-6.83,9.136,11.146,11.146,0,0,0-.116,1.468" transform="translate(13.544 127.335)" fill="none" stroke="#000" stroke-linecap="round" stroke-linejoin="round" stroke-miterlimit="10" stroke-width="2.5"/>
          </g>
          <g id="g9965" transform="translate(66.929 29.301)">
            <path id="path9967" d="M-54.318-99.273a17.32,17.32,0,0,1-7.8-14.247" transform="translate(62.113 113.52)" fill="none" stroke="#000" stroke-linecap="round" stroke-linejoin="round" stroke-miterlimit="10" stroke-width="2.5"/>
          </g>
        </g>
      </g>
    </g>
  </g>
</svg>
