<svg xmlns="http://www.w3.org/2000/svg" width="110" height="110" viewBox="0 0 110 110">
  <g id="Grupo_971761" data-name="Grupo 971761" transform="translate(-285 -4967)">
    <rect id="Rectángulo_339844" data-name="Rectángulo 339844" width="110" height="110" transform="translate(285 4967)" fill="#feb12e"/>
    <g id="sello" transform="translate(311.429 4982.715)">
      <g id="Grupo_971566" data-name="Grupo 971566" transform="translate(7.178 1.151)">
        <path id="Trazado_735775" data-name="Trazado 735775" d="M52.793,13.527A6.026,6.026,0,0,0,46.767,7.5h46.9a4.792,4.792,0,0,1,4.792,4.792V79.165L52.793,75.779V13.527Z" transform="translate(-46.767 -7.501)" fill="#f9f6f9"/>
      </g>
      <path id="Trazado_735776" data-name="Trazado 735776" d="M332.6,7.5h-3.589a4.792,4.792,0,0,1,4.792,4.792V78.9l3.589.266V12.292A4.792,4.792,0,0,0,332.6,7.5Z" transform="translate(-278.523 -6.349)" fill="#dddaec"/>
      <path id="Trazado_735777" data-name="Trazado 735777" d="M92.412,445.2h40.4a8.519,8.519,0,0,0,8.519-8.519v-2.231H97.487l-11.454,2.16v2.211a6.379,6.379,0,0,0,6.379,6.379Z" transform="translate(-72.83 -367.778)" fill="#52c194"/>
      <path id="Trazado_735778" data-name="Trazado 735778" d="M141.335,436.678a8.609,8.609,0,0,1-.049.908H86.033v-1.569l11.454-1.569h43.848Z" transform="translate(-72.83 -367.778)" fill="#beb9dd"/>
      <path id="Trazado_735779" data-name="Trazado 735779" d="M8.573,22.621H19.551V13.527a6.026,6.026,0,0,0-12.051,0v8.022A1.073,1.073,0,0,0,8.573,22.621Z" transform="translate(-6.348 -6.35)" fill="#52c194"/>
      <path id="Trazado_735780" data-name="Trazado 735780" d="M13.526,7.5A6.026,6.026,0,0,0,7.5,13.526V15a4.407,4.407,0,0,1,8.814,0v7.62h3.237V13.526A6.026,6.026,0,0,0,13.526,7.5Z" transform="translate(-6.348 -6.349)" fill="#beb9dd"/>
      <path id="Trazado_735781" data-name="Trazado 735781" d="M86.033,434.448v5.023a5.727,5.727,0,0,0,11.454,0v-5.023Z" transform="translate(-72.83 -367.779)" fill="#f9f6f9"/>
      <path id="Trazado_735782" data-name="Trazado 735782" d="M173.149,146.054H148.593a1.377,1.377,0,0,1-1.377-1.377v-3.025a1.377,1.377,0,0,1,1.377-1.377h24.556a1.377,1.377,0,0,1,1.377,1.377v3.025A1.377,1.377,0,0,1,173.149,146.054Z" transform="translate(-124.624 -118.75)" fill="#365e7d"/>
      <path id="Trazado_735783" data-name="Trazado 735783" d="M298.428,140.276H295.2a1.377,1.377,0,0,1,1.377,1.377v3.025a1.377,1.377,0,0,1-1.377,1.377h3.223a1.377,1.377,0,0,0,1.377-1.377v-3.025A1.377,1.377,0,0,0,298.428,140.276Z" transform="translate(-249.903 -118.75)" fill="#2b4d66"/>
      <circle id="Elipse_6705" data-name="Elipse 6705" cx="8.698" cy="8.698" r="8.698" transform="translate(34.798 43.973)" fill="#feb12e"/>
      <path id="Trazado_735784" data-name="Trazado 735784" d="M273.78,286.549a8.742,8.742,0,0,0-1.75.176,8.7,8.7,0,0,1,0,17.044,8.7,8.7,0,1,0,1.75-17.22Z" transform="translate(-230.284 -242.576)" fill="#da4a54"/>
      <path id="Trazado_735785" data-name="Trazado 735785" d="M308.384,208.547l-3.38.83a1.453,1.453,0,0,0-.681.384l-1.531,1.532a1.453,1.453,0,0,0,0,2.054l15.926,15.926a1.453,1.453,0,0,0,2.054,0l1.531-1.532a1.453,1.453,0,0,0,.384-.681l.83-3.381a1.453,1.453,0,0,0-.384-1.373l-13.376-13.376A1.453,1.453,0,0,0,308.384,208.547Z" transform="translate(-255.964 -176.508)" fill="#e27d47"/>
      <path id="Trazado_735786" data-name="Trazado 735786" d="M397.634,287.936l.83-3.381a1.453,1.453,0,0,0-.383-1.373l-2.766-2.766a1.452,1.452,0,0,1,.383,1.373l-.83,3.381a1.453,1.453,0,0,1-.384.681l-1.532,1.531a1.453,1.453,0,0,1-2.054,0l2.766,2.766a1.453,1.453,0,0,0,2.054,0l1.531-1.531A1.454,1.454,0,0,0,397.634,287.936Z" transform="translate(-330.911 -237.384)" fill="#dd6938"/>
      <path id="Trazado_735787" data-name="Trazado 735787" d="M397.947,155.227a6.284,6.284,0,1,0-10.723-4.221,1.983,1.983,0,0,1-.467,1.351l-5.952,7.04,4.085,4.085,7.04-5.952a1.982,1.982,0,0,1,1.35-.467A6.266,6.266,0,0,0,397.947,155.227Z" transform="translate(-322.368 -122.329)" fill="#ecb780"/>
      <path id="Trazado_735788" data-name="Trazado 735788" d="M382.62,227.581l-1.812,2.144,4.085,4.085L387.035,232Z" transform="translate(-322.369 -192.657)" fill="#e29375"/>
      <g id="Grupo_971567" data-name="Grupo 971567" transform="translate(0.001 0)">
        <path id="Trazado_735789" data-name="Trazado 735789" d="M169.327,138.328V135.3a2.53,2.53,0,0,0-2.528-2.528H142.244a2.53,2.53,0,0,0-2.528,2.528v3.025a2.53,2.53,0,0,0,2.528,2.528H166.8A2.53,2.53,0,0,0,169.327,138.328Zm-27.309,0V135.3a.226.226,0,0,1,.226-.226H166.8a.226.226,0,0,1,.226.226v3.025a.226.226,0,0,1-.226.226H142.244A.226.226,0,0,1,142.018,138.328Z" transform="translate(-118.276 -112.401)"/>
        <path id="Trazado_735790" data-name="Trazado 735790" d="M123.975,33.594H113.626a1.151,1.151,0,0,0,0,2.3h10.349a1.151,1.151,0,1,0,0-2.3Z" transform="translate(-95.215 -28.439)"/>
        <path id="Trazado_735791" data-name="Trazado 735791" d="M130.012,66.189H113.626a1.151,1.151,0,1,0,0,2.3h16.386a1.151,1.151,0,0,0,0-2.3Z" transform="translate(-95.215 -56.032)"/>
        <path id="Trazado_735792" data-name="Trazado 735792" d="M131.163,99.935a1.151,1.151,0,0,0-1.151-1.151H113.626a1.151,1.151,0,1,0,0,2.3h16.386A1.151,1.151,0,0,0,131.163,99.935Z" transform="translate(-95.215 -83.625)"/>
        <path id="Trazado_735793" data-name="Trazado 735793" d="M158.213,211.651a1.151,1.151,0,0,0-1.151-1.151h-16.2a1.151,1.151,0,1,0,0,2.3h16.2A1.151,1.151,0,0,0,158.213,211.651Z" transform="translate(-118.276 -178.197)"/>
        <path id="Trazado_735794" data-name="Trazado 735794" d="M229.1,298.747a9.849,9.849,0,1,0-9.849-9.849A9.86,9.86,0,0,0,229.1,298.747Zm0-17.4a7.547,7.547,0,1,1-7.547,7.547A7.556,7.556,0,0,1,229.1,281.351Z" transform="translate(-185.606 -236.227)"/>
        <path id="Trazado_735795" data-name="Trazado 735795" d="M254.369,319.434a1.151,1.151,0,1,0,0-2.3,2.967,2.967,0,1,1,2.967-2.967,1.151,1.151,0,0,0,2.3,0,5.269,5.269,0,1,0-5.269,5.269Z" transform="translate(-210.874 -261.494)"/>
        <path id="Trazado_735796" data-name="Trazado 735796" d="M360.8,256.995a1.151,1.151,0,1,0-1.628,1.628L362,261.46a1.151,1.151,0,0,0,1.628-1.628Z" transform="translate(-303.765 -217.272)"/>
        <path id="Trazado_735797" data-name="Trazado 735797" d="M75.977,22.811a7.434,7.434,0,0,0-4.905-1.786,1.151,1.151,0,0,0,.01,2.3h.01a5.13,5.13,0,1,1-.138,10.257,3.12,3.12,0,0,0-2.134.738L62.589,39.59,60,37l5.269-6.231a3.13,3.13,0,0,0,.738-2.135,5.141,5.141,0,0,1,1.589-3.9,1.151,1.151,0,1,0-1.589-1.665,7.446,7.446,0,0,0-2.3,5.643.831.831,0,0,1-.2.567l-3.49,4.127V5.943A5.949,5.949,0,0,0,54.079,0H22.592a1.151,1.151,0,1,0,0,2.3H54.079A3.645,3.645,0,0,1,57.72,5.943V34.722l-3.113-3.113a2.618,2.618,0,0,0-2.462-.687h0l-3.38.83a2.6,2.6,0,0,0-1.22.687l-1.531,1.531a2.6,2.6,0,0,0,0,3.682L57.72,49.358v16.16H24.811c-.026,0-.051,0-.077,0s-.051,0-.077,0a1.151,1.151,0,0,0-1.151,1.151v5.023a4.581,4.581,0,0,1-4.262,4.564,5.234,5.234,0,0,1-4.891-5.216V7.177A7.191,7.191,0,0,0,12.44,2.3h5.55a1.151,1.151,0,1,0,0-2.3H7.178A7.185,7.185,0,0,0,0,7.177V15.2a2.226,2.226,0,0,0,2.224,2.224h9.828v54.27a6.886,6.886,0,0,0,6.878,6.878c7.614,0,8.306,0,13.124,0a1.151,1.151,0,1,0,0-2.3h-8a6.849,6.849,0,0,0,1.749-4.576V67.82H67.355V68.9a7.377,7.377,0,0,1-7.368,7.368H36.922a1.151,1.151,0,0,0,0,2.3H59.986a9.681,9.681,0,0,0,9.67-9.67V66.669a1.151,1.151,0,0,0-1.151-1.151H60.022V51.66l1.917,1.917a2.6,2.6,0,0,0,3.682,0l1.531-1.531a2.6,2.6,0,0,0,.687-1.22l.83-3.381a2.618,2.618,0,0,0-.687-2.462l-3.761-3.761,6.084-5.144a.836.836,0,0,1,.566-.2,7.435,7.435,0,0,0,5.105-13.073ZM2.3,15.121V7.177A4.88,4.88,0,0,1,7.176,2.3h0a4.88,4.88,0,0,1,4.875,4.875v7.944H2.3ZM66.435,46.9l-.83,3.381a.3.3,0,0,1-.08.141L63.994,51.95a.3.3,0,0,1-.427,0L47.64,36.024a.3.3,0,0,1,0-.427l1.531-1.531a.3.3,0,0,1,.141-.08l3.38-.83h0a.3.3,0,0,1,.285.08L66.355,46.612A.3.3,0,0,1,66.435,46.9Z" transform="translate(-0.001 0)"/>
      </g>
    </g>
  </g>
</svg>
