<svg xmlns="http://www.w3.org/2000/svg" width="163" height="163" viewBox="0 0 163 163">
  <g id="Grupo_971570" data-name="Grupo 971570" transform="translate(-299 -5331)">
    <circle id="Elipse_6706" data-name="Elipse 6706" cx="81.5" cy="81.5" r="81.5" transform="translate(299 5331)" fill="#feb12e"/>
    <g id="Grupo_971569" data-name="Grupo 971569" transform="translate(320.583 5365.015)">
      <g id="Grupo_971568" data-name="Grupo 971568" transform="translate(0.669)">
        <path id="Trazado_735798" data-name="Trazado 735798" d="M38.89,45.464a11.375,11.375,0,0,1-11.374,19.7,11.375,11.375,0,0,1-11.374-19.7,11.374,11.374,0,0,1,22.748,0Z" transform="translate(-10.459 -34.09)" fill="#95d6a4" fill-rule="evenodd"/>
        <path id="Trazado_735799" data-name="Trazado 735799" d="M387.386,45.464a11.375,11.375,0,0,1-11.374,19.7,11.375,11.375,0,0,1-11.374-19.7,11.374,11.374,0,0,1,22.748,0Z" transform="translate(-275.575 -34.09)" fill="#95d6a4" fill-rule="evenodd"/>
        <path id="Trazado_735800" data-name="Trazado 735800" d="M213.139,45.464a11.375,11.375,0,0,1-11.374,19.7,11.375,11.375,0,0,1-11.374-19.7,11.374,11.374,0,0,1,22.748,0Z" transform="translate(-143.018 -34.09)" fill="#95d6a4" fill-rule="evenodd"/>
      </g>
      <path id="Trazado_735801" data-name="Trazado 735801" d="M126.5,231.575c-.007.176-.014.407-.021.583a59.457,59.457,0,0,1-118.783.122c-.081-1.723-.176-2.855,2.075-2.855H124.389A1.893,1.893,0,0,1,126.5,231.575Z" transform="translate(-7.663 -182.69)" fill="#98e5fa" fill-rule="evenodd"/>
      <path id="Trazado_735802" data-name="Trazado 735802" d="M306.189,231.576c-.007.176-.014.407-.021.583a59.461,59.461,0,0,1-59.4,56.726c-.97,0-1.94-.027-2.9-.074a59.453,59.453,0,0,0,56.5-56.651c.007-.176.014-.407.02-.583a1.892,1.892,0,0,0-2.109-2.15h5.806A1.892,1.892,0,0,1,306.189,231.576Z" transform="translate(-187.353 -182.69)" fill="#8bdef5" fill-rule="evenodd"/>
      <path id="Trazado_735803" data-name="Trazado 735803" d="M51.78,289.264a9.67,9.67,0,0,0-9.638-9.637H12.586a59.457,59.457,0,0,0,23.48,36.23h.271a9.62,9.62,0,0,0,7.711-15.4c-.671-.9-.549-1.56.651-1.906A9.733,9.733,0,0,0,51.78,289.264Z" transform="translate(-11.408 -220.88)" fill="#b3e59f" fill-rule="evenodd"/>
      <path id="Trazado_735804" data-name="Trazado 735804" d="M296.046,289.24a7.707,7.707,0,0,0,1.275,4.218c.868,1.329.746,1.512-.685,2.008a7.659,7.659,0,0,0,2.455,14.914h26.661a59.277,59.277,0,0,0,15.348-28.8H303.71A7.685,7.685,0,0,0,296.046,289.24Z" transform="translate(-223.54 -222.368)" fill="#b3e59f" fill-rule="evenodd"/>
      <path id="Trazado_735805" data-name="Trazado 735805" d="M171.385,437.287a59.689,59.689,0,0,0,39.968.19c-4.4-5.026-11.747-8.322-20.068-8.322C183.071,429.155,175.8,432.37,171.385,437.287Z" transform="translate(-132.213 -334.633)" fill="#b3e59f" fill-rule="evenodd"/>
      <path id="Trazado_735806" data-name="Trazado 735806" d="M106.81,315.858a9.62,9.62,0,0,0,7.711-15.4c-.671-.9-.549-1.56.651-1.906a9.637,9.637,0,0,0-2.557-18.929H106.81a9.637,9.637,0,0,1,2.557,18.929c-1.2.346-1.322,1-.651,1.906a9.609,9.609,0,0,1-3.493,14.419c.434.332.875.658,1.316.977Z" transform="translate(-81.881 -220.881)" fill="#95d6a4" fill-rule="evenodd"/>
      <path id="Trazado_735807" data-name="Trazado 735807" d="M431.757,281.582h-5.805a59.28,59.28,0,0,1-15.348,28.8h5.806A59.274,59.274,0,0,0,431.757,281.582Z" transform="translate(-314.197 -222.368)" fill="#95d6a4" fill-rule="evenodd"/>
      <path id="Trazado_735808" data-name="Trazado 735808" d="M426.708,66.685a11.371,11.371,0,0,0,5.684-21.221,11.386,11.386,0,0,0-14.277-11,11.372,11.372,0,0,1,8.471,11,11.377,11.377,0,0,1-2.78,20.848A11.355,11.355,0,0,0,426.708,66.685Z" transform="translate(-319.911 -34.09)" fill="#78c2a4" fill-rule="evenodd"/>
      <path id="Trazado_735809" data-name="Trazado 735809" d="M252.46,66.685a11.371,11.371,0,0,0,5.684-21.221,11.386,11.386,0,0,0-14.277-11,11.372,11.372,0,0,1,8.471,11,11.373,11.373,0,0,1-2.781,20.848,11.359,11.359,0,0,0,2.9.373Z" transform="translate(-187.353 -34.09)" fill="#78c2a4" fill-rule="evenodd"/>
      <path id="Trazado_735810" data-name="Trazado 735810" d="M78.213,66.685A11.371,11.371,0,0,0,83.9,45.464a11.386,11.386,0,0,0-14.277-11,11.373,11.373,0,0,1,8.471,11A11.373,11.373,0,0,1,75.31,66.312,11.356,11.356,0,0,0,78.213,66.685Z" transform="translate(-54.796 -34.09)" fill="#78c2a4" fill-rule="evenodd"/>
    </g>
    <path id="Trazado_735811" data-name="Trazado 735811" d="M44.538,76.909a1.794,1.794,0,0,1,0-3.588H59.459V62.178a13.159,13.159,0,0,1-15.3-19.146,13.334,13.334,0,0,1,3.961-4.293,13.185,13.185,0,0,1,8.5-11.319,1.79,1.79,0,0,1,1.262,3.35A9.724,9.724,0,0,0,53.362,34.3a9.566,9.566,0,0,0-1.689,5.453h-.007a1.779,1.779,0,0,1-.9,1.546,9.64,9.64,0,0,0-3.513,3.513A9.59,9.59,0,0,0,55.567,59.18a9.64,9.64,0,0,0,3.893-.821V54.6l-6.368-6.362A1.794,1.794,0,0,1,55.628,45.7l3.832,3.825v-9.5a1.794,1.794,0,1,1,3.588,0v9.5L66.872,45.7a1.794,1.794,0,0,1,2.537,2.537L63.047,54.6V58.36a9.584,9.584,0,0,0,8.783-17,1.792,1.792,0,0,1-1-1.607,9.579,9.579,0,0,0-6.213-8.98,1.79,1.79,0,0,1,1.262-3.35,13.185,13.185,0,0,1,8.5,11.319,13.282,13.282,0,0,1,3.967,4.293,13.163,13.163,0,0,1-15.3,19.146V73.321h38.1V62.178A13.157,13.157,0,0,1,85.849,43.032a13.255,13.255,0,0,1,3.961-4.293,13.169,13.169,0,0,1,26.261,0,13.262,13.262,0,0,1,3.961,4.293,13.159,13.159,0,0,1-15.294,19.146V73.321h15.972a1.789,1.789,0,0,1,1.79,1.79,61.25,61.25,0,1,1-122.5,0,1.8,1.8,0,0,1,1.8-1.79H17.769V62.178a13.159,13.159,0,0,1-15.3-19.146,13.332,13.332,0,0,1,3.961-4.293,13.169,13.169,0,0,1,26.261,0,13.283,13.283,0,0,1,3.968,4.293,13.163,13.163,0,0,1-15.3,19.146V73.321H36.414a1.794,1.794,0,0,1,0,3.588H3.615a58.415,58.415,0,0,0,.875,8.424H32.568a11.431,11.431,0,0,1,3.8,22.2,11.733,11.733,0,0,1,.773,1.4,11.4,11.4,0,0,1-2.347,12.9,11.746,11.746,0,0,1-3.71,2.421,57.67,57.67,0,0,0,9.441,4.673,25.479,25.479,0,0,1,6.633-4.7,30.281,30.281,0,0,1,9.461-2.842,1.789,1.789,0,0,1,.461,3.547,26.6,26.6,0,0,0-8.335,2.509,22.565,22.565,0,0,0-4.361,2.815,57.988,57.988,0,0,0,33.226.156,21.914,21.914,0,0,0-4.436-2.916,26.612,26.612,0,0,0-8.444-2.564,1.789,1.789,0,1,1,.461-3.547,30.348,30.348,0,0,1,9.6,2.91,25.178,25.178,0,0,1,6.68,4.829,57.75,57.75,0,0,0,18.122-10.946h-22.2a9.445,9.445,0,0,1-6.83-15.979,9.544,9.544,0,0,1,3.269-2.231A9.455,9.455,0,0,1,82,85.794h9.99a1.794,1.794,0,0,1,0,3.588H82a5.893,5.893,0,0,0-5.866,5.867,5.75,5.75,0,0,0,.536,2.448,5.814,5.814,0,0,0,1.533,2.014,1.792,1.792,0,0,1,.19,2.523,1.757,1.757,0,0,1-1.309.631,5.867,5.867,0,0,0,.3,11.726h25.894a57.573,57.573,0,0,0,13.856-25.209H100.119a1.794,1.794,0,0,1,0-3.588h17.8a58,58,0,0,0,.963-8.885H44.538Zm64.024-31.2a1.794,1.794,0,0,1,2.537,2.537L104.737,54.6V58.36a9.6,9.6,0,0,0,12.2-13.55,9.638,9.638,0,0,0-3.418-3.452,1.786,1.786,0,0,1-1-1.607,9.576,9.576,0,1,0-19.153,0h-.007a1.779,1.779,0,0,1-.9,1.546,9.638,9.638,0,0,0-3.513,3.513A9.59,9.59,0,0,0,97.257,59.18a9.592,9.592,0,0,0,3.886-.821V54.6l-6.362-6.362A1.794,1.794,0,1,1,97.317,45.7l3.825,3.825v-9.5a1.8,1.8,0,1,1,3.595,0v9.5Zm-83.38,0a1.794,1.794,0,1,1,2.537,2.537L21.357,54.6V58.36a9.584,9.584,0,0,0,8.783-17,1.792,1.792,0,0,1-1-1.607,9.58,9.58,0,0,0-19.16,0H9.977A1.786,1.786,0,0,1,9.089,41.3,9.581,9.581,0,0,0,7.1,56.373a9.59,9.59,0,0,0,9.258,2.482,9.9,9.9,0,0,0,1.411-.5V54.6L11.4,48.241A1.8,1.8,0,1,1,13.944,45.7l3.825,3.825v-9.5a1.794,1.794,0,1,1,3.588,0v9.5ZM5.256,88.92a57.711,57.711,0,0,0,21.8,32.622A8.2,8.2,0,0,0,32.3,119.27a7.825,7.825,0,0,0,1.587-8.824,7.933,7.933,0,0,0-2.041-2.7,1.788,1.788,0,0,1,1.112-3.147,7.845,7.845,0,0,0-.386-15.68H5.256Z" transform="translate(318.75 5336.639)"/>
  </g>
</svg>
