<svg xmlns="http://www.w3.org/2000/svg" xmlns:xlink="http://www.w3.org/1999/xlink" width="163" height="163" viewBox="0 0 163 163">
  <defs>
    <clipPath id="clip-path">
      <path id="path6078" d="M0-682.665H123.474v123.474H0Z" transform="translate(0 682.665)"/>
    </clipPath>
  </defs>
  <g id="Grupo_971571" data-name="Grupo 971571" transform="translate(-732 -5331)">
    <circle id="Elipse_6707" data-name="Elipse 6707" cx="81.5" cy="81.5" r="81.5" transform="translate(732 5331)" fill="#feb12e"/>
    <g id="g6072" transform="translate(751 6033.665)">
      <g id="g6074" transform="translate(0 -682.665)">
        <g id="g6076" clip-path="url(#clip-path)">
          <g id="g6082" transform="translate(82.831 33.41)">
            <path id="path6084" d="M-87.374-43.747a9.646,9.646,0,0,1-9.66,9.633,9.646,9.646,0,0,1-9.633-9.659,9.647,9.647,0,0,1,9.66-9.633,9.647,9.647,0,0,1,9.633,9.66" transform="translate(106.666 53.407)" fill="#ffd54f"/>
          </g>
          <g id="g6086" transform="translate(88.848 33.41)">
            <path id="path6088" d="M-16.5,0a9.615,9.615,0,0,0-3.618.7A9.648,9.648,0,0,1-14.1,9.65a9.648,9.648,0,0,1-6.041,8.934,9.619,9.619,0,0,0,3.616.709A9.646,9.646,0,0,0-6.864,9.66,9.646,9.646,0,0,0-16.5,0" transform="translate(20.14 0)" fill="#ffc328"/>
          </g>
          <path id="path6090" d="M328.567-512.112h-7.235v-14.9h7.235Z" transform="translate(-263.213 555.168)" fill="#a35418"/>
          <g id="g6092" transform="translate(4.993 15)">
            <path id="path6094" d="M-201.6-236c-.074-27.795-10.01-52.111-22.258-52.111S-246.042-263.8-246.115-236Z" transform="translate(246.115 288.111)" fill="#329c9d"/>
          </g>
          <g id="g6096" transform="translate(23.633 15)">
            <path id="path6098" d="M-16.383,0A9.685,9.685,0,0,0-20,.721C-9.471,4.931-1.426,27.112-1.36,52.111H5.875C5.8,24.316-4.135,0-16.383,0" transform="translate(20)" fill="#2d8b8c"/>
          </g>
          <g id="g6100" transform="translate(10.053 15)">
            <path id="path6102" d="M-155.766-88.612c-1.01.8-1.823,1.765-3.785,1.765-3.354,0-3.354-2.816-6.706-2.816s-3.352,2.816-6.706,2.816-3.352-2.816-6.7-2.816-3.352,2.816-6.706,2.816c-1.963,0-2.777-.965-3.787-1.767,4.083-11.787,10.27-19.565,17.2-19.565s13.116,7.779,17.2,19.566" transform="translate(190.161 108.178)" fill="#f3f3f3"/>
          </g>
          <g id="g6104" transform="translate(23.634 15)">
            <path id="path6106" d="M-16.379,0A9.692,9.692,0,0,0-20,.721c5.514,2.206,10.346,9.343,13.709,19.23a4.628,4.628,0,0,0,3.32,1.38c1.962,0,2.775-.965,3.785-1.765C-3.263,7.779-9.452,0-16.379,0" transform="translate(19.996 0)" fill="#e4e4e4"/>
          </g>
          <g id="g6108" transform="translate(42.063 1.809)">
            <path id="path6110" d="M-118.551-119.305h-13.005a13.172,13.172,0,0,1-13.172-13.172,13.172,13.172,0,0,1,13.172-13.172h13.005a13.172,13.172,0,0,1,13.172,13.172,13.172,13.172,0,0,1-13.172,13.172" transform="translate(144.728 145.649)" fill="#6de470"/>
          </g>
          <g id="g6112" transform="translate(61.005 1.809)">
            <path id="path6114" d="M-32.765,0H-40A13.172,13.172,0,0,1-26.828,13.172,13.172,13.172,0,0,1-40,26.344h7.235A13.172,13.172,0,0,0-19.593,13.172,13.172,13.172,0,0,0-32.765,0" transform="translate(40)" fill="#4dcc68"/>
          </g>
          <g id="g6116" transform="translate(19.293 40.515)">
            <path id="path6118" d="M-384.444-90.65c0,11.055-19,20.016-42.444,20.016S-469.332-79.6-469.332-90.65s19-20.016,42.444-20.016,42.444,8.961,42.444,20.016" transform="translate(469.332 110.666)" fill="#6de470"/>
          </g>
          <g id="g6120" transform="translate(58.119 40.515)">
            <path id="path6122" d="M-16.383,0Q-18.211,0-20,.073C1.748.939,18.827,9.536,18.827,20.016S1.748,39.093-20,39.959q1.789.071,3.617.073c23.441,0,42.444-8.961,42.444-20.016S7.059,0-16.383,0" transform="translate(20 0)" fill="#4dcc68"/>
          </g>
          <g id="g6124" transform="translate(1.809 56.914)">
            <path id="path6126" d="M-542.809-3.489a.734.734,0,0,0-.8-.732c-4.209.423-4.475,4.156-9.187,4.156-4.995,0-4.995-4.195-9.99-4.195s-4.994,4.195-9.988,4.195-4.994-4.195-9.989-4.195-4.994,4.195-9.988,4.195-4.994-4.195-9.988-4.195-4.993,4.195-9.987,4.195-4.994-4.195-9.988-4.195S-627.709-.065-632.7-.065-637.7-4.26-642.691-4.26s-4.994,4.195-9.987,4.195c-4.711,0-4.978-3.733-9.185-4.156a.734.734,0,0,0-.8.732V.563a59.928,59.928,0,0,0,59.928,59.928h0A59.928,59.928,0,0,0-542.809.563Z" transform="translate(662.665 4.26)" fill="#bdf9ff"/>
          </g>
          <g id="g6128" transform="translate(58.116 56.914)">
            <path id="path6130" d="M-28.85-19a6.239,6.239,0,0,0,3.617-1.035c-1.9-1.242-2.993-3.16-6.37-3.16A6.239,6.239,0,0,0-35.22-22.16c1.9,1.242,2.993,3.16,6.37,3.16" transform="translate(35.22 23.195)" fill="#8bf0ff"/>
          </g>
          <g id="g6132" transform="translate(98.069 56.914)">
            <path id="path6134" d="M-28.857-19a6.245,6.245,0,0,0,3.619-1.034c-1.9-1.242-2.994-3.161-6.373-3.161a6.24,6.24,0,0,0-3.617,1.035c1.9,1.242,2.994,3.16,6.372,3.16" transform="translate(35.229 23.195)" fill="#8bf0ff"/>
          </g>
          <g id="g6136" transform="translate(78.092 56.914)">
            <path id="path6138" d="M-28.853-19a6.237,6.237,0,0,0,3.617-1.035c-1.9-1.242-2.993-3.16-6.371-3.16a6.237,6.237,0,0,0-3.617,1.035c1.9,1.242,2.993,3.16,6.371,3.16" transform="translate(35.224 23.195)" fill="#8bf0ff"/>
          </g>
          <g id="g6140" transform="translate(38.142 56.914)">
            <path id="path6142" d="M-28.851-19a6.24,6.24,0,0,0,3.617-1.035c-1.9-1.242-2.993-3.16-6.37-3.16a6.24,6.24,0,0,0-3.617,1.035c1.9,1.242,2.993,3.16,6.37,3.16" transform="translate(35.221 23.195)" fill="#8bf0ff"/>
          </g>
          <g id="g6144" transform="translate(58.119 56.949)">
            <path id="path6146" d="M-284.154-.017c-3.191.321-4.118,2.544-6.433,3.6V4.768A59.928,59.928,0,0,1-346.9,64.584c1.2.071,2.4.112,3.617.112h0A59.928,59.928,0,0,0-283.352,4.768V.715a.734.734,0,0,0-.8-.732" transform="translate(346.898 0.02)" fill="#8bf0ff"/>
          </g>
          <g id="g6148" transform="translate(1.809 56.949)">
            <path id="path6150" d="M-12.465-18.84a6.238,6.238,0,0,0,3.616-1.035c-1.739-1.138-2.8-2.844-5.566-3.122a.734.734,0,0,0-.8.732V-19.4a6.451,6.451,0,0,0,2.752.556" transform="translate(15.217 23)" fill="#8bf0ff"/>
          </g>
          <g id="g6152" transform="translate(18.166 56.914)">
            <path id="path6154" d="M-28.851-19a6.238,6.238,0,0,0,3.617-1.035c-1.9-1.242-2.993-3.16-6.37-3.16a6.24,6.24,0,0,0-3.617,1.035c1.9,1.242,2.993,3.16,6.37,3.16" transform="translate(35.221 23.195)" fill="#8bf0ff"/>
          </g>
          <g id="g6156" transform="translate(82.831 77.997)">
            <path id="path6158" d="M-52.976-19.567c0,2.386-3.218,4.321-6.448,4.321s-5.249-1.934-5.249-4.321,2.019-4.321,5.249-4.321,6.448,1.934,6.448,4.321" transform="translate(64.673 23.888)" fill="#f75632"/>
          </g>
          <g id="g6160" transform="translate(94.528 78.7)">
            <path id="path6162" d="M-23.168-32.765c-2.825,0-5.116-1.62-5.116-3.617S-25.994-40-23.168-40s2.825,7.235,0,7.235" transform="translate(28.284 40)" fill="#e33629"/>
          </g>
          <g id="g6164" transform="translate(82.831 33.41)">
            <path id="path6166" d="M-71.755-77.159a9.631,9.631,0,0,0,3.449-7.379A9.645,9.645,0,0,0-77.94-94.2,9.644,9.644,0,0,0-87.6-84.564v.118" transform="translate(87.598 94.196)" fill="none" stroke="#000" stroke-linecap="round" stroke-linejoin="round" stroke-miterlimit="10" stroke-width="4"/>
          </g>
          <g id="g6168" transform="translate(92.499 25.452)">
            <path id="path6170" d="M-.011,0l0,1.8" transform="translate(0.013)" fill="none" stroke="#000" stroke-linecap="round" stroke-linejoin="round" stroke-miterlimit="10" stroke-width="4"/>
          </g>
          <g id="g6172" transform="translate(83.696 27.798)">
            <path id="path6174" d="M0,0,.9,1.557" fill="none" stroke="#000" stroke-linecap="round" stroke-linejoin="round" stroke-miterlimit="10" stroke-width="4"/>
          </g>
          <g id="g6176" transform="translate(77.243 34.233)">
            <path id="path6178" d="M0,0,1.555.9" fill="none" stroke="#000" stroke-linecap="round" stroke-linejoin="round" stroke-miterlimit="10" stroke-width="4"/>
          </g>
          <g id="g6180" transform="translate(106.157 50.979)">
            <path id="path6182" d="M0,0,1.555.9" fill="none" stroke="#000" stroke-linecap="round" stroke-linejoin="round" stroke-miterlimit="10" stroke-width="4"/>
          </g>
          <g id="g6184" transform="translate(108.286 43.078)">
            <path id="path6186" d="M0,0,1.8,0" fill="none" stroke="#000" stroke-linecap="round" stroke-linejoin="round" stroke-miterlimit="10" stroke-width="4"/>
          </g>
          <g id="g6188" transform="translate(106.178 34.275)">
            <path id="path6190" d="M0-4.059l1.557-.9" transform="translate(0 4.955)" fill="none" stroke="#000" stroke-linecap="round" stroke-linejoin="round" stroke-miterlimit="10" stroke-width="4"/>
          </g>
          <g id="g6192" transform="translate(100.4 27.822)">
            <path id="path6194" d="M0-7.04.9-8.595" transform="translate(0 8.595)" fill="none" stroke="#000" stroke-linecap="round" stroke-linejoin="round" stroke-miterlimit="10" stroke-width="4"/>
          </g>
          <g id="g6196" transform="translate(58.119 28.153)">
            <path id="path6198" d="M0-54.388V-66.4H7.235v12.009" transform="translate(0 66.397)" fill="none" stroke="#000" stroke-linecap="round" stroke-linejoin="round" stroke-miterlimit="10" stroke-width="4"/>
          </g>
          <g id="g6200" transform="translate(5.395 53.349)">
            <path id="path6202" d="M-2.048,0Q-2.314,2.16-2.5,4.379" transform="translate(2.5)" fill="none" stroke="#000" stroke-linecap="round" stroke-linejoin="round" stroke-miterlimit="10" stroke-width="4"/>
          </g>
          <g id="g6204" transform="translate(7.055 15)">
            <path id="path6206" d="M-178.433-119.38c-3.867-15.5-11.019-26.36-19.2-26.36-8.946,0-16.658,12.973-20.2,30.8" transform="translate(217.833 145.74)" fill="none" stroke="#000" stroke-linecap="round" stroke-linejoin="round" stroke-miterlimit="10" stroke-width="4"/>
          </g>
          <g id="g6208" transform="translate(10.192 33.515)">
            <path id="path6210" d="M-154.56-5.226a5.094,5.094,0,0,1-3.657,1.663c-3.354,0-3.354-2.817-6.706-2.817s-3.352,2.817-6.706,2.817-3.352-2.817-6.7-2.817-3.352,2.817-6.706,2.817a5.072,5.072,0,0,1-3.648-1.655" transform="translate(188.688 6.38)" fill="none" stroke="#000" stroke-linecap="round" stroke-linejoin="round" stroke-miterlimit="10" stroke-width="4"/>
          </g>
          <g id="g6212" transform="translate(42.062 1.809)">
            <path id="path6214" d="M-175.408-41.549a13.166,13.166,0,0,1,.618,4A13.172,13.172,0,0,1-187.963-24.38h-13.005a13.172,13.172,0,0,1-13.172-13.172,13.172,13.172,0,0,1,13.172-13.172h13.005a13.116,13.116,0,0,1,8.2,2.863" transform="translate(214.139 50.724)" fill="none" stroke="#000" stroke-linecap="round" stroke-linejoin="round" stroke-miterlimit="10" stroke-width="4"/>
          </g>
          <g id="g6216" transform="translate(19.984 40.515)">
            <path id="path6218" d="M0-74.265c3.611-9.328,20.931-16.4,41.753-16.4s38.142,7.071,41.753,16.4" transform="translate(0 90.664)" fill="none" stroke="#000" stroke-linecap="round" stroke-linejoin="round" stroke-miterlimit="10" stroke-width="4"/>
          </g>
          <g id="g6220" transform="translate(1.809 56.914)">
            <path id="path6222" d="M-490.528-182.016a59.657,59.657,0,0,0,11.544-35.367v-4.053a.734.734,0,0,0-.8-.732c-4.209.423-4.475,4.156-9.187,4.156-4.995,0-4.995-4.195-9.99-4.195s-4.994,4.195-9.988,4.195-4.994-4.195-9.989-4.195-4.994,4.195-9.988,4.195-4.994-4.195-9.988-4.195-4.993,4.195-9.987,4.195-4.994-4.195-9.988-4.195-4.994,4.195-9.988,4.195-4.994-4.195-9.988-4.195-4.994,4.195-9.987,4.195c-4.711,0-4.977-3.733-9.185-4.156a.734.734,0,0,0-.8.732v4.053a59.928,59.928,0,0,0,59.928,59.928h0a59.755,59.755,0,0,0,43.326-18.525" transform="translate(598.84 222.206)" fill="none" stroke="#000" stroke-linecap="round" stroke-linejoin="round" stroke-miterlimit="10" stroke-width="4"/>
          </g>
          <g id="g6224" transform="translate(20.935 73.9)">
            <path id="path6226" d="M-201.406-14.1c-3.706,0-3.706-3.113-7.412-3.113s-3.706,3.113-7.411,3.113-3.706-3.113-7.412-3.113-3.706,3.113-7.412,3.113-3.706-3.113-7.412-3.113-3.706,3.113-7.412,3.113" transform="translate(245.878 17.213)" fill="none" stroke="#000" stroke-linecap="round" stroke-linejoin="round" stroke-miterlimit="10" stroke-width="4"/>
          </g>
          <g id="g6228" transform="translate(29.218 86.586)">
            <path id="path6230" d="M-201.406-14.1c-3.706,0-3.706-3.113-7.412-3.113s-3.706,3.113-7.412,3.113-3.706-3.113-7.412-3.113-3.706,3.113-7.412,3.113-3.706-3.113-7.412-3.113-3.706,3.113-7.412,3.113" transform="translate(245.878 17.213)" fill="none" stroke="#000" stroke-linecap="round" stroke-linejoin="round" stroke-miterlimit="10" stroke-width="4"/>
          </g>
          <g id="g6232" transform="translate(43.292 100.117)">
            <path id="path6234" d="M-134.274-14.1c-3.706,0-3.706-3.113-7.412-3.113S-145.392-14.1-149.1-14.1s-3.706-3.113-7.412-3.113-3.706,3.113-7.412,3.113" transform="translate(163.922 17.213)" fill="none" stroke="#000" stroke-linecap="round" stroke-linejoin="round" stroke-miterlimit="10" stroke-width="4"/>
          </g>
          <g id="g6236" transform="translate(82.831 77.997)">
            <path id="path6238" d="M-52.976-19.567c0,2.386-3.218,4.321-6.448,4.321s-5.249-1.934-5.249-4.321,2.019-4.321,5.249-4.321S-52.976-21.954-52.976-19.567Z" transform="translate(64.673 23.888)" fill="none" stroke="#000" stroke-linecap="round" stroke-linejoin="round" stroke-miterlimit="10" stroke-width="4"/>
          </g>
          <g id="g6240" transform="translate(94.528 78.7)">
            <path id="path6242" d="M-23.168-32.765c-2.825,0-5.116-1.62-5.116-3.617S-25.994-40-23.168-40-20.343-32.765-23.168-32.765Z" transform="translate(28.284 40)" fill="none" stroke="#000" stroke-linecap="round" stroke-linejoin="round" stroke-miterlimit="10" stroke-width="4"/>
          </g>
        </g>
      </g>
    </g>
  </g>
</svg>
