<svg xmlns="http://www.w3.org/2000/svg" xmlns:xlink="http://www.w3.org/1999/xlink" width="163" height="163" viewBox="0 0 163 163">
  <defs>
    <clipPath id="clip-path">
      <path id="path679" d="M0-682.665H124.317v124.317H0Z" transform="translate(0 682.665)"/>
    </clipPath>
  </defs>
  <g id="Grupo_971572" data-name="Grupo 971572" transform="translate(-1139 -5331)">
    <circle id="Elipse_6708" data-name="Elipse 6708" cx="81.5" cy="81.5" r="81.5" transform="translate(1139 5331)" fill="#feb12e"/>
    <g id="g657" transform="translate(1157.599 6032.53)">
      <g id="g659" transform="translate(41.498 -680.844)">
        <path id="path661" d="M-92.793,0V61.51h-20.66V3.647Z" transform="translate(113.453)" fill="#c8d9e2"/>
      </g>
      <path id="path663" d="M130.725-542.942H109.093v-46.323h21.632Z" transform="translate(-89.227 -76.391)" fill="#997ab8"/>
      <path id="path665" d="M65.756-493.444H56.107v-35.3h9.649Z" transform="translate(-45.889 -125.89)" fill="#c8d9e2"/>
      <path id="path667" d="M362.964-542.942H341.333v-46.323h21.632Z" transform="translate(-279.174 -76.391)" fill="#f7775b"/>
      <g id="g669" transform="translate(83.79 -665.608)">
        <path id="path671" d="M-92.793,0V46.274h-20.66V4.856Z" transform="translate(113.453)" fill="#c8d9e2"/>
      </g>
      <path id="path673" d="M583.221-493.444h-9.649v-35.3h9.649Z" transform="translate(-469.121 -125.89)" fill="#997ab8"/>
      <g id="g675" transform="translate(0 -682.665)">
        <g id="g677" clip-path="url(#clip-path)">
          <g id="g683" transform="translate(7.975 63.332)">
            <path id="path685" d="M-490.223,0a54.948,54.948,0,0,1-22.256,44.208l-19.359,6.721-3.775-1.583-58.849-24.66a54.588,54.588,0,0,1-4.91-14.576L-595.645,0Z" transform="translate(599.372)" fill="#7ac2ed"/>
          </g>
          <g id="g687" transform="translate(71.734 63.332)">
            <path id="path689" d="M-203.861,0a54.948,54.948,0,0,1-22.256,44.208l-19.359,6.721-3.775-1.583A51.657,51.657,0,0,0-212.848,0Z" transform="translate(249.251)" fill="#68a6dc"/>
          </g>
          <g id="g691" transform="translate(7.047 63.332)">
            <path id="path693" d="M-61.974,0c-1.938,4.6-5.466,8.6-12.871,10.11A55.279,55.279,0,0,1-75.773,0Z" transform="translate(75.773)" fill="#d1e16f"/>
          </g>
          <g id="g695" transform="translate(12.885 73.443)">
            <path id="path697" d="M-368.207-153.137a54.8,54.8,0,0,1-32.783,10.822A54.8,54.8,0,0,1-436.2-155.052a55.247,55.247,0,0,1-13.986-17.6c21.684,0,8.281-14.576,18.336-14.576,13.434,0,11.7,21.807,19.039,25.6,7.249,3.744,12.665-4.1,22.972-4.1,7.83,0,7.915,6.823,13.255,10.429a14.427,14.427,0,0,0,8.381,2.171" transform="translate(450.19 187.233)" fill="#d1e16f"/>
          </g>
          <g id="g699" transform="translate(26.871 105.369)">
            <path id="path701" d="M-267.752,0a14.426,14.426,0,0,0,8.381,2.171,54.8,54.8,0,0,1-32.783,10.822A54.8,54.8,0,0,1-327.367.255a51.392,51.392,0,0,0,29.628,9.339A51.415,51.415,0,0,0-267.752,0" transform="translate(327.367 0)" fill="#9ccc4b"/>
          </g>
          <g id="g703" transform="translate(88.573 75.452)">
            <path id="path705" d="M-152.462-62.525a4.423,4.423,0,0,1-4.422,4.421h-23.5a6.028,6.028,0,0,1-6.027-6.028,6.027,6.027,0,0,1,6.027-6.026A6,6,0,0,1-176.7-68.9a9.176,9.176,0,0,1,9.028-7.545,9.142,9.142,0,0,1,5.48,1.815,9.163,9.163,0,0,1,3.692,7.356c0,.215-.007.43-.021.641a4.421,4.421,0,0,1,1.635-.312,4.421,4.421,0,0,1,4.422,4.421" transform="translate(186.408 76.446)" fill="#e6f8fc"/>
          </g>
          <g id="g707" transform="translate(88.573 77.266)">
            <path id="path709" d="M-152.462-54.375a4.423,4.423,0,0,1-4.422,4.421h-23.5a6.028,6.028,0,0,1-6.027-6.028c0,1.654,2.046,3.145,3.7,3.145h13.074a8.9,8.9,0,0,0,8.813-8.9,8.85,8.85,0,0,0-1.367-4.743,9.163,9.163,0,0,1,3.692,7.356c0,.215-.007.43-.021.641a4.421,4.421,0,0,1,1.635-.312,4.421,4.421,0,0,1,4.422,4.421" transform="translate(186.408 66.481)" fill="#d0edf5"/>
          </g>
          <g id="g711" transform="translate(51.963 63.332)">
            <path id="path713" d="M-53.874,0c5.017,4.086,9.452,10.443,7.988,13.793-1.734,3.971-14.261,3.064-17.323,0-2.2-2.2-3.305-9.338-2.266-13.793Z" transform="translate(65.869)" fill="#d1e16f"/>
          </g>
          <path id="path715" d="M56.107-371.372h9.649v6.643H56.107Z" transform="translate(-45.889 428.061)" fill="#a1adb4"/>
          <path id="path717" d="M227.879-371.372h20.66v6.643h-20.66Z" transform="translate(-186.381 428.061)" fill="#a1adb4"/>
          <g id="g719" transform="translate(83.79 56.683)">
            <path id="path721" d="M-92.793,0V6.648h-20.66V0h20.51c.051,0,.1,0,.15,0" transform="translate(113.453 0)" fill="#a1adb4"/>
          </g>
          <path id="path723" d="M109.093-371.372h21.632v6.643H109.093Z" transform="translate(-89.227 428.061)" fill="#6957a1"/>
          <path id="path725" d="M341.333-371.372h21.632v6.643H341.333Z" transform="translate(-279.174 428.061)" fill="#f25853"/>
          <g id="g727" transform="translate(104.451 28.03)">
            <path id="path729" d="M-43.337,0V35.3h-9.649V28.654a4.97,4.97,0,0,0,4.825-4.97V0Z" transform="translate(52.987)" fill="#6957a1"/>
          </g>
          <g id="g731" transform="translate(7.024 63.332)">
            <path id="path733" d="M-426.454-170.513a54.868,54.868,0,0,1-39.9,17.141,55.078,55.078,0,0,1-55.05-55.106" transform="translate(521.405 208.478)" fill="none" stroke="#000" stroke-linecap="round" stroke-miterlimit="10" stroke-width="4"/>
          </g>
          <g id="g735" transform="translate(116.646 63.332)">
            <path id="path737" d="M-2.147,0a55.661,55.661,0,0,1-.478,7.295" transform="translate(2.625)" fill="none" stroke="#000" stroke-linecap="round" stroke-miterlimit="10" stroke-width="4"/>
          </g>
          <g id="g739" transform="translate(12.863 73.459)">
            <path id="path741" d="M-368.291-153.343c-14.66,0-11-12.618-21.642-12.618-10.308,0-15.725,7.854-22.975,4.106-7.339-3.793-5.606-25.631-19.043-25.631-10.057,0,3.351,14.6-18.34,14.6" transform="translate(450.292 187.485)" fill="none" stroke="#000" stroke-miterlimit="10" stroke-width="4"/>
          </g>
          <g id="g743" transform="translate(88.55 75.445)">
            <path id="path745" d="M-106.179-82.476h5.884A4.424,4.424,0,0,0-95.874-86.9a4.424,4.424,0,0,0-4.421-4.426,4.405,4.405,0,0,0-1.636.313q.022-.319.022-.643a9.177,9.177,0,0,0-9.172-9.182,9.178,9.178,0,0,0-9.029,7.554,6,6,0,0,0-3.683-1.257,6.03,6.03,0,0,0-6.027,6.034,6.03,6.03,0,0,0,6.027,6.034h9.217" transform="translate(129.82 100.84)" fill="none" stroke="#000" stroke-linecap="round" stroke-linejoin="round" stroke-miterlimit="10" stroke-width="4"/>
          </g>
          <g id="g747" transform="translate(7.952 63.333)">
            <path id="path749" d="M0-45.479C7.407-46.994,10.938-51,12.875-55.605" transform="translate(0 55.605)" fill="none" stroke="#000" stroke-linecap="round" stroke-linejoin="round" stroke-miterlimit="10" stroke-width="4"/>
          </g>
          <g id="g771" transform="translate(51.94 63.332)">
            <path id="path773" d="M-53.875,0c5.017,4.087,9.452,10.447,7.988,13.8-1.734,3.972-14.261,3.065-17.323,0-2.2-2.2-3.306-9.342-2.266-13.8" transform="translate(65.87)" fill="none" stroke="#000" stroke-linejoin="round" stroke-miterlimit="10" stroke-width="4"/>
          </g>
          <g id="g775" transform="translate(1.821 63.332)">
            <path id="path777" d="M0,0H120.675" fill="none" stroke="#000" stroke-linecap="round" stroke-miterlimit="10" stroke-width="4"/>
          </g>
          <g id="g779" transform="translate(104.45 46.41)">
            <path id="path781" d="M0-43.288v-9.638" transform="translate(0 52.927)" fill="none" stroke="#000" stroke-linecap="round" stroke-linejoin="round" stroke-miterlimit="10" stroke-width="4"/>
          </g>
          <g id="g783" transform="translate(83.79 17.057)">
            <path id="path785" d="M-92.79-94.145v-20.962l-20.66,4.856v34.136" transform="translate(113.45 115.106)" fill="none" stroke="#000" stroke-linecap="round" stroke-linejoin="round" stroke-miterlimit="10" stroke-width="4"/>
          </g>
          <g id="g787" transform="translate(62.159 34.172)">
            <path id="path789" d="M0-98.253v-21.876" transform="translate(0 120.129)" fill="none" stroke="#000" stroke-linecap="round" stroke-linejoin="round" stroke-miterlimit="10" stroke-width="4"/>
          </g>
          <g id="g791" transform="translate(41.498 1.821)">
            <path id="path793" d="M-92.791-107.589v-23.955l-20.66,3.647v50.581" transform="translate(113.452 131.544)" fill="none" stroke="#000" stroke-linecap="round" stroke-linejoin="round" stroke-miterlimit="10" stroke-width="4"/>
          </g>
          <g id="g795" transform="translate(19.867 17.008)">
            <path id="path797" d="M-97.152,0h-21.631V19.621" transform="translate(118.784)" fill="none" stroke="#000" stroke-linecap="round" stroke-linejoin="round" stroke-miterlimit="10" stroke-width="4"/>
          </g>
          <g id="g799" transform="translate(19.867 45.087)">
            <path id="path801" d="M0,0V10.855" fill="none" stroke="#000" stroke-linecap="round" stroke-linejoin="round" stroke-miterlimit="10" stroke-width="4"/>
          </g>
          <g id="g803" transform="translate(34.367 10.63)">
            <path id="path805" d="M0-28.646v-6.378" transform="translate(0 35.024)" fill="none" stroke="#000" stroke-linecap="round" stroke-linejoin="round" stroke-miterlimit="10" stroke-width="4"/>
          </g>
          <g id="g807" transform="translate(34.367 24.592)">
            <path id="path809" d="M0,0V3.057" transform="translate(0)" fill="none" stroke="#000" stroke-linecap="round" stroke-linejoin="round" stroke-miterlimit="10" stroke-width="4"/>
          </g>
          <g id="g811" transform="translate(27.083 24.592)">
            <path id="path813" d="M0,0V3.057" fill="none" stroke="#000" stroke-linecap="round" stroke-linejoin="round" stroke-miterlimit="10" stroke-width="4"/>
          </g>
          <g id="g815" transform="translate(34.367 36.247)">
            <path id="path817" d="M0,0V3.057" transform="translate(0)" fill="none" stroke="#000" stroke-linecap="round" stroke-linejoin="round" stroke-miterlimit="10" stroke-width="4"/>
          </g>
          <g id="g819" transform="translate(27.083 36.247)">
            <path id="path821" d="M0,0V3.057" fill="none" stroke="#000" stroke-linecap="round" stroke-linejoin="round" stroke-miterlimit="10" stroke-width="4"/>
          </g>
          <g id="g823" transform="translate(34.325 47.796)">
            <path id="path825" d="M0,0V8.146" transform="translate(0)" fill="none" stroke="#000" stroke-linecap="round" stroke-linejoin="round" stroke-miterlimit="10" stroke-width="4"/>
          </g>
          <g id="g827" transform="translate(27.041 47.796)">
            <path id="path829" d="M0,0V8.146" fill="none" stroke="#000" stroke-linecap="round" stroke-linejoin="round" stroke-miterlimit="10" stroke-width="4"/>
          </g>
          <g id="g831" transform="translate(62.159 17.008)">
            <path id="path833" d="M-97.154-175.342v-39.04h-21.631" transform="translate(118.785 214.382)" fill="none" stroke="#000" stroke-linecap="round" stroke-linejoin="round" stroke-miterlimit="10" stroke-width="4"/>
          </g>
          <g id="g835" transform="translate(76.658 10.63)">
            <path id="path837" d="M0-28.646v-6.378" transform="translate(0 35.024)" fill="none" stroke="#000" stroke-linecap="round" stroke-linejoin="round" stroke-miterlimit="10" stroke-width="4"/>
          </g>
          <g id="g839" transform="translate(76.658 24.592)">
            <path id="path841" d="M0,0V3.057" fill="none" stroke="#000" stroke-linecap="round" stroke-linejoin="round" stroke-miterlimit="10" stroke-width="4"/>
          </g>
          <g id="g843" transform="translate(69.374 24.592)">
            <path id="path845" d="M0,0V3.057" transform="translate(0)" fill="none" stroke="#000" stroke-linecap="round" stroke-linejoin="round" stroke-miterlimit="10" stroke-width="4"/>
          </g>
          <g id="g847" transform="translate(76.658 36.247)">
            <path id="path849" d="M0,0V3.057" fill="none" stroke="#000" stroke-linecap="round" stroke-linejoin="round" stroke-miterlimit="10" stroke-width="4"/>
          </g>
          <g id="g851" transform="translate(69.374 36.247)">
            <path id="path853" d="M0,0V3.057" transform="translate(0)" fill="none" stroke="#000" stroke-linecap="round" stroke-linejoin="round" stroke-miterlimit="10" stroke-width="4"/>
          </g>
          <g id="g855" transform="translate(76.658 47.796)">
            <path id="path857" d="M0,0V8.146" fill="none" stroke="#000" stroke-linecap="round" stroke-linejoin="round" stroke-miterlimit="10" stroke-width="4"/>
          </g>
          <g id="g859" transform="translate(69.374 47.796)">
            <path id="path861" d="M0,0V8.146" transform="translate(0)" fill="none" stroke="#000" stroke-linecap="round" stroke-linejoin="round" stroke-miterlimit="10" stroke-width="4"/>
          </g>
          <g id="g863" transform="translate(41.498 13.366)">
            <path id="path865" d="M0,0H13.38" fill="none" stroke="#000" stroke-linecap="round" stroke-linejoin="round" stroke-miterlimit="10" stroke-width="4"/>
          </g>
          <g id="g867" transform="translate(41.498 21.67)">
            <path id="path869" d="M0,0H13.38" fill="none" stroke="#000" stroke-linecap="round" stroke-linejoin="round" stroke-miterlimit="10" stroke-width="4"/>
          </g>
          <g id="g871" transform="translate(41.498 29.974)">
            <path id="path873" d="M0,0H13.38" fill="none" stroke="#000" stroke-linecap="round" stroke-linejoin="round" stroke-miterlimit="10" stroke-width="4"/>
          </g>
          <g id="g875" transform="translate(41.498 38.278)">
            <path id="path877" d="M0,0H13.38" fill="none" stroke="#000" stroke-linecap="round" stroke-linejoin="round" stroke-miterlimit="10" stroke-width="4"/>
          </g>
          <g id="g879" transform="translate(41.498 46.582)">
            <path id="path881" d="M0,0H13.38" fill="none" stroke="#000" stroke-linecap="round" stroke-linejoin="round" stroke-miterlimit="10" stroke-width="4"/>
          </g>
          <g id="g883" transform="translate(83.79 31.431)">
            <path id="path885" d="M0,0H13.379" fill="none" stroke="#000" stroke-linecap="round" stroke-linejoin="round" stroke-miterlimit="10" stroke-width="4"/>
          </g>
          <g id="g887" transform="translate(83.79 39.735)">
            <path id="path889" d="M0,0H13.379" fill="none" stroke="#000" stroke-linecap="round" stroke-linejoin="round" stroke-miterlimit="10" stroke-width="4"/>
          </g>
          <g id="g891" transform="translate(83.79 48.039)">
            <path id="path893" d="M0,0H13.379" fill="none" stroke="#000" stroke-linecap="round" stroke-linejoin="round" stroke-miterlimit="10" stroke-width="4"/>
          </g>
          <g id="g895" transform="translate(10.217 28.031)">
            <path id="path897" d="M-43.343,0h-9.65V28.018" transform="translate(52.993)" fill="none" stroke="#000" stroke-linecap="round" stroke-linejoin="round" stroke-miterlimit="10" stroke-width="4"/>
          </g>
          <g id="g899" transform="translate(104.45 28.031)">
            <path id="path901" d="M-43.343-125.836v-28.018h-9.65" transform="translate(52.993 153.854)" fill="none" stroke="#000" stroke-linecap="round" stroke-linejoin="round" stroke-miterlimit="10" stroke-width="4"/>
          </g>
        </g>
      </g>
    </g>
  </g>
</svg>
