<svg xmlns="http://www.w3.org/2000/svg" xmlns:xlink="http://www.w3.org/1999/xlink" width="231" height="130" viewBox="0 0 231 130">
  <defs>
    <clipPath id="clip-path">
      <rect id="Rectángulo_341118" data-name="Rectángulo 341118" width="121.809" height="114.086" fill="none"/>
    </clipPath>
    <clipPath id="clip-path-3">
      <rect id="Rectángulo_341116" data-name="Rectángulo 341116" width="37.953" height="23.775" fill="none"/>
    </clipPath>
  </defs>
  <g id="Grupo_971563" data-name="Grupo 971563" transform="translate(-316 -1039)">
    <circle id="Elipse_5346" data-name="Elipse 5346" cx="52.5" cy="52.5" r="52.5" transform="translate(388.5 1052)" fill="#34bc85"/>
    <g id="Grupo_971246" data-name="Grupo 971246" transform="translate(376.191 1047.457)">
      <g id="Grupo_969559" data-name="Grupo 969559" clip-path="url(#clip-path)">
        <g id="Grupo_969558" data-name="Grupo 969558">
          <g id="Grupo_969557" data-name="Grupo 969557" clip-path="url(#clip-path)">
            <path id="Trazado_730106" data-name="Trazado 730106" d="M347.21,272.526s-.963.289-2.108-.92a.8.8,0,0,0-1.257.111,28.836,28.836,0,0,1,1.187,2.667c.313,1.125-1.09-.135-1.09-.135s.963,1.906-.808,1.036-2.05-4.571-1.675-4.924.96-.021.96-.021a.877.877,0,0,1,.9-.973c1.023-.113,1.872.77,2.731,1.592s1.7,1.124,1.16,1.567" transform="translate(-309.121 -203.422)" fill="#203046"/>
            <path id="Trazado_730107" data-name="Trazado 730107" d="M347.21,272.526c.061-.315-1.17-.831-1.858-1.556s-1.273-1.506-1.928-1.161c-.623.325-.353,1.234-.324,1.329a.591.591,0,0,0-.573-.338c-.391.056-.582,2.593,1.416,3.449,0,0,.963,1.906-.808,1.036s-2.05-4.571-1.675-4.924.96-.021.96-.021a.877.877,0,0,1,.9-.973c1.023-.113,1.872.77,2.731,1.592s1.7,1.124,1.16,1.567" transform="translate(-309.121 -203.422)" fill="#132335"/>
            <path id="Trazado_730108" data-name="Trazado 730108" d="M218.49,13.832c9.857-7.326,17.472-10.374,23.868-12.226S255.225-.428,256.2.712s-4.78,2.752-6.842,3.1-11.647,2.324-16.98,4.7-13.891,5.319-13.891,5.319" transform="translate(-187.988 0)" fill="#0d2742"/>
            <path id="Trazado_730109" data-name="Trazado 730109" d="M246.893,14.012c1.335-1.859-4.631-2.617-10.3-2.026s-23.181,7.157-24.937,9.337l4.077.888s10.566-4.435,18.606-5.234c7.147-.71,11.266-1.168,12.557-2.965" transform="translate(-177.083 -8.903)" fill="#0d2742"/>
            <path id="Trazado_730110" data-name="Trazado 730110" d="M243.45,27.6c3.618,1.3,4.974,1.95,4.694,3.02s-2.227,1.814-5.569,1.7-20.643,2.675-22.8,3.457-1.325-1.623-1.325-1.623,12.7-6.472,18.846-6.511Z" transform="translate(-179.807 -20.848)" fill="#0d2742"/>
            <path id="Trazado_730111" data-name="Trazado 730111" d="M253.091,44.373c2.6,2.132,3.1,3.912.5,5.474,0,0-21.833,2.043-23.04,1.04s-1.221-3.624-1.221-3.624Z" transform="translate(-189.635 -33.511)" fill="#0d2742"/>
            <path id="Trazado_730112" data-name="Trazado 730112" d="M258.161,64.748c1.112,2.2,1.677,3.484.506,4.937s-18.494.448-20.774-.566-1.663-2.844-1.663-2.844Z" transform="translate(-195.314 -48.899)" fill="#0d2742"/>
            <path id="Trazado_730113" data-name="Trazado 730113" d="M262.52,80.2c1.5,2.554,1.531,3.565,1.068,4.51s-17.754-1.3-19.671-3.506.357-2.638.357-2.638Z" transform="translate(-201.561 -59.332)" fill="#0d2742"/>
            <path id="Trazado_730114" data-name="Trazado 730114" d="M268.54,92.383c1.213,2.448,1.428,3.585.612,4.649s-15.977-3.509-17.793-5.468.168-2.227.168-2.227Z" transform="translate(-209.171 -67.469)" fill="#0d2742"/>
            <path id="Trazado_730115" data-name="Trazado 730115" d="M273.8,102.447c1.006,2.487,1.238,4,.176,4.893s-15.35-7.268-15.35-7.268-1.259-.993-.443-2.058,15.616,4.434,15.616,4.434" transform="translate(-216 -73.918)" fill="#0d2742"/>
            <path id="Trazado_730116" data-name="Trazado 730116" d="M274.924,116.47c2.191,1.674,2.624,3.68,1.559,4.845s-6.337-1.8-8.338-3.884a18.971,18.971,0,0,1-3.286-5.482Z" transform="translate(-220.064 -84.546)" fill="#0d2742"/>
            <path id="Trazado_730117" data-name="Trazado 730117" d="M275.037,138.248c2.154,1.2,3.42,3.007,2.624,3.68s-6.922-1.14-8.519-2.363,1.308-3.7,1.308-3.7Z" transform="translate(-221.857 -102.606)" fill="#0d2742"/>
            <path id="Trazado_730118" data-name="Trazado 730118" d="M315.766,74.89c2.259.055,4.6-7.536-5.789-11.915,0,0,2.733-6.781-1.551-11.593s-8.8-1.948-11.765.219-4.441,4.4-4.723,7.72c-.3,3.531,3.347,7.077.2,10.2s23.624,5.368,23.624,5.368" transform="translate(-267.346 -36.822)" fill="#093c66"/>
            <path id="Trazado_730119" data-name="Trazado 730119" d="M291.361,181.115a30.464,30.464,0,0,1-3.4-.035c-.535-.035-1.085-.087-1.642-.155a28.335,28.335,0,0,1-6.828-1.713,27.828,27.828,0,0,1-5.629-2.634c-6.384-4.24-14.232-9.8-19.634-18.259a1.528,1.528,0,0,1-.175-.69c-.255-3.341,3.471-15.234,6.594-15.825,3.412-.645,10.673,2.077,17.723,8.774a35.908,35.908,0,0,1,5.413,6.985c1.181,1.878,2.314,3.848,3.469,5.791,1.514,2.545,3.039,5.625,4.106,7.8a14.626,14.626,0,0,0,1.585,2.424,7.721,7.721,0,0,1,1.111,1.744c2.02,5.159-.462,5.7-2.691,5.8" transform="translate(-235.175 -107.024)" fill="#eacaa4"/>
            <g id="Grupo_969556" data-name="Grupo 969556" transform="translate(18.937 50.29)" opacity="0.25">
              <g id="Grupo_969555" data-name="Grupo 969555">
                <g id="Grupo_969554" data-name="Grupo 969554" clip-path="url(#clip-path-3)">
                  <path id="Trazado_730120" data-name="Trazado 730120" d="M292.617,228.045a28.389,28.389,0,0,0,3.642.846c.743.122,2.321.546,2.881.2.4-.249,4.684-7.542,3.934-8.72-2.09-3.279-7.282-13.507-8.369-14.861-.3-.367-13.118.991-11.956,3.347.454.922,2.149,1.49,2.961,1.823a9.495,9.495,0,0,0,3.956.866,3.346,3.346,0,0,0,2.744-1.3,14.235,14.235,0,0,1,5.085,8.284c.263,1.5.539,3-.259,4.35-2.971,5.011-9.724,2.28-13.52-.1A50.656,50.656,0,0,1,270.067,210.2a15.356,15.356,0,0,1-1.708-2.765c-.329-.737-3.142-1.846-3.151-1.263-.012.819,1.52,2.359,2,3q1.164,1.547,2.457,2.992a65.688,65.688,0,0,0,10.861,9.514,40.968,40.968,0,0,0,12.09,6.372" transform="translate(-265.208 -205.448)" fill="#d6a978"/>
                </g>
              </g>
            </g>
            <path id="Trazado_730121" data-name="Trazado 730121" d="M275.728,228.09a2.241,2.241,0,0,1-.47.261,7.168,7.168,0,0,1-2.424.381,22.691,22.691,0,0,0-1-2.459,23.761,23.761,0,0,0-1.882-3.354,38.738,38.738,0,0,0-4.127-5.042l5.82,3.053c.517.866,1.033,1.721,1.528,2.557.958,1.621,1.852,3.172,2.553,4.6" transform="translate(-218.99 -164.544)" fill="#0d2742"/>
            <path id="Trazado_730122" data-name="Trazado 730122" d="M234.93,257.554a7.244,7.244,0,0,1-.7.466,7.072,7.072,0,0,1-1.787.751,9.144,9.144,0,0,1-8.029-2.037c-.01-.007-.016-.015-.026-.022-2.9-2.314-4.307-3.158-6.875-3.663-.505-.1-1.053-.189-1.666-.269,0,0,.5-.13,2.049-1.8,2.689-2.905,2.137-7.24,1.021-10.177-.157-.419-.329-.81-.5-1.163a3.092,3.092,0,0,1-.308-1.193c-.044-.953.419-1.71,1.467-1.123a2.185,2.185,0,0,1,.682.694,18.141,18.141,0,0,0,3.835,4.715c1.145,1.006,2.254.745,3.608,2.088q.98.973,1.818,1.945c4.415,5.092,5.984,9.895,5.417,10.787" transform="translate(-166.067 -179.075)" fill="#0d2742"/>
            <path id="Trazado_730123" data-name="Trazado 730123" d="M238.77,244.18a2.415,2.415,0,0,1-1.117.06,50.981,50.981,0,0,1-8.028-2.036c-.01-.007-.016-.015-.026-.022-2.9-2.313-4.308-3.158-6.875-3.663a11.613,11.613,0,0,1,1.343.083c2.8.323,12.579,4.536,13.681,2.721.615-1.012-5.177-7.375-10.2-12.971-1.463-1.635-2.918-3.171-4.233-4.435-.369-.356-.728-.688-1.072-1a38.749,38.749,0,0,0-4.126-5.042l5.82,3.053c.516.866,1.033,1.721,1.528,2.557A18.138,18.138,0,0,0,229.3,228.2c1.145,1.006,2.254.745,3.608,2.088q.981.972,1.818,1.945c.814,1.167,1.5,2.119,2.018,2.73,2.227,2.606,3.538,6.769,2.695,8.523a1.364,1.364,0,0,1-.67.691" transform="translate(-171.282 -164.544)" fill="#082035"/>
            <path id="Trazado_730124" data-name="Trazado 730124" d="M400.117,142.172c-1.116-.086-2.75-1.023-4.554-2.317-.924-.664-1.9-1.424-2.863-2.207-2.068-1.672-4.126-3.469-5.714-4.743l-.174-.141a12.93,12.93,0,0,1-1.074-.973c-.053-.055-.1-.105-.153-.161-1.873-2.024-.672-2.878-1.343-5.234-.012-.042-.022-.083-.032-.123a5.08,5.08,0,0,1,2.515-5.29,11.287,11.287,0,0,1,5.377-1.789,16.558,16.558,0,0,1,13.9,4.7,3.658,3.658,0,0,1,.949,1.525,8.726,8.726,0,0,1,.179,3.716c-.067.543-.165,1.118-.292,1.722-.083.386-.2.859-.359,1.391-1.087,3.675-3.821,10.117-6.362,9.92" transform="translate(-379.455 -89.936)" fill="#112e51"/>
            <path id="Trazado_730125" data-name="Trazado 730125" d="M434.505,144.857c-2.068-1.672-4.126-3.469-5.714-4.744l-.174-.141c-.4-.33-.758-.655-1.074-.972-.053-.055-.1-.105-.153-.161-2.376-2.464-2.352-4.414-2.352-4.414s.036-.223.112-.588l.67.581a6.528,6.528,0,0,1,.2-.936,8.219,8.219,0,0,1,3.689-4.849A6.627,6.627,0,0,1,433.013,133s-2.034,1.135-2.207,1.917,2.23,1.88,3.188,2.984.456,1.841,1.235,2.283,4.065,1.961,3.78,3.567c-.223,1.263-2.628,1.484-4.5,1.109" transform="translate(-421.26 -97.145)" fill="#77110c"/>
            <path id="Trazado_730126" data-name="Trazado 730126" d="M419.279,151.965c-.78-.442-.277-1.179-1.235-2.283s-3.361-2.2-3.188-2.984,2.207-1.917,2.207-1.917c2.276-.632,7.019-1.248,8.291,1.443s-3.327,6.961-6.075,5.741" transform="translate(-405.31 -108.93)" fill="#093c66"/>
            <path id="Trazado_730127" data-name="Trazado 730127" d="M450.472,148.417a14.375,14.375,0,0,1-3.438,1.509s0,0-.009,0a1.4,1.4,0,0,1-.462.012,6.978,6.978,0,0,1-1-.268,14.084,14.084,0,0,1-2.318-1.052,8.087,8.087,0,0,1,1.943-1.188,4.485,4.485,0,0,1,1.694-.383,3.26,3.26,0,0,1,.785.1,11.19,11.19,0,0,1,2.807,1.265" transform="translate(-437.161 -111.054)" fill="#111d2b"/>
            <path id="Trazado_730128" data-name="Trazado 730128" d="M455.557,149.284a1.623,1.623,0,0,1-.873.643s0,0-.009,0a1.4,1.4,0,0,1-.462.012,6.987,6.987,0,0,1-1-.268,1.642,1.642,0,0,1-.375-2.24,4.485,4.485,0,0,1,1.694-.383,3.271,3.271,0,0,1,.785.1,1.64,1.64,0,0,1,.243,2.131" transform="translate(-444.812 -111.054)" fill="#080f16"/>
            <path id="Trazado_730129" data-name="Trazado 730129" d="M1.655,167.6s48.211,4.37,53.961,5.048,1.3,3.449-1.3,2.9S0,169.043,0,169.043Z" transform="translate(63.387 -126.578)" fill="#112e51"/>
            <path id="Trazado_730130" data-name="Trazado 730130" d="M68.047,182.174c-1.393.986-6.326,1.157-15.086-.358-14.152-2.447-39.085-8.345-39.085-8.345a140.534,140.534,0,0,1,19.363,1.315c9.828,1.433,33.4,3.845,34.954,5.192.736.637,1.19,1.25-.147,2.2" transform="translate(49.511 -131.006)" fill="#112e51"/>
            <path id="Trazado_730131" data-name="Trazado 730131" d="M80.452,180.206c3.336.654,3.67,2.273,3.032,3.08-.745.944-4.2,2.2-13.236.3s-37.346-10.4-37.346-10.4l1.5-1.811Z" transform="translate(30.005 -129.422)" fill="#112e51"/>
            <path id="Trazado_730132" data-name="Trazado 730132" d="M99.982,188.582c2.269,1.1,2.335,2.65,1.451,3.353s-3.07,1.531-11.938-.913-32.549-11.3-32.549-11.3l1.294-1.369Z" transform="translate(5.908 -134.698)" fill="#112e51"/>
            <path id="Trazado_730133" data-name="Trazado 730133" d="M129.364,193.683c1.716,1.71-.534,3.688-5.038,2.238S91.95,181.862,91.95,181.862Z" transform="translate(-30.638 -137.345)" fill="#112e51"/>
            <path id="Trazado_730134" data-name="Trazado 730134" d="M143.99,195.292c-.165,1.959-2.763,3.789-7.418.975-4.079-2.465-21.341-11.338-25.465-13.579a.939.939,0,0,1-.551-.826l29.489,11.821Z" transform="translate(-49.244 -137.345)" fill="#112e51"/>
            <path id="Trazado_730135" data-name="Trazado 730135" d="M167.367,195.655c1.419,2.408-3.094,2.888-6.412.491-1.753-1.267-18.885-13.393-18.885-13.393Z" transform="translate(-80.604 -138.018)" fill="#112e51"/>
            <path id="Trazado_730136" data-name="Trazado 730136" d="M187.623,196.56c.771,1.741-1.257,3.651-4.56,1.264s-14.632-13.133-14.632-13.133-1.075-2.286,7.683,3.887,11.509,7.982,11.509,7.982" transform="translate(-107.197 -139.169)" fill="#112e51"/>
            <path id="Trazado_730137" data-name="Trazado 730137" d="M204.635,197c.5,1.15-.267,2.716-1.661,3.426-1.19.607-3.348-1.033-4.018-2.03s-9.1-13.095-9.1-13.095l2.513.97Z" transform="translate(-129.452 -139.942)" fill="#112e51"/>
            <path id="Trazado_730138" data-name="Trazado 730138" d="M221.607,197.718c-.168,1.236-1.5,2.693-2.825,2.261s-9.77-15.98-9.77-15.98l2.349.319Z" transform="translate(-150.961 -138.959)" fill="#112e51"/>
            <path id="Trazado_730139" data-name="Trazado 730139" d="M232.827,198.242c-.327,1.668-1.13,2.516-2.621,2-1.695-.592-7.872-16.982-7.872-16.982l1.993.346Z" transform="translate(-165.443 -138.397)" fill="#112e51"/>
            <path id="Trazado_730140" data-name="Trazado 730140" d="M243.105,199.28c-.909,1.136-2.108,1.8-3.741.534-1.529-1.19-5.921-16.575-5.921-16.575l3.047.186Z" transform="translate(-178.44 -138.385)" fill="#112e51"/>
            <path id="Trazado_730141" data-name="Trazado 730141" d="M256.134,198.14c-1.1,1.413-2.959,1.765-3.961-.134s-2.951-15.383-2.951-15.383l1.113.151Z" transform="translate(-195.331 -137.919)" fill="#112e51"/>
            <path id="Trazado_730142" data-name="Trazado 730142" d="M104.612,150.851c-1.924-.073-52.024-2.084-58.653-3.823-6.76-1.773-24.481-.347-28.295.294-2.828.477-4.162.558-4.975-.225a3.148,3.148,0,0,1-.706-1.149,6.132,6.132,0,0,1-.29-2.062,27.334,27.334,0,0,1,.332-3.987c.1-.7.188-1.155.188-1.155,4.5,1.591,8.11,1.747,13.048,2.12.471.036.955.074,1.456.115l.293.027a.012.012,0,0,1,.009,0c3.589.383,21.369,3.272,38.868,5.515,18.931,2.428,37.579,4.22,38.724,4.329" transform="translate(14.334 -104.781)" fill="#112e51"/>
            <path id="Trazado_730143" data-name="Trazado 730143" d="M114.532,157.391c-1.924-.073-52.024-2.084-58.653-3.823-6.76-1.773-24.481-.347-28.295.294-2.828.477-4.162.558-4.975-.225-1.087,3.675-3.821,10.117-6.362,9.92-1.116-.085-2.75-1.023-4.554-2.317,3.109.723,4.6-.123,6.057-2.264,1.54-2.259,3.3-6.327,3.162-7.907-.05-.559.165-.66.7-.644.38.015.92.087,1.647.1a13.73,13.73,0,0,0,4.894-.866,63.571,63.571,0,0,1,7.027-2.256c.471.036.955.074,1.456.115,2.742.226,21.106,3.228,39.171,5.545,18.931,2.428,37.579,4.22,38.724,4.329" transform="translate(4.414 -111.32)" fill="#0d2742"/>
            <path id="Trazado_730144" data-name="Trazado 730144" d="M455.581,149.059a.474.474,0,1,1-.125-.659.474.474,0,0,1,.125.659" transform="translate(-445.162 -112.012)" fill="#fff"/>
            <path id="Trazado_730145" data-name="Trazado 730145" d="M286.843,189.8c-.582.953-2.709.573-4.22-.728-1.244-1.07-2.778-4.494-2.778-4.494l2.3-8.788,1.687,0,3.007,9.467a6.656,6.656,0,0,1,.237,3.016Z" transform="translate(-233.844 -132.758)" fill="#112e51"/>
            <path id="Trazado_730146" data-name="Trazado 730146" d="M267.953,196.622c-.583.954-2.487,1.073-3.5-.222s-1.046-5.1-1.046-5.1l-.158-8.684,1.687,0,3.477,10.947Z" transform="translate(-211.05 -137.912)" fill="#112e51"/>
            <path id="Trazado_730147" data-name="Trazado 730147" d="M226.077,160.088c5.981-.65,8.387-3.391,12.448-4s16.706.854,22.267,1.81,5.974,4.488,2.513,6.418a10.165,10.165,0,0,1-5.979,1.506s3.228,3.431-2.474,5.989c-3.405,1.528-11.033-.971-11.033-.971s-.964,1.481-4.579,1.83c-3.183.308-7.772-1.675-10.241-5.384a18.778,18.778,0,0,1-2.922-7.2" transform="translate(-199.054 -117.772)" fill="#e8c597"/>
            <path id="Trazado_730148" data-name="Trazado 730148" d="M194.243,270.193a11.839,11.839,0,0,0-4.082,2.259s1.182.445,1.185,1.167-1.224,1.6-1.224,1.6,1.559.883,1.614,1.6-1.1,1.413-1.1,1.413,1.232.57,1.171,1.518-1.259,1.978-1.259,1.978,1.366.571,1.47,1.542-1.069,1.568-1.069,1.568,1.195,1.219,1.06,2.208-1.09.608-1.09.608,1.755,1.917,1.394,2.841-1.622.2-1.622.2,2.594,3.524,1.78,4.455-1.471.573-1.471.573,3.577,4.329,2.525,5.278c0,0-1.39.718,1.751,5.291,0,0-7.16-7.988-8.911-10.307s-13.643-17.63-13.643-17.63,8.7,2.958,10.377,1.222-6.938-12.474-6.938-12.474Z" transform="translate(-115.749 -201.715)" fill="#112e51"/>
            <path id="Trazado_730149" data-name="Trazado 730149" d="M176.486,337.032c2.91,3.676,2.323,6.713,1.149,5.59-3.633-3.475-10.529-12.591-13.681-16.26-1.5-1.751-3.1-3.972-4.748-5.871-.753-.87-9.494-13.88-12.495-16.946l0,0c-.2-.211-.418-.416-.639-.62l2.524,1.08.491.21s10.925,13.956,11.264,14.383c0,0,13.248,14.784,16.138,18.436" transform="translate(-92.545 -228.773)" fill="#132233"/>
            <path id="Trazado_730150" data-name="Trazado 730150" d="M165.858,266.914c.718.04.725,1.319-2.348,1.372-5.909.1-12.355.174-15.028-.077-.564-.054-2.092-.294-2.642-.4a22.109,22.109,0,0,1-8.243-3.224l0,0c-.237-.379.673-.277.673-.277.305.118.625.227.953.33a24.818,24.818,0,0,0,2.522.654q.645.135,1.326.251a61.872,61.872,0,0,0,6.491.715c2.353.152,4.814.224,7.278.265,2.051.033,6.505.253,9.021.394" transform="translate(-78.115 -199.598)" fill="#0d2742"/>
            <path id="Trazado_730151" data-name="Trazado 730151" d="M251.765,172c2.979-1.662,3.085-4.509-.489-5.879,1.819,1.488,1.3,3.627-1.126,4.98a10.163,10.163,0,0,1-5.979,1.506s3.237,2.807-2.465,5.366c-3.405,1.528-9.529-.419-9.529-.419a6.551,6.551,0,0,1-2.558,1.622,13.308,13.308,0,0,1-3.534.281,4.9,4.9,0,0,0,4.012.687c1.838-.686,2.184-1.618,2.184-1.618s7.627,2.5,11.033.971c5.7-2.558,2.474-5.99,2.474-5.99A10.166,10.166,0,0,0,251.765,172" transform="translate(-187.513 -125.461)" fill="#e0b177"/>
            <path id="Trazado_730152" data-name="Trazado 730152" d="M219.9,291.4a.7.7,0,0,1,.288-.532.59.59,0,0,0,.176-.319,1.868,1.868,0,0,0-.118-.895l-.008,0c-.027-.086-.059-.172-.1-.265l0,0a19.948,19.948,0,0,0-2.476-3.793.89.89,0,0,0,.673.009,1.613,1.613,0,0,0,.553-.332,3.048,3.048,0,0,0,.245-.249c.422-.481-.071-1.658-.645-2.68l0,0a0,0,0,0,1,0,0,19.437,19.437,0,0,0-1.131-1.769,1.964,1.964,0,0,0,1.088.258.689.689,0,0,0,.534-.458c.236-.6-.434-1.635-.926-2.274l-.005,0c-.26-.339-.464-.564-.464-.564s.835.333,1.054-.434a1.148,1.148,0,0,0,.036-.174,2.774,2.774,0,0,0-.716-1.805c-.192-.247-.344-.4-.344-.4s1.172-.6,1.069-1.568-1.47-1.542-1.47-1.542,1.2-1.03,1.258-1.978a1.12,1.12,0,0,0-.181-.675l0,0a2.55,2.55,0,0,0-.987-.842,3.969,3.969,0,0,0,.628-.491,1.832,1.832,0,0,0,.406-.567.757.757,0,0,0,.065-.354c-.026-.341-.4-.721-.776-1.024l0,0a7.143,7.143,0,0,0-.835-.569s.141-.1.329-.263a2.934,2.934,0,0,0,.84-1.055.765.765,0,0,0,.055-.278.723.723,0,0,0-.107-.366,2.412,2.412,0,0,0-1.078-.8.04.04,0,0,1,.01-.02,3.508,3.508,0,0,1,1.029-.739c.127-.071.26-.145.4-.218.373-.2.779-.4,1.164-.568-5.35.412-13.013-2.452-13.859-2.857-.458-.219-1.716-.713-2.034-.88,1.716,2.194,7.686,10.9,6.235,12.4-.838.866-3.417.566-5.8.044h0c-.654-.142-1.557-.537-2.141-.692l.259.234,10.444,13.836.364.417.615.7q.607.7,1.185,1.361l.572.659c1.646,1.9,3.139,3.645,4.639,5.4" transform="translate(-147.975 -194.125)" fill="#082035"/>
            <path id="Trazado_730153" data-name="Trazado 730153" d="M463.794,133.058l-.67-.58c.3-1.353,1.229-4.659,3.38-5.646a5.23,5.23,0,0,1,1.174.441,8.218,8.218,0,0,0-3.689,4.85,6.55,6.55,0,0,0-.2.936" transform="translate(-459.235 -95.786)" fill="#911"/>
            <path id="Trazado_730154" data-name="Trazado 730154" d="M362.791,126.16c-.692.08-1.492.18-2.412.307a27.788,27.788,0,0,1-11.437-1.044c-.447-.136-.828-.26-1.136-.369-.573-.2-.889-.336-.889-.336-4.516-4.767-11.059-4.613-14.759-4.074a6.483,6.483,0,0,0-2.268.78,5.222,5.222,0,0,0-1.174-.44,11.283,11.283,0,0,1,5.377-1.789,16.557,16.557,0,0,1,13.9,4.7c4.5,1.591,8.11,1.747,13.048,2.12.471.036.955.074,1.456.115l.293.027" transform="translate(-321.447 -89.936)" fill="#11487f"/>
            <path id="Trazado_730155" data-name="Trazado 730155" d="M481.515,150.867l-4.957-1.05,2.638-1.3,1.047-.517a.854.854,0,0,1,1.15.394s0,.006,0,.01a3.652,3.652,0,0,1,.244.759l0,.009a2.924,2.924,0,0,1-.077,1.572Z" transform="translate(-476.558 -111.702)" fill="#111d2b"/>
            <path id="Trazado_730156" data-name="Trazado 730156" d="M201.593,355.269c1.053.011,3.791,2.314,4.128,3.355.293.9.338,1.783-.572,1.433s-2.9-2.684-3.407-3.471-.752-1.323-.149-1.317" transform="translate(-133.361 -268.305)" fill="#ffedd7"/>
            <path id="Trazado_730157" data-name="Trazado 730157" d="M201.415,340.785c.8-.152,3.174,1.795,3.584,2.5.547.94.431,1.845-.745,1.392a7.108,7.108,0,0,1-2.952-2.718c-.362-.611-.289-1.1.112-1.176" transform="translate(-132.724 -257.36)" fill="#ffedd7"/>
            <path id="Trazado_730158" data-name="Trazado 730158" d="M198.886,367.84a9.564,9.564,0,0,1,3.953,3.067c1.214,1.537,1.561,2.415.708,2.577s-4.662-5.643-4.662-5.643" transform="translate(-130.894 -277.799)" fill="#ffedd7"/>
            <path id="Trazado_730159" data-name="Trazado 730159" d="M204.118,332.462c.082-.852-2.965-2.244-3.65-1.937s.28,1.3,1.476,2,2.094.774,2.174-.062" transform="translate(-131.327 -249.584)" fill="#ffedd7"/>
            <path id="Trazado_730160" data-name="Trazado 730160" d="M209.46,283.546c-1.053-.559-1.173-1.34-.5-1.271.974.1,2.63.452,2.985,1.02s-.092.81-.621.755a7.307,7.307,0,0,1-1.864-.5" transform="translate(-141.311 -213.176)" fill="#ffedd7"/>
            <path id="Trazado_730161" data-name="Trazado 730161" d="M206.522,292.163c-1.056-.553-1.465-1.474-.508-1.268s2.586.663,2.945,1.228-.2.562-.571.533a7.022,7.022,0,0,1-1.867-.493" transform="translate(-137.563 -219.666)" fill="#ffedd7"/>
            <path id="Trazado_730162" data-name="Trazado 730162" d="M203.183,300.652c-1.038-.586-1.418-1.519-.468-1.283s2.564.744,2.905,1.32-.215.555-.587.515a7.008,7.008,0,0,1-1.851-.551" transform="translate(-133.407 -226.06)" fill="#ffedd7"/>
            <path id="Trazado_730163" data-name="Trazado 730163" d="M210.262,275.086c-1.042-.586-1.1-1.693-.014-1.63s2.875.339,3.053,1.136-.506.943-.952,1a5.49,5.49,0,0,1-2.087-.505" transform="translate(-142.792 -206.516)" fill="#ffedd7"/>
            <path id="Trazado_730164" data-name="Trazado 730164" d="M478.479,148.976a2.227,2.227,0,0,0-1.921-.462L477.6,148a.853.853,0,0,1,1.151.394l0,.009a3.273,3.273,0,0,1,.168,2.34l-.049.128-1.731-.366c1.222-.169,1.858-1,1.333-1.526" transform="translate(-473.92 -111.703)" fill="#2e4963"/>
            <path id="Trazado_730165" data-name="Trazado 730165" d="M481.515,154.439l-4.957-1.05,5.038-.752.045.094,0,.009a2.924,2.924,0,0,1-.077,1.572Z" transform="translate(-476.558 -115.274)" fill="#080f16"/>
            <path id="Trazado_730166" data-name="Trazado 730166" d="M330.037,282.947s-.962.289-2.108-.919a.8.8,0,0,0-1.257.111,28.794,28.794,0,0,1,1.187,2.667c.313,1.125-1.09-.135-1.09-.135s.963,1.906-.808,1.036-2.05-4.571-1.675-4.923.96-.021.96-.021a.877.877,0,0,1,.9-.974c1.023-.113,1.872.77,2.731,1.592s1.7,1.123,1.16,1.567" transform="translate(-287.744 -211.293)" fill="#203046"/>
            <path id="Trazado_730167" data-name="Trazado 730167" d="M330.037,282.947c.061-.315-1.17-.831-1.858-1.556s-1.273-1.506-1.929-1.161c-.623.325-.353,1.234-.324,1.329a.592.592,0,0,0-.573-.338c-.391.056-.583,2.593,1.415,3.449,0,0,.963,1.906-.808,1.036s-2.05-4.571-1.675-4.923.96-.021.96-.021a.877.877,0,0,1,.9-.974c1.023-.113,1.872.77,2.731,1.592s1.7,1.123,1.16,1.567" transform="translate(-287.744 -211.293)" fill="#132335"/>
          </g>
        </g>
      </g>
    </g>
    <rect id="Rectángulo_342389" data-name="Rectángulo 342389" width="231" height="130" transform="translate(316 1039)" fill="none"/>
  </g>
</svg>
