<svg xmlns="http://www.w3.org/2000/svg" width="121" height="121" viewBox="0 0 121 121">
  <g id="Grupo_971648" data-name="Grupo 971648" transform="translate(-390 -14573)">
    <circle id="Elipse_6741" data-name="Elipse 6741" cx="60.5" cy="60.5" r="60.5" transform="translate(390 14573)" fill="#feb12e"/>
    <g id="Layer_16" transform="translate(410.322 14585.805)">
      <g id="Grupo_971593" data-name="Grupo 971593" transform="translate(0 0.025)">
        <path id="Trazado_735849" data-name="Trazado 735849" d="M78.412,164.164H73.187a7.114,7.114,0,0,0-3.842-8.052l.123-.154a1.239,1.239,0,0,0-.184-1.783l-5.132-4.241a1.239,1.239,0,0,0-1.783.184l-.676.83a11.985,11.985,0,0,0-8.206-4.426,2.042,2.042,0,0,1-1.752-1.475,9.017,9.017,0,0,0-16.688-1.291,2.148,2.148,0,0,1-2.182,1.2,13.13,13.13,0,0,0-5.132.369l-8.913,10.941a1.217,1.217,0,0,1-1.69.184l-.83-.676a7.692,7.692,0,0,0-5.593,8.452H3.729A1.233,1.233,0,0,0,2.5,165.455v7.376a1.233,1.233,0,0,0,1.229,1.229H78.412a1.233,1.233,0,0,0,1.229-1.229v-7.376A1.248,1.248,0,0,0,78.412,164.164Z" transform="translate(-1.732 -96.097)" fill="#818182"/>
        <path id="Trazado_735850" data-name="Trazado 735850" d="M44.086,141.053l16.2-19.854a1.217,1.217,0,0,1,1.69-.184l1.444,1.2a1.217,1.217,0,0,1,.184,1.69L47.4,143.757a1.217,1.217,0,0,1-1.69.184l-1.444-1.2A1.183,1.183,0,0,1,44.086,141.053Z" transform="translate(-30.348 -83.65)" fill="#edf4fc"/>
        <path id="Trazado_735851" data-name="Trazado 735851" d="M125.418,96.479a9,9,0,0,1,8.605,6.331,2.079,2.079,0,0,0,1.752,1.475,11.985,11.985,0,0,1,8.206,4.426l.676-.83a1.3,1.3,0,0,1,.983-.461l5.993-20.591a2.42,2.42,0,0,0-1.629-2.981l-20.5-5.962a2.42,2.42,0,0,0-2.981,1.629L121.3,97.463a9.132,9.132,0,0,1,4.118-.983Z" transform="translate(-84.02 -53.891)" fill="#edf4fc"/>
        <path id="Trazado_735852" data-name="Trazado 735852" d="M175.671,72.82a7.207,7.207,0,0,0-11.894-4.61,1.645,1.645,0,0,1-1.66.307,3.87,3.87,0,0,0-4.917,2.336l17.641,5.132a1.078,1.078,0,0,1,.43.184A6.921,6.921,0,0,0,175.671,72.82Z" transform="translate(-108.887 -46.028)" fill="#57af12"/>
        <path id="Trazado_735853" data-name="Trazado 735853" d="M187.857,178.776l-5.133-4.241a1.239,1.239,0,0,0-1.783.184l-7.007,8.452a1.239,1.239,0,0,0,.184,1.783l4.026,3.319a5.333,5.333,0,0,1,4.088-.676l5.809-7.038a1.3,1.3,0,0,0-.184-1.783Z" transform="translate(-120.274 -120.697)" fill="#f5c84c"/>
        <path id="Trazado_735854" data-name="Trazado 735854" d="M85,187.422l6.792-4.18a.749.749,0,0,1,1.045.246l1.137,1.844a.749.749,0,0,1-.246,1.045l-6.792,4.18a.749.749,0,0,1-1.045-.246l-1.137-1.844A.777.777,0,0,1,85,187.422Z" transform="translate(-58.635 -126.854)" fill="#9be5f9"/>
        <path id="Trazado_735855" data-name="Trazado 735855" d="M95.788,203.128a1.566,1.566,0,0,0,1.69-.553,5.352,5.352,0,0,1,5.716-1.844L99.046,194,92.5,198.026l3.135,5.1Z" transform="translate(-64.072 -134.385)" fill="#70d6f9"/>
        <path id="Trazado_735856" data-name="Trazado 735856" d="M0,0H4.456V9.22H0Z" transform="translate(55.72 59.896) rotate(-50.436)" fill="#fc657e"/>
        <g id="Grupo_971592" data-name="Grupo 971592" transform="translate(41.398 30.072)">
          <path id="Trazado_735857" data-name="Trazado 735857" d="M183.954,119.145a2.154,2.154,0,0,1-1.844-1.045v2.889a2.144,2.144,0,0,1-1.783,2.121l-2.827,9.712a12.5,12.5,0,0,1,3.442,1.875l4.794-16.535A2.141,2.141,0,0,1,183.954,119.145Z" transform="translate(-164.346 -111.883)" fill="#c7d7e5"/>
          <path id="Trazado_735858" data-name="Trazado 735858" d="M163.677,105.172l-1.567-.461a1.055,1.055,0,0,0-1.291.707L157.1,118.3a9.186,9.186,0,0,1,1.721,3.135,2.173,2.173,0,0,0,.983,1.229l3.872-13.338Z" transform="translate(-150.216 -102.582)" fill="#c7d7e5"/>
          <path id="Trazado_735859" data-name="Trazado 735859" d="M138.419,111.219l3.35-11.525a1.055,1.055,0,0,0-.707-1.291l-1.66-.492a1.055,1.055,0,0,0-1.291.707L134.7,110.389A8.646,8.646,0,0,1,138.419,111.219Z" transform="translate(-134.7 -97.872)" fill="#c7d7e5"/>
        </g>
        <path id="Trazado_735860" data-name="Trazado 735860" d="M184.647,97.6a2.138,2.138,0,0,0,2.151-2.151V89.428L178.5,87V99.447a2.151,2.151,0,1,0,4.3,0V96.558A2.154,2.154,0,0,0,184.647,97.6Z" transform="translate(-123.641 -60.27)" fill="#87d147"/>
        <circle id="Elipse_6739" data-name="Elipse 6739" cx="1.045" cy="1.045" r="1.045" transform="translate(17.825 15.052)" fill="#70d6f9"/>
        <path id="Trazado_735861" data-name="Trazado 735861" d="M213.58,38.257h.707v.707a.984.984,0,0,0,.953.983h.031a1.006,1.006,0,0,0,.983-.953v-.738h.707a.984.984,0,0,0,.983-.953v-.031a1.006,1.006,0,0,0-.953-.983h-.738v-.707a.984.984,0,0,0-.953-.983h-.031a1.006,1.006,0,0,0-.983.953v.738h-.707a.984.984,0,0,0-.983.953v.031a.957.957,0,0,0,.922.983Z" transform="translate(-147.257 -23.974)" fill="#87d147"/>
        <path id="Trazado_735862" data-name="Trazado 735862" d="M118.051,1.923A2.4,2.4,0,0,1,116.146.048c0-.031-.092-.031-.092,0a2.4,2.4,0,0,1-1.905,1.875c-.031,0-.031.061,0,.092a2.4,2.4,0,0,1,1.905,1.875c0,.031.092.031.092,0a2.4,2.4,0,0,1,1.905-1.875C118.082,1.984,118.082,1.923,118.051,1.923Z" transform="translate(-79.05 -0.025)" fill="#fc657e"/>
        <circle id="Elipse_6740" data-name="Elipse 6740" cx="1.045" cy="1.045" r="1.045" transform="translate(71.609 37.795)" fill="#f5c84c"/>
        <path id="Trazado_735863" data-name="Trazado 735863" d="M14.848,86.07A3.41,3.41,0,0,0,17.583,83.4c0-.061.123-.061.123,0a3.41,3.41,0,0,0,2.735,2.674c.061,0,.061.092,0,.123a3.41,3.41,0,0,0-2.735,2.674c0,.061-.123.061-.123,0a3.41,3.41,0,0,0-2.735-2.674C14.817,86.162,14.817,86.07,14.848,86.07Z" transform="translate(-10.269 -57.741)" fill="#f5c84c"/>
        <path id="Trazado_735864" data-name="Trazado 735864" d="M27.875,220.494a.776.776,0,0,1-.707-.461,8.362,8.362,0,0,1-.768-3.565.768.768,0,1,1,1.537,0,6.856,6.856,0,0,0,.645,2.92.765.765,0,0,1-.369,1.014A.8.8,0,0,1,27.875,220.494Z" transform="translate(-18.286 -149.416)"/>
        <path id="Trazado_735865" data-name="Trazado 735865" d="M227.968,218.855a.761.761,0,0,1-.768-.768.618.618,0,0,1,.123-.4,6.286,6.286,0,0,0,.922-3.319.768.768,0,1,1,1.537,0,7.8,7.8,0,0,1-1.168,4.118A.69.69,0,0,1,227.968,218.855Z" transform="translate(-157.374 -147.961)"/>
        <path id="Trazado_735866" data-name="Trazado 735866" d="M178.9,29.111a.764.764,0,0,1-.492-1.352,3.052,3.052,0,0,0,.983-1.967,2.971,2.971,0,0,0-1.045-2.151,4.264,4.264,0,0,1-1.475-3.319,4.38,4.38,0,0,1,1.567-2.858.777.777,0,0,1,1.076.154.806.806,0,0,1-.123,1.076,2.769,2.769,0,0,0-.953,1.752,2.85,2.85,0,0,0,1.045,2.121,4.326,4.326,0,0,1,1.475,3.319,4.62,4.62,0,0,1-1.537,3.073A1.036,1.036,0,0,1,178.9,29.111Z" transform="translate(-122.509 -12)"/>
        <path id="Trazado_735867" data-name="Trazado 735867" d="M153.9,36.111a.764.764,0,0,1-.492-1.352,3.052,3.052,0,0,0,.983-1.967,2.971,2.971,0,0,0-1.045-2.151,4.264,4.264,0,0,1-1.475-3.319,4.38,4.38,0,0,1,1.567-2.858.777.777,0,0,1,1.076.154.806.806,0,0,1-.123,1.076,2.769,2.769,0,0,0-.953,1.752,2.85,2.85,0,0,0,1.045,2.121,4.326,4.326,0,0,1,1.475,3.319,4.62,4.62,0,0,1-1.537,3.073A1.036,1.036,0,0,1,153.9,36.111Z" transform="translate(-105.192 -16.849)"/>
        <path id="Trazado_735868" data-name="Trazado 735868" d="M77.9,85.111a.764.764,0,0,1-.492-1.352,3.052,3.052,0,0,0,.983-1.967,2.971,2.971,0,0,0-1.045-2.151,4.264,4.264,0,0,1-1.475-3.319,4.38,4.38,0,0,1,1.567-2.858.777.777,0,0,1,1.076.154.806.806,0,0,1-.123,1.076,2.769,2.769,0,0,0-.953,1.752,2.85,2.85,0,0,0,1.045,2.121,4.326,4.326,0,0,1,1.475,3.319,4.62,4.62,0,0,1-1.537,3.073,1.036,1.036,0,0,1-.522.154Z" transform="translate(-52.55 -50.789)"/>
        <path id="Trazado_735869" data-name="Trazado 735869" d="M52.9,92.111a.764.764,0,0,1-.492-1.352,3.052,3.052,0,0,0,.983-1.967,2.971,2.971,0,0,0-1.045-2.151,4.264,4.264,0,0,1-1.475-3.319,4.38,4.38,0,0,1,1.567-2.858.777.777,0,0,1,1.076.154.806.806,0,0,1-.123,1.076,2.769,2.769,0,0,0-.953,1.752,2.85,2.85,0,0,0,1.045,2.121,4.326,4.326,0,0,1,1.475,3.319,4.62,4.62,0,0,1-1.537,3.073,1.036,1.036,0,0,1-.522.154Z" transform="translate(-35.233 -55.638)"/>
        <path id="Trazado_735870" data-name="Trazado 735870" d="M19.9,150.111a.764.764,0,0,1-.492-1.352,3.052,3.052,0,0,0,.983-1.967,2.971,2.971,0,0,0-1.045-2.151,4.264,4.264,0,0,1-1.475-3.319,4.38,4.38,0,0,1,1.567-2.858.777.777,0,0,1,1.076.154.806.806,0,0,1-.123,1.076,2.769,2.769,0,0,0-.953,1.752,2.85,2.85,0,0,0,1.045,2.121,4.326,4.326,0,0,1,1.475,3.319,4.62,4.62,0,0,1-1.537,3.073A1.036,1.036,0,0,1,19.9,150.111Z" transform="translate(-12.375 -95.813)"/>
        <path id="Trazado_735871" data-name="Trazado 735871" d="M108.207,219.9a.761.761,0,0,1-.768-.768,2.466,2.466,0,0,0-2.459-2.459,2.56,2.56,0,0,0-.676.092,2.343,2.343,0,0,1-2.52-.83,4.562,4.562,0,0,0-6.423-.8,3.938,3.938,0,0,0-.8.8,2.4,2.4,0,0,1-2.52.83,2.45,2.45,0,0,0-3.012,1.69,2.4,2.4,0,0,0-.092.676.768.768,0,1,1-1.537,0,3.987,3.987,0,0,1,4-4,4.133,4.133,0,0,1,1.076.154.835.835,0,0,0,.891-.307,6.151,6.151,0,0,1,8.605-1.076,5.941,5.941,0,0,1,1.076,1.076.835.835,0,0,0,.891.307,3.994,3.994,0,0,1,4.917,2.766,4.133,4.133,0,0,1,.154,1.076A.808.808,0,0,1,108.207,219.9Z" transform="translate(-60.539 -147.284)"/>
        <path id="Trazado_735872" data-name="Trazado 735872" d="M190.494,218.312a.8.8,0,0,1-.615-.307,4.562,4.562,0,0,0-6.423-.8,3.938,3.938,0,0,0-.8.8.776.776,0,0,1-1.076.123.767.767,0,0,1-.123-1.045,6.151,6.151,0,0,1,8.605-1.076,5.941,5.941,0,0,1,1.076,1.076.772.772,0,0,1-.123,1.076A1.133,1.133,0,0,1,190.494,218.312Z" transform="translate(-125.585 -148.739)"/>
        <path id="Trazado_735873" data-name="Trazado 735873" d="M54.119,144.672a.754.754,0,0,1-.492-.184l-1.506-1.229a2.841,2.841,0,0,1-.4-4.026l3.1-3.811a2.841,2.841,0,0,1,4.026-.4L60.3,136.19a.747.747,0,0,1,.092,1.076.806.806,0,0,1-1.076.123l-1.444-1.168a1.315,1.315,0,0,0-1.844.184l-3.1,3.811a1.315,1.315,0,0,0,.184,1.844l1.506,1.229a.776.776,0,0,1,.123,1.076A.8.8,0,0,1,54.119,144.672Z" transform="translate(-35.372 -93.078)"/>
        <path id="Trazado_735874" data-name="Trazado 735874" d="M76.68,172.949H2a1.994,1.994,0,0,1-2-2v-7.376a1.994,1.994,0,0,1,2-2H8.114v-.246a8.484,8.484,0,0,1,6.239-8.175.759.759,0,0,1,.676.154l.83.676a.438.438,0,0,0,.615-.061l8.913-10.941a.683.683,0,0,1,.4-.246,13.578,13.578,0,0,1,5.44-.4,1.363,1.363,0,0,0,1.383-.768,9.779,9.779,0,0,1,18.1,1.383,1.326,1.326,0,0,0,1.106.922A12.7,12.7,0,0,1,59.93,147.9l.123-.123a2.075,2.075,0,0,1,2.889-.277l5.132,4.241a2,2,0,0,1,.615,2.274,7.879,7.879,0,0,1,3.688,7.56h4.3a1.994,1.994,0,0,1,2,2v7.376A1.994,1.994,0,0,1,76.68,172.949ZM2,163.114a.473.473,0,0,0-.461.461v7.376a.473.473,0,0,0,.461.461H76.68a.473.473,0,0,0,.461-.461v-7.376a.473.473,0,0,0-.461-.461H71.455a.761.761,0,0,1-.768-.768.39.39,0,0,1,.031-.184,6.062,6.062,0,0,0,.184-1.475,6.315,6.315,0,0,0-3.6-5.716.775.775,0,0,1-.369-1.014.671.671,0,0,1,.092-.154l.123-.154a.494.494,0,0,0-.061-.707L61.959,148.7a.494.494,0,0,0-.707.061l-.707.83a.757.757,0,0,1-.584.277.675.675,0,0,1-.584-.277,11.192,11.192,0,0,0-7.683-4.149,2.883,2.883,0,0,1-2.428-2,8.22,8.22,0,0,0-15.244-1.168,2.893,2.893,0,0,1-2.95,1.6,11.488,11.488,0,0,0-4.579.307l-8.759,10.726a1.964,1.964,0,0,1-2.8.277l-.522-.43a6.952,6.952,0,0,0-4.733,6.608,8.119,8.119,0,0,0,.061.891.765.765,0,0,1-.676.861H2Z" transform="translate(0 -94.279)"/>
        <path id="Trazado_735875" data-name="Trazado 735875" d="M44.747,143.152a1.933,1.933,0,0,1-1.26-.461l-1.444-1.2a1.967,1.967,0,0,1-.277-2.8l16.2-19.854a1.964,1.964,0,0,1,2.8-.277l1.444,1.2a1.967,1.967,0,0,1,.277,2.8l-16.2,19.854a1.894,1.894,0,0,1-1.322.707A.6.6,0,0,1,44.747,143.152ZM59.5,119.672h-.031a.427.427,0,0,0-.307.154l-16.2,19.854a.438.438,0,0,0,.061.615l1.444,1.2a.438.438,0,0,0,.615-.061l16.2-19.854a.438.438,0,0,0-.061-.615l-1.444-1.2a.977.977,0,0,0-.277-.092Z" transform="translate(-28.612 -81.816)"/>
        <path id="Trazado_735876" data-name="Trazado 735876" d="M142.247,107.81a.675.675,0,0,1-.584-.277,11.192,11.192,0,0,0-7.683-4.149,2.883,2.883,0,0,1-2.428-2,8.26,8.26,0,0,0-10.326-5.409,7.576,7.576,0,0,0-1.291.522.808.808,0,0,1-1.045-.338.7.7,0,0,1-.061-.553l5.225-17.948a3.159,3.159,0,0,1,3.934-2.151l20.468,5.962a3.158,3.158,0,0,1,2.151,3.934L144.613,106a.756.756,0,0,1-.738.553.541.541,0,0,0-.4.184l-.645.8A.757.757,0,0,1,142.247,107.81ZM123.684,94.041a9.766,9.766,0,0,1,9.343,6.854,1.326,1.326,0,0,0,1.106.922,12.7,12.7,0,0,1,8.114,4.026l.123-.123a2.033,2.033,0,0,1,.953-.645l5.87-20.13a1.643,1.643,0,0,0-1.106-2.028l-20.469-5.962a1.643,1.643,0,0,0-2.028,1.106l-4.764,16.412a9.747,9.747,0,0,1,2.858-.43Z" transform="translate(-82.286 -52.22)"/>
        <path id="Trazado_735877" data-name="Trazado 735877" d="M173.637,75.265a.62.62,0,0,1-.338-.092.92.92,0,0,0-.307-.123l-17.641-5.132a.777.777,0,0,1-.522-.953v-.031a4.588,4.588,0,0,1,5.87-2.8.858.858,0,0,0,.891-.154,8,8,0,0,1,12.754,8.79A.772.772,0,0,1,173.637,75.265Zm-17-6.546,16.473,4.794a6.145,6.145,0,0,0,.123-2.244,6.462,6.462,0,0,0-7.161-5.686,6.382,6.382,0,0,0-3.473,1.537,2.41,2.41,0,0,1-2.428.43,2.993,2.993,0,0,0-1.045-.184,3.164,3.164,0,0,0-2.489,1.352Z" transform="translate(-107.222 -44.355)"/>
        <path id="Trazado_735878" data-name="Trazado 735878" d="M176.36,187.286a.753.753,0,0,1-.492-.184l-4.026-3.319a2.075,2.075,0,0,1-.277-2.889l7.007-8.452a2.075,2.075,0,0,1,2.889-.277l5.132,4.241a2.075,2.075,0,0,1,.277,2.889l-5.809,7.038a.736.736,0,0,1-.768.246,4.674,4.674,0,0,0-3.5.584A1,1,0,0,1,176.36,187.286Zm3.78-14.045h-.061a.534.534,0,0,0-.338.184l-7.007,8.452a.494.494,0,0,0,.061.707l3.627,2.981a5.96,5.96,0,0,1,3.719-.584l5.532-6.669a.494.494,0,0,0-.061-.707l-5.132-4.241A.462.462,0,0,0,180.14,173.241Z" transform="translate(-118.519 -118.943)"/>
        <path id="Trazado_735879" data-name="Trazado 735879" d="M84.829,189.753a1.509,1.509,0,0,1-1.291-.738L82.4,187.171a1.532,1.532,0,0,1,.492-2.09l6.792-4.18a1.532,1.532,0,0,1,2.09.492l1.137,1.844a1.532,1.532,0,0,1-.492,2.09l-6.792,4.18A1.37,1.37,0,0,1,84.829,189.753Zm5.655-7.56-6.761,4.18,1.137,1.844,6.761-4.18Zm1.137,1.844.4.645Z" transform="translate(-56.923 -125.159)"/>
        <path id="Trazado_735880" data-name="Trazado 735880" d="M94.437,202.176a2.34,2.34,0,0,1-.645-.092c-.061,0-.092-.031-.123-.031a1.092,1.092,0,0,1-.492-.338l-3.135-5.1a.749.749,0,0,1,.246-1.045l6.546-4.026a.75.75,0,0,1,1.045.246l4.149,6.731a.749.749,0,0,1-.246,1.045.724.724,0,0,1-.615.092,4.573,4.573,0,0,0-4.887,1.6,2.23,2.23,0,0,1-1.844.922Zm-.092-1.537a.884.884,0,0,0,.768-.307,6.087,6.087,0,0,1,4.794-2.366l-2.889-4.7-5.225,3.227Z" transform="translate(-62.29 -132.603)"/>
        <path id="Trazado_735881" data-name="Trazado 735881" d="M186.663,192.244a.754.754,0,0,1-.492-.184l-7.1-5.87a.747.747,0,0,1-.092-1.076l2.858-3.442a.747.747,0,0,1,1.076-.092l7.1,5.87a.747.747,0,0,1,.092,1.076l-2.858,3.442a.8.8,0,0,1-.522.277Zm-6.024-6.761,5.932,4.887,1.875-2.244-5.932-4.887Z" transform="translate(-123.843 -125.652)"/>
        <path id="Trazado_735882" data-name="Trazado 735882" d="M179.3,133.733a.755.755,0,0,1-.461-.154,10.825,10.825,0,0,0-3.2-1.752.785.785,0,0,1-.492-.953l2.827-9.712a.807.807,0,0,1,.615-.553,1.384,1.384,0,0,0,1.137-1.352v-2.889a.761.761,0,0,1,.768-.768.749.749,0,0,1,.645.369,1.425,1.425,0,0,0,1.905.492,1.232,1.232,0,0,0,.461-.43.757.757,0,0,1,1.076-.215.772.772,0,0,1,.307.861L180.1,133.21a.915.915,0,0,1-.8.522Zm-2.489-3.1a16.35,16.35,0,0,1,2.059,1.076L182.8,118.12a3.023,3.023,0,0,1-1.567-.154v1.291a2.9,2.9,0,0,1-1.905,2.735Z" transform="translate(-121.302 -80.08)"/>
        <path id="Trazado_735883" data-name="Trazado 735883" d="M158.089,121.763a.818.818,0,0,1-.369-.092,2.9,2.9,0,0,1-1.352-1.66,8.379,8.379,0,0,0-1.567-2.858.823.823,0,0,1-.154-.707l3.749-12.877a1.818,1.818,0,0,1,2.244-1.229l1.567.461a.756.756,0,0,1,.553.738v4.149a.523.523,0,0,1-.031.215l-3.872,13.338A.888.888,0,0,1,158.089,121.763Zm-1.875-5.286a9.543,9.543,0,0,1,1.537,2.858l3.442-11.8v-3.442l-1.014-.307a.279.279,0,0,0-.338.184Z" transform="translate(-107.102 -70.845)"/>
        <path id="Trazado_735884" data-name="Trazado 735884" d="M136.687,110.322a.909.909,0,0,1-.307-.061,8.213,8.213,0,0,0-3.411-.738.761.761,0,0,1-.768-.768.523.523,0,0,1,.031-.215l3.411-11.771a1.818,1.818,0,0,1,2.244-1.229l1.69.492a1.818,1.818,0,0,1,1.229,2.244l-3.381,11.494a.765.765,0,0,1-.738.553Zm-2.7-2.305a10.515,10.515,0,0,1,2.213.492l3.1-10.7a.279.279,0,0,0-.184-.338l-1.69-.492a.279.279,0,0,0-.338.184Z" transform="translate(-91.57 -66.135)"/>
        <path id="Trazado_735885" data-name="Trazado 735885" d="M178.92,100.635a2.938,2.938,0,0,1-2.92-2.92V85.268a.761.761,0,0,1,.768-.768.523.523,0,0,1,.215.031l8.3,2.428a.756.756,0,0,1,.553.738V93.72a2.918,2.918,0,0,1-2.92,2.92,2.589,2.589,0,0,1-1.076-.215v1.291A2.938,2.938,0,0,1,178.92,100.635Zm-1.383-14.353V97.715a1.383,1.383,0,0,0,2.766,0V94.826a.761.761,0,0,1,.768-.768.749.749,0,0,1,.645.369,1.425,1.425,0,0,0,1.905.492,1.367,1.367,0,0,0,.676-1.2V88.249Z" transform="translate(-121.909 -58.538)"/>
      </g>
    </g>
  </g>
</svg>
