<svg xmlns="http://www.w3.org/2000/svg" width="121" height="121" viewBox="0 0 121 121">
  <g id="Grupo_971647" data-name="Grupo 971647" transform="translate(-390 -14732)">
    <circle id="Elipse_6742" data-name="Elipse 6742" cx="60.5" cy="60.5" r="60.5" transform="translate(390 14732)" fill="#336367"/>
    <g id="contaminacion_2_" data-name="contaminacion (2)" transform="translate(405.463 14745.432)">
      <g id="Grupo_971641" data-name="Grupo 971641" transform="translate(5.63 7.734)">
        <g id="Grupo_971594" data-name="Grupo 971594" transform="translate(0 52.821)">
          <path id="Trazado_735886" data-name="Trazado 735886" d="M19.42,187.267l-.015.339-.188,4.5-.188,4.5-.188,4.5H7.36V180.857l9.948,5.289Z" transform="translate(-7.36 -180.857)" fill="#efbf27"/>
        </g>
        <g id="Grupo_971595" data-name="Grupo 971595" transform="translate(19.968 52.821)">
          <path id="Trazado_735887" data-name="Trazado 735887" d="M83.433,184.152l-.126,3.011-.29,6.968-.293,6.968H72.831l-.188-4.5-.188-4.5-.188-4.5-.117-2.792,2.207,1.174,2.875,1.526v-6.657l4.09,2.173Z" transform="translate(-72.15 -180.857)" fill="#efbf27"/>
        </g>
        <g id="Grupo_971596" data-name="Grupo 971596" transform="translate(44.041 52.821)">
          <path id="Trazado_735888" data-name="Trazado 735888" d="M165.238,185.6l-.2,4.706-.225,5.4-.225,5.4H150.963l-.29-6.968-.293-6.968-.12-2.866,2.21,1.174,3.846,2.043v-6.657l6.811,3.618Z" transform="translate(-150.26 -180.857)" fill="#efbf27"/>
        </g>
        <g id="Grupo_971597" data-name="Grupo 971597" transform="translate(68.656 56.029)">
          <path id="Trazado_735889" data-name="Trazado 735889" d="M236.759,194.79V208.3h-5.917l-.225-5.4-.225-5.4-.225-5.4-.037-.841,2.21,1.174Z" transform="translate(-230.13 -191.267)" fill="#efbf27"/>
        </g>
        <g id="Grupo_971598" data-name="Grupo 971598" transform="translate(28.385 54.994)">
          <path id="Trazado_735890" data-name="Trazado 735890" d="M100.215,187.907l2.111,1.122-.126,3.011-.29,6.968-.293,6.968H99.46S100.163,189.152,100.215,187.907Z" transform="translate(-99.46 -187.907)" fill="#ce9320"/>
        </g>
        <g id="Grupo_971599" data-name="Grupo 971599" transform="translate(44.041 56.261)">
          <path id="Trazado_735891" data-name="Trazado 735891" d="M153.12,208.82h-2.157l-.29-6.968-.293-6.968-.12-2.866,2.21,1.174C152.473,193.259,153.12,208.752,153.12,208.82Z" transform="translate(-150.26 -192.017)" fill="#ce9320"/>
        </g>
        <g id="Grupo_971600" data-name="Grupo 971600" transform="translate(30.542 31.254)">
          <path id="Trazado_735892" data-name="Trazado 735892" d="M120.661,152.686h-14.2l.293-6.968.29-6.968.126-3.011.166-3.957.29-6.968.293-6.968.29-6.968h10.707l.293,6.968.29,6.968.293,6.968.17,4.1.12,2.866.293,6.968Z" transform="translate(-106.46 -110.877)" fill="#eee"/>
        </g>
        <g id="Grupo_971601" data-name="Grupo 971601" transform="translate(40.309 58.356)">
          <path id="Trazado_735893" data-name="Trazado 735893" d="M139.21,207.326a.77.77,0,0,1-.769-.738l-.289-6.968a.771.771,0,0,1,1.54-.064l.289,6.968A.771.771,0,0,1,139.21,207.326Z" transform="translate(-138.151 -198.817)" fill="#fff"/>
        </g>
        <g id="Grupo_971602" data-name="Grupo 971602" transform="translate(39.27 33.565)">
          <path id="Trazado_735894" data-name="Trazado 735894" d="M134.944,123.065l-.163-3.886a.771.771,0,0,1,1.54-.065l.163,3.886a.771.771,0,0,1-1.54.065Z" transform="translate(-134.781 -118.375)" fill="#fff"/>
        </g>
        <g id="Grupo_971603" data-name="Grupo 971603" transform="translate(39.723 44.419)">
          <path id="Trazado_735895" data-name="Trazado 735895" d="M136.543,161.367l-.293-6.968a.771.771,0,0,1,1.54-.065l.293,6.968a.771.771,0,0,1-1.54.065Z" transform="translate(-136.25 -153.595)" fill="#fff"/>
        </g>
        <g id="Grupo_971604" data-name="Grupo 971604" transform="translate(30.542 66.095)">
          <path id="Trazado_735896" data-name="Trazado 735896" d="M120.661,230.9h-14.2l.293-6.968h13.619Z" transform="translate(-106.46 -223.927)" fill="#fb5c3c"/>
        </g>
        <g id="Grupo_971605" data-name="Grupo 971605" transform="translate(40.598 65.324)">
          <path id="Trazado_735897" data-name="Trazado 735897" d="M140.023,226.853a.771.771,0,0,1-.769-.738l-.163-3.886a.771.771,0,0,1,.738-.8.759.759,0,0,1,.8.738l.163,3.886A.771.771,0,0,1,140.023,226.853Z" transform="translate(-139.09 -221.425)" fill="#ffcac2"/>
        </g>
        <g id="Grupo_971606" data-name="Grupo 971606" transform="translate(31.124 52.159)">
          <path id="Trazado_735898" data-name="Trazado 735898" d="M121.387,185.675H108.35l.126-3.011.166-3.957H121.1l.17,4.1Z" transform="translate(-108.35 -178.707)" fill="#fb5c3c"/>
        </g>
        <g id="Grupo_971607" data-name="Grupo 971607" transform="translate(40.016 51.388)">
          <path id="Trazado_735899" data-name="Trazado 735899" d="M137.494,183.977l-.293-6.968a.771.771,0,0,1,1.54-.065l.293,6.968a.771.771,0,0,1-1.54.065Z" transform="translate(-137.201 -176.206)" fill="#ffcac2"/>
        </g>
        <g id="Grupo_971608" data-name="Grupo 971608" transform="translate(31.707 38.222)">
          <path id="Trazado_735900" data-name="Trazado 735900" d="M122.112,140.455H110.24l.293-6.968h11.289Z" transform="translate(-110.24 -133.487)" fill="#fb5c3c"/>
        </g>
        <g id="Grupo_971609" data-name="Grupo 971609" transform="translate(39.433 37.451)">
          <path id="Trazado_735901" data-name="Trazado 735901" d="M135.6,138.758l-.29-6.968a.771.771,0,0,1,1.54-.064l.29,6.968a.771.771,0,0,1-1.54.064Z" transform="translate(-135.31 -130.987)" fill="#ffcac2"/>
        </g>
        <g id="Grupo_971610" data-name="Grupo 971610" transform="translate(56.212 56.439)">
          <path id="Trazado_735902" data-name="Trazado 735902" d="M190.447,192.6l2.111,1.122-.2,4.706-.225,5.4-.225,5.4h-2.157c0-.116.692-16.509.7-16.624Z" transform="translate(-189.751 -192.597)" fill="#ce9320"/>
        </g>
        <g id="Grupo_971611" data-name="Grupo 971611" transform="translate(68.656 56.029)">
          <path id="Trazado_735903" data-name="Trazado 735903" d="M233,208.3h-2.157l-.225-5.4-.225-5.4-.225-5.4-.037-.841,2.21,1.174c.169,4.115.66,15.86.66,15.86Z" transform="translate(-230.13 -191.267)" fill="#ce9320"/>
        </g>
        <g id="Grupo_971612" data-name="Grupo 971612" transform="translate(58.369 40.678)">
          <path id="Trazado_735904" data-name="Trazado 735904" d="M207.749,173.842h-11l.225-5.4.225-5.4.2-4.706.028-.69.225-5.4.225-5.4.225-5.4H206.4l.225,5.4.225,5.4.191,4.555.037.841.225,5.4.225,5.4Z" transform="translate(-196.75 -141.457)" fill="#eee"/>
        </g>
        <g id="Grupo_971613" data-name="Grupo 971613" transform="translate(64.612 50.704)">
          <path id="Trazado_735905" data-name="Trazado 735905" d="M217.235,180.186l-.225-5.4a.771.771,0,0,1,1.54-.064l.225,5.4a.771.771,0,0,1-1.54.064Z" transform="translate(-217.01 -173.987)" fill="#fff"/>
        </g>
        <g id="Grupo_971614" data-name="Grupo 971614" transform="translate(64.289 42.99)">
          <path id="Trazado_735906" data-name="Trazado 735906" d="M216.825,152.813a.771.771,0,0,1-.769-.739l-.1-2.315a.771.771,0,0,1,.738-.8.78.78,0,0,1,.8.738l.1,2.315A.771.771,0,0,1,216.825,152.813Z" transform="translate(-215.96 -148.957)" fill="#fff"/>
        </g>
        <g id="Grupo_971615" data-name="Grupo 971615" transform="translate(65.062 61.497)">
          <path id="Trazado_735907" data-name="Trazado 735907" d="M218.7,215.209l-.225-5.4a.771.771,0,0,1,1.54-.064l.225,5.4a.771.771,0,0,1-1.54.064Z" transform="translate(-218.47 -209.007)" fill="#fff"/>
        </g>
        <g id="Grupo_971616" data-name="Grupo 971616" transform="translate(58.369 67.666)">
          <path id="Trazado_735908" data-name="Trazado 735908" d="M207.749,234.421h-11l.225-5.4h10.55Z" transform="translate(-196.75 -229.024)" fill="#fb5c3c"/>
        </g>
        <g id="Grupo_971617" data-name="Grupo 971617" transform="translate(65.287 66.896)">
          <path id="Trazado_735909" data-name="Trazado 735909" d="M219.333,230.492l-.133-3.162a.771.771,0,0,1,1.54-.064l.133,3.162a.771.771,0,1,1-1.54.064Z" transform="translate(-219.2 -226.527)" fill="#fff"/>
        </g>
        <g id="Grupo_971618" data-name="Grupo 971618" transform="translate(58.819 56.871)">
          <path id="Trazado_735910" data-name="Trazado 735910" d="M208.309,199.393h-10.1l.2-4.706.028-.69h9.646Z" transform="translate(-198.21 -193.997)" fill="#fb5c3c"/>
        </g>
        <g id="Grupo_971619" data-name="Grupo 971619" transform="translate(64.838 56.1)">
          <path id="Trazado_735911" data-name="Trazado 735911" d="M217.966,197.7l-.225-5.4a.771.771,0,0,1,.738-.8.762.762,0,0,1,.8.738l.225,5.4a.771.771,0,0,1-1.54.064Z" transform="translate(-217.741 -191.496)" fill="#fff"/>
        </g>
        <g id="Grupo_971620" data-name="Grupo 971620" transform="translate(59.27 46.076)">
          <path id="Trazado_735912" data-name="Trazado 735912" d="M208.871,164.368h-9.2l.227-5.4h8.744Z" transform="translate(-199.675 -158.97)" fill="#fb5c3c"/>
        </g>
        <g id="Grupo_971621" data-name="Grupo 971621" transform="translate(64.384 45.304)">
          <path id="Trazado_735913" data-name="Trazado 735913" d="M217.268,163.406a.771.771,0,0,1-.769-.738l-.228-5.4a.771.771,0,0,1,1.54-.065l.228,5.4A.771.771,0,0,1,217.268,163.406Z" transform="translate(-216.27 -156.464)" fill="#fff"/>
        </g>
        <g id="Grupo_971622" data-name="Grupo 971622" transform="translate(9.323 58.11)">
          <path id="Trazado_735914" data-name="Trazado 735914" d="M38.236,198.017l2.111,1.122-.015.339-.188,4.5-.188,4.5-.188,4.5H37.61C37.61,212.888,38.232,198.1,38.236,198.017Z" transform="translate(-37.61 -198.017)" fill="#ce9320"/>
        </g>
        <g id="Grupo_971623" data-name="Grupo 971623" transform="translate(19.968 56.778)">
          <path id="Trazado_735915" data-name="Trazado 735915" d="M74.988,209.982H72.831l-.188-4.5-.188-4.5-.188-4.5L72.15,193.7l2.207,1.174C74.358,194.9,74.988,209.957,74.988,209.982Z" transform="translate(-72.15 -193.697)" fill="#ce9320"/>
        </g>
        <g id="Grupo_971624" data-name="Grupo 971624" transform="translate(11.48 46.075)">
          <path id="Trazado_735916" data-name="Trazado 735916" d="M53.779,185.955H44.61l.188-4.5.188-4.5.188-4.5.015-.339.173-4.161.188-4.5.188-4.5h6.913l.188,4.5.188,4.5.071,1.707.117,2.792.188,4.5.188,4.5Z" transform="translate(-44.61 -158.967)" fill="#eee"/>
        </g>
        <g id="Grupo_971625" data-name="Grupo 971625" transform="translate(16.042 54.3)">
          <path id="Trazado_735917" data-name="Trazado 735917" d="M60.368,191.7a.771.771,0,0,1-.769-.738l-.188-4.5a.771.771,0,0,1,.738-.8.763.763,0,0,1,.8.738l.188,4.5A.771.771,0,0,1,60.368,191.7Z" transform="translate(-59.411 -185.656)" fill="#fff"/>
        </g>
        <g id="Grupo_971626" data-name="Grupo 971626" transform="translate(15.795 48.386)">
          <path id="Trazado_735918" data-name="Trazado 735918" d="M59.439,169.425a.771.771,0,0,1-.769-.739l-.058-1.418a.771.771,0,0,1,1.54-.063l.058,1.418A.771.771,0,0,1,59.439,169.425Z" transform="translate(-58.611 -166.467)" fill="#fff"/>
        </g>
        <g id="Grupo_971627" data-name="Grupo 971627" transform="translate(16.417 63.296)">
          <path id="Trazado_735919" data-name="Trazado 735919" d="M61.588,220.887a.771.771,0,0,1-.769-.738l-.188-4.5a.771.771,0,1,1,1.54-.064l.188,4.5A.771.771,0,0,1,61.588,220.887Z" transform="translate(-60.63 -214.846)" fill="#fff"/>
        </g>
        <g id="Grupo_971628" data-name="Grupo 971628" transform="translate(11.48 68.567)">
          <path id="Trazado_735920" data-name="Trazado 735920" d="M53.779,236.444H44.61l.188-4.5h8.793Z" transform="translate(-44.61 -231.947)" fill="#fb5c3c"/>
        </g>
        <g id="Grupo_971629" data-name="Grupo 971629" transform="translate(16.606 67.796)">
          <path id="Trazado_735921" data-name="Trazado 735921" d="M62.069,232.4a.771.771,0,0,1-.769-.739l-.058-1.415a.771.771,0,0,1,1.54-.063l.058,1.415a.771.771,0,0,1-.771.8Z" transform="translate(-61.241 -229.446)" fill="#ffcac2"/>
        </g>
        <g id="Grupo_971630" data-name="Grupo 971630" transform="translate(11.856 59.57)">
          <path id="Trazado_735922" data-name="Trazado 735922" d="M54.246,207.252H45.831l.189-4.5h8.039Z" transform="translate(-45.831 -202.754)" fill="#fb5c3c"/>
        </g>
        <g id="Grupo_971631" data-name="Grupo 971631" transform="translate(16.229 58.8)">
          <path id="Trazado_735923" data-name="Trazado 735923" d="M60.978,206.293a.771.771,0,0,1-.769-.738l-.188-4.5a.771.771,0,0,1,1.54-.064l.188,4.5A.771.771,0,0,1,60.978,206.293Z" transform="translate(-60.02 -200.255)" fill="#ffcac2"/>
        </g>
        <g id="Grupo_971632" data-name="Grupo 971632" transform="translate(12.232 50.574)">
          <path id="Trazado_735924" data-name="Trazado 735924" d="M54.715,178.064H47.05l.188-4.5h7.289Z" transform="translate(-47.05 -173.567)" fill="#fb5c3c"/>
        </g>
        <g id="Grupo_971633" data-name="Grupo 971633" transform="translate(15.853 49.804)">
          <path id="Trazado_735925" data-name="Trazado 735925" d="M59.758,177.1a.771.771,0,0,1-.769-.738l-.188-4.5a.771.771,0,0,1,1.54-.064l.188,4.5a.771.771,0,0,1-.771.8Z" transform="translate(-58.8 -171.066)" fill="#ffcac2"/>
        </g>
        <g id="Grupo_971634" data-name="Grupo 971634" transform="translate(0.001)">
          <path id="Trazado_735926" data-name="Trazado 735926" d="M82.649,27.484a5.694,5.694,0,0,1-5.714,5.628,3.063,3.063,0,0,0-3.06,3.063v13.97H68.589V36.175a3.063,3.063,0,0,0-3.063-3.063H51.561A3.063,3.063,0,0,0,48.5,36.175v4.546H41.514V36.175a3.063,3.063,0,0,0-3.063-3.063H28.5a3.063,3.063,0,0,0-3.063,3.063V55.542H21.42V36.175a3.063,3.063,0,0,0-3.063-3.063h-5.3a5.663,5.663,0,0,1-5.692-5.7,5.554,5.554,0,0,1,7.914-4.882,7.1,7.1,0,0,1,8.54-3.227A11.819,11.819,0,0,1,47.1,19.194a7.106,7.106,0,0,1,9.015,5.668A4.368,4.368,0,0,1,60,24.729a8.1,8.1,0,0,1,15.7-2.546,5.551,5.551,0,0,1,6.95,5.3Z" transform="translate(-7.365 -9.467)" fill="#aeaeae"/>
        </g>
        <g id="Grupo_971635" data-name="Grupo 971635" transform="translate(2.314 11.771)">
          <path id="Trazado_735927" data-name="Trazado 735927" d="M15.638,54.682h-.019a.77.77,0,0,1-.752-.789,3.259,3.259,0,0,1,3.241-3.159c1.2,0,1.389.532,2.361.532a2.316,2.316,0,0,0,2.017-1.178,4.792,4.792,0,0,1,1.242-1.441.771.771,0,0,1,.945,1.217,3.255,3.255,0,0,0-.845.98,3.858,3.858,0,0,1-3.359,1.963c-1.326,0-1.587-.532-2.361-.532a1.709,1.709,0,0,0-1.7,1.655.771.771,0,0,1-.77.752Zm12.1-5.319a3.279,3.279,0,0,0-.727-.165.77.77,0,1,1,.166-1.532,4.787,4.787,0,0,1,1.072.243.77.77,0,1,1-.51,1.454Z" transform="translate(-14.867 -47.661)" fill="#eee"/>
        </g>
        <g id="Grupo_971636" data-name="Grupo 971636" transform="translate(34.151 29.096)">
          <path id="Trazado_735928" data-name="Trazado 735928" d="M118.17,103.877h6.984v2.157H118.17Z" transform="translate(-118.17 -103.877)" fill="#868686"/>
        </g>
        <g id="Grupo_971637" data-name="Grupo 971637" transform="translate(61.226 38.521)">
          <path id="Trazado_735929" data-name="Trazado 735929" d="M206.02,134.457h5.285v2.157H206.02Z" transform="translate(-206.02 -134.457)" fill="#868686"/>
        </g>
        <g id="Grupo_971638" data-name="Grupo 971638" transform="translate(14.057 43.917)">
          <path id="Trazado_735930" data-name="Trazado 735930" d="M52.97,151.967h4.016v2.157H52.97Z" transform="translate(-52.97 -151.967)" fill="#868686"/>
        </g>
        <g id="Grupo_971639" data-name="Grupo 971639" transform="translate(27.339 2.311)">
          <path id="Trazado_735931" data-name="Trazado 735931" d="M113.682,30.666a3.188,3.188,0,0,0-.2-.714.771.771,0,0,1,1.423-.593,4.731,4.731,0,0,1,.3,1.06.771.771,0,0,1-1.521.247Zm-1.914-2.45a3.206,3.206,0,0,0-2.211-.138,3.85,3.85,0,0,1-4.877-3.018,7.953,7.953,0,0,0-7.841-6.553.77.77,0,1,1,0-1.541,9.492,9.492,0,0,1,9.358,7.822,2.309,2.309,0,0,0,2.926,1.811,4.751,4.751,0,0,1,3.268.207.771.771,0,0,1-.623,1.41Z" transform="translate(-96.068 -16.966)" fill="#eee"/>
        </g>
        <g id="Grupo_971640" data-name="Grupo 971640" transform="translate(59.966 9.746)">
          <path id="Trazado_735932" data-name="Trazado 735932" d="M213.4,49.408a1.7,1.7,0,0,0-.125-.619.77.77,0,0,1,1.427-.582,3.221,3.221,0,0,1,.239,1.182.771.771,0,1,1-1.541.019ZM206.69,45.4A4.272,4.272,0,0,0,202.7,42.63a.77.77,0,1,1,0-1.541,5.82,5.82,0,0,1,5.432,3.775,2.315,2.315,0,0,0,2.746,1.432,3.37,3.37,0,0,1,.61-.1.77.77,0,1,1,.108,1.537,1.83,1.83,0,0,0-.332.055A3.859,3.859,0,0,1,206.69,45.4Z" transform="translate(-201.932 -41.089)" fill="#eee"/>
        </g>
      </g>
      <g id="Grupo_971642" data-name="Grupo 971642" transform="translate(27.206 8.468)">
        <path id="Trazado_735933" data-name="Trazado 735933" d="M77.758,11.942h0a.771.771,0,0,0,.755,1.344h0a.773.773,0,0,0,.3-1.048A.79.79,0,0,0,77.758,11.942Z" transform="translate(-77.366 -11.849)"/>
      </g>
      <g id="Grupo_971643" data-name="Grupo 971643" transform="translate(4.86 6.962)">
        <path id="Trazado_735934" data-name="Trazado 735934" d="M11.326,32.148h5.3a2.3,2.3,0,0,1,2.293,2.293v18.6h-.678a.771.771,0,0,0-.77.738l-.5,11.934L5.992,59.875a.771.771,0,0,0-.724,1.361L16.9,67.417,16.34,80.765a.771.771,0,0,0,1.54.064l.157-3.758h7.315l.157,3.758a.771.771,0,0,0,1.54-.064l-.624-14.941,3.894,2.069a.771.771,0,0,0,1.132-.68V61.837l4.64,2.465L35.4,80.765a.771.771,0,0,0,1.54.065L37.2,74.6h2.344a.77.77,0,1,0,0-1.541h-2.28l.227-5.429H49.053l.227,5.429H45.711a.77.77,0,1,0,0,1.541h3.633l.26,6.228a.771.771,0,0,0,1.54-.064c-.072-1.722-.351-8.4-.646-15.459l4.869,2.585a.769.769,0,0,0,1.131-.678V61.836l.268.145a.771.771,0,0,0,.724-1.362l-1.4-.743a.77.77,0,0,0-1.131.681v5.375l-4.534-2.409c-.2-4.793-.82-19.616-1.027-24.568a.771.771,0,0,0-.77-.738h-1.09V34.441a2.3,2.3,0,0,1,2.292-2.292H63.794a2.3,2.3,0,0,1,2.292,2.292v13.2h-.734a.771.771,0,0,0-.77.738l-.654,15.66-1-.529a.769.769,0,1,0-.721,1.359l1.645.874c-.061,1.457-.566,13.546-.627,15.02a.771.771,0,0,0,1.54.064l.195-4.659h9.07l.194,4.659a.771.771,0,0,0,1.54-.064c-.059-1.408-.576-13.782-.656-15.69l5.441,2.891a.77.77,0,1,0,.723-1.361l-6.239-3.315c-.152-3.639-.5-12.066-.623-14.91a.771.771,0,0,0-.77-.738h-.733V34.44a2.3,2.3,0,0,1,2.29-2.293,6.451,6.451,0,0,0,6.484-6.407,6.318,6.318,0,0,0-7.252-6.17,8.874,8.874,0,0,0-16.843,2.388,5.143,5.143,0,0,0-2.657.108,7.891,7.891,0,0,0-8.975-5.538,12.6,12.6,0,0,0-15.32-9.181.771.771,0,1,0,.379,1.495A11.053,11.053,0,0,1,44.615,17.6a.769.769,0,0,0,.974.6,6.354,6.354,0,0,1,8.038,5.054.772.772,0,0,0,1.128.552,3.634,3.634,0,0,1,3.2-.108.771.771,0,0,0,1.088-.675,7.3,7.3,0,0,1,7.326-7.085h0a7.371,7.371,0,0,1,6.876,4.783.784.784,0,0,0,.915.478,4.776,4.776,0,0,1,5.985,4.564A4.927,4.927,0,0,1,75.2,30.61a3.837,3.837,0,0,0-3.831,3.831v13.2H67.628v-13.2a3.838,3.838,0,0,0-3.833-3.833H49.83A3.838,3.838,0,0,0,46,34.441v3.776H40.552V34.441a3.838,3.838,0,0,0-3.833-3.833H26.766a3.838,3.838,0,0,0-3.833,3.833v18.6H20.458V34.44a3.837,3.837,0,0,0-3.834-3.831h-5.3A4.9,4.9,0,0,1,6.4,25.7a4.785,4.785,0,0,1,6.814-4.2.79.79,0,0,0,1-.321A6.332,6.332,0,0,1,21.832,18.3a.776.776,0,0,0,1.017-.6,10.96,10.96,0,0,1,3.2-6.078.766.766,0,0,0,.016-1.088.787.787,0,0,0-1.088-.018A12.594,12.594,0,0,0,21.5,16.6a7.869,7.869,0,0,0-8.263,3.242A6.323,6.323,0,0,0,4.863,25.66a6.421,6.421,0,0,0,6.463,6.487ZM72.907,49.183l.161,3.856H65.93l.161-3.856Zm.612,14.651h-8.04l.161-3.856h7.717Zm-7.814-5.4.161-3.857h7.266l.161,3.857Zm-.29,6.938h8.168l.161,3.855h-8.49Zm-.386,9.254.161-3.858h8.619l.161,3.858ZM24.413,54.579l.124,2.959H18.854l.124-2.959Zm.312,7.455H18.666l.124-2.956H24.6Zm-6.311,6.039h6.563l.124,2.957H18.29Zm.064-1.541.124-2.957h6.187l.124,2.957Zm-.376,9,.124-2.958h6.939l.124,2.958ZM38.076,53.695H48.47l.227,5.427H37.849Zm10.329-1.541H38.141l.227-5.427h9.811ZM37.558,66.09l.227-5.427H48.761l.227,5.427Zm10.556-20.9H38.432l.227-5.427h9.229ZM24.473,34.441a2.3,2.3,0,0,1,2.292-2.292h9.952a2.3,2.3,0,0,1,2.292,2.292v3.776H37.92a.771.771,0,0,0-.77.738l-.988,23.639-5.12-2.72a.771.771,0,0,0-1.132.68v5.376l-3.56-1.892-.429-10.263a.771.771,0,0,0-.77-.738h-.678Z" transform="translate(-4.86 -6.962)"/>
      </g>
      <g id="Grupo_971644" data-name="Grupo 971644" transform="translate(59.079 61.974)">
        <path id="Trazado_735935" data-name="Trazado 735935" d="M182.236,186.593a.769.769,0,1,0-1.042.321A.768.768,0,0,0,182.236,186.593Z" transform="translate(-180.787 -185.462)"/>
      </g>
      <g id="Grupo_971645" data-name="Grupo 971645" transform="translate(41.858 73.06)">
        <path id="Trazado_735936" data-name="Trazado 735936" d="M126.451,222.2a.77.77,0,1,0-.77.774A.77.77,0,0,0,126.451,222.2Z" transform="translate(-124.91 -221.432)"/>
      </g>
    </g>
  </g>
</svg>
