<svg xmlns="http://www.w3.org/2000/svg" xmlns:xlink="http://www.w3.org/1999/xlink" width="121" height="121" viewBox="0 0 121 121">
  <defs>
    <clipPath id="clip-path">
      <path id="path5616" d="M0-682.665H73.788v73.788H0Z" transform="translate(0 682.665)"/>
    </clipPath>
  </defs>
  <g id="Grupo_971646" data-name="Grupo 971646" transform="translate(-390 -14891)">
    <circle id="Elipse_6743" data-name="Elipse 6743" cx="60.5" cy="60.5" r="60.5" transform="translate(390 14891)" fill="#badc61"/>
    <g id="g5610" transform="translate(410.322 15594.877)">
      <g id="g5612" transform="translate(0 -682.665)">
        <g id="g5614" clip-path="url(#clip-path)">
          <g id="g5620" transform="translate(10.851 7.596)">
            <path id="path5622" d="M-393.986,0V11.936c-12.907,5.825-19.547,10.742-21.253,23.079a53.448,53.448,0,0,0-.45,7.3L-428.31,46.1l-13.422-3.785c0-14.384,5.419-25.112,14.314-32.169C-418.9,3.388-407.183,0-393.986,0" transform="translate(441.732 0)" fill="#ace094"/>
          </g>
          <g id="g5624" transform="translate(10.851 17.747)">
            <path id="path5626" d="M-218.613-205.175a53.448,53.448,0,0,0-.45,7.3l-12.622,3.785-13.422-3.785c0-14.384,5.419-25.112,14.314-32.169.017.122.026.189.026.189s-4.9,18.9,12.153,24.676" transform="translate(245.106 230.039)" fill="#9cda82"/>
          </g>
          <g id="g5628" transform="translate(8.968 22.896)">
            <path id="path5630" d="M-95.841-12.107A11.983,11.983,0,0,1-96.96-5.393a5.958,5.958,0,0,1-8.268,2.25,4.65,4.65,0,0,1,1.558-8.532,19.814,19.814,0,0,0,5.328-1.69,1.7,1.7,0,0,1,2.5,1.258" transform="translate(107.456 13.575)" fill="#ace094"/>
          </g>
          <g id="g5632" transform="translate(28.413 18.942)">
            <path id="path5634" d="M-78.121-9.676a9.988,9.988,0,0,1-.793,5.582,4.914,4.914,0,0,1-6.763,2.067,3.861,3.861,0,0,1,1.118-7.1A16.364,16.364,0,0,0-80.2-10.655a1.39,1.39,0,0,1,2.084.979" transform="translate(87.588 10.849)" fill="#9cda82"/>
          </g>
          <g id="g5636" transform="translate(1.085 46.714)">
            <path id="path5638" d="M-590.967-45.4v14a6.486,6.486,0,0,1-6.485,6.485H-656.1a6.486,6.486,0,0,1-6.485-6.485v-14a5.557,5.557,0,0,1,1.627-3.928,5.348,5.348,0,0,1,1.777-1.18,5.38,5.38,0,0,1,2.022-.394,5.35,5.35,0,0,1,3.8,1.574,5.348,5.348,0,0,0,3.8,1.572,5.354,5.354,0,0,0,3.8-1.572,5.353,5.353,0,0,1,3.8-1.574,5.353,5.353,0,0,1,3.8,1.574,5.349,5.349,0,0,0,1.2.907,5.372,5.372,0,0,0,2.594.666,5.353,5.353,0,0,0,3.8-1.572,5.35,5.35,0,0,1,3.8-1.574,5.35,5.35,0,0,1,3.8,1.574,5.353,5.353,0,0,0,3.8,1.572,5.354,5.354,0,0,0,3.8-1.572,5.352,5.352,0,0,1,3.8-1.574,5.353,5.353,0,0,1,3.8,1.574,5.354,5.354,0,0,0,3.8,1.572,5.349,5.349,0,0,0,3.8-1.572,5.37,5.37,0,0,1,7.6,0,5.558,5.558,0,0,1,1.2,1.8,5.55,5.55,0,0,1,.422,2.126" transform="translate(662.585 50.907)" fill="#a4e7ff"/>
          </g>
          <path id="path5640" d="M511.451-607.445H491.919v-25.02h19.532Z" transform="translate(-438.748 637.891)" fill="#5c576e"/>
          <g id="g5642" transform="translate(53.171 5.426)">
            <path id="path5644" d="M-53.622-8.956V13.83a8.886,8.886,0,0,1-.075,1.149H-60.12v-25.02h6.431a8.74,8.74,0,0,1,.068,1.085" transform="translate(60.12 10.041)" fill="#4f4c5e"/>
          </g>
          <g id="g5646" transform="translate(45.576 1.085)">
            <path id="path5648" d="M-89.536-44.773v22.786a5.426,5.426,0,0,1-5.426,5.426,5.425,5.425,0,0,1-5.425-5.426V-44.773A5.424,5.424,0,0,1-94.962-50.2a5.4,5.4,0,0,1,3.836,1.589,5.4,5.4,0,0,1,1.59,3.836" transform="translate(100.386 50.199)" fill="#5c576e"/>
          </g>
          <g id="g5650" transform="translate(1.085 46.714)">
            <path id="path5652" d="M-239.46-214.451h-22.534a6.485,6.485,0,0,1-6.485-6.485v-13.906a5.692,5.692,0,0,1,1.165-3.5,5.4,5.4,0,0,1,2.239-1.7,5.384,5.384,0,0,1,2.022-.393,5.35,5.35,0,0,1,3.8,1.574,5.349,5.349,0,0,0,3.8,1.572,5.355,5.355,0,0,0,3.8-1.572,5.353,5.353,0,0,1,3.8-1.574,5.353,5.353,0,0,1,3.8,1.574,5.374,5.374,0,0,0,.894.722c-3.06,7.125-3.044,14.764,3.71,23.693" transform="translate(268.479 240.439)" fill="#83deff"/>
          </g>
          <g id="g5654" transform="translate(20.808 60.347)">
            <path id="path5656" d="M-71.551-28.528c0,1.907-1.945,3.45-4.339,3.448s-4.334-1.551-4.332-3.457,1.945-3.451,4.339-3.448,4.334,1.55,4.332,3.457" transform="translate(80.222 31.985)" fill="#fff"/>
          </g>
          <g id="g5658" transform="translate(44.308 60.372)">
            <path id="path5660" d="M0-28.452C0-26.545,1.937-25,4.332-24.995s4.337-1.541,4.339-3.448S6.734-31.9,4.339-31.9,0-30.359,0-28.452" transform="translate(0 31.9)" fill="#fff"/>
          </g>
          <g id="g5662" transform="translate(16.418 39.275)">
            <path id="path5664" d="M-74.893-6.813A11.971,11.971,0,0,1-73.281-.2,5.959,5.959,0,0,1-80,5.12a4.65,4.65,0,0,1-1.923-8.457,19.875,19.875,0,0,0,4.234-3.649,1.7,1.7,0,0,1,2.793.173" transform="translate(83.97 7.638)" fill="#8dd470"/>
          </g>
          <g id="g5666" transform="translate(19.691 8.8)">
            <path id="path5668" d="M0-117.922c6.174-7.448,15.206-12.215,25.885-14.291" transform="translate(0 132.213)" fill="none" stroke="#000" stroke-linecap="round" stroke-linejoin="round" stroke-miterlimit="10" stroke-width="2.5"/>
          </g>
          <g id="g5670" transform="translate(37.385 26.989)">
            <path id="path5672" d="M0-126.5c1.023-7,3.669-11.591,8.191-15.33" transform="translate(0 141.83)" fill="none" stroke="#000" stroke-linecap="round" stroke-linejoin="round" stroke-miterlimit="10" stroke-width="2.5"/>
          </g>
          <g id="g5674" transform="translate(10.864 34.111)">
            <path id="path5676" d="M0-120.989a45.752,45.752,0,0,1,2.57-14.662" transform="translate(0 135.652)" fill="none" stroke="#000" stroke-linecap="round" stroke-linejoin="round" stroke-miterlimit="10" stroke-width="2.5"/>
          </g>
          <g id="g5678" transform="translate(1.085 46.714)">
            <path id="path5680" d="M-208.838-18.932a5.364,5.364,0,0,0,2.905.852,5.353,5.353,0,0,0,3.8-1.572,5.351,5.351,0,0,1,3.8-1.574c.025,0,.05,0,.075,0a5.34,5.34,0,0,1,3.723,1.572,5.353,5.353,0,0,0,3.8,1.572,5.354,5.354,0,0,0,3.8-1.572,5.353,5.353,0,0,1,3.8-1.574,5.353,5.353,0,0,1,3.8,1.574,5.354,5.354,0,0,0,3.8,1.572,5.348,5.348,0,0,0,3.8-1.572,5.37,5.37,0,0,1,7.6,0,5.561,5.561,0,0,1,1.2,1.8,5.549,5.549,0,0,1,.422,2.126v14a6.486,6.486,0,0,1-6.485,6.485h-58.647a6.486,6.486,0,0,1-6.485-6.485v-14a5.557,5.557,0,0,1,1.627-3.929,5.351,5.351,0,0,1,1.777-1.18,5.381,5.381,0,0,1,2.022-.394,5.351,5.351,0,0,1,3.8,1.574,5.3,5.3,0,0,0,.555.486,5.359,5.359,0,0,0,3.243,1.087,5.366,5.366,0,0,0,2.639-.69" transform="translate(234.146 21.227)" fill="none" stroke="#000" stroke-linecap="round" stroke-linejoin="round" stroke-miterlimit="10" stroke-width="2.5"/>
          </g>
          <g id="g5682" transform="translate(56.305 5.426)">
            <path id="path5684" d="M-.107,0H16.278V25.02H-.12" transform="translate(0.12)" fill="none" stroke="#000" stroke-linecap="round" stroke-linejoin="round" stroke-miterlimit="10" stroke-width="2.5"/>
          </g>
          <g id="g5686" transform="translate(45.576 1.085)">
            <path id="path5688" d="M-89.536-80.379v18.472a5.426,5.426,0,0,1-5.426,5.426,5.425,5.425,0,0,1-5.425-5.426V-84.694a5.425,5.425,0,0,1,5.425-5.426,5.4,5.4,0,0,1,3.836,1.589,5.4,5.4,0,0,1,1.59,3.837" transform="translate(100.386 90.12)" fill="none" stroke="#000" stroke-linecap="round" stroke-linejoin="round" stroke-miterlimit="10" stroke-width="2.5"/>
          </g>
          <g id="g5690" transform="translate(8.968 22.896)">
            <path id="path5692" d="M-95.841-12.107a1.7,1.7,0,0,0-2.5-1.258,19.815,19.815,0,0,1-5.328,1.69,4.65,4.65,0,0,0-1.558,8.532,5.958,5.958,0,0,0,8.268-2.25A11.983,11.983,0,0,0-95.841-12.107Z" transform="translate(107.456 13.575)" fill="none" stroke="#000" stroke-linecap="round" stroke-linejoin="round" stroke-miterlimit="10" stroke-width="2.5"/>
          </g>
          <g id="g5694" transform="translate(16.418 39.275)">
            <path id="path5696" d="M-74.893-6.813a1.7,1.7,0,0,0-2.793-.173,19.875,19.875,0,0,1-4.234,3.649A4.65,4.65,0,0,0-80,5.12,5.959,5.959,0,0,0-73.281-.2a11.971,11.971,0,0,0-1.613-6.612Z" transform="translate(83.969 7.638)" fill="none" stroke="#000" stroke-linecap="round" stroke-linejoin="round" stroke-miterlimit="10" stroke-width="2.5"/>
          </g>
          <g id="g5698" transform="translate(28.413 18.942)">
            <path id="path5700" d="M-78.121-9.676a1.39,1.39,0,0,0-2.084-.979,16.364,16.364,0,0,1-4.354,1.531,3.861,3.861,0,0,0-1.118,7.1,4.914,4.914,0,0,0,6.763-2.067A9.988,9.988,0,0,0-78.121-9.676Z" transform="translate(87.588 10.849)" fill="none" stroke="#000" stroke-linecap="round" stroke-linejoin="round" stroke-miterlimit="10" stroke-width="2.5"/>
          </g>
          <g id="g5702" transform="translate(27.674 58.738)">
            <path id="path5704" d="M-.013,0l0,1.707" transform="translate(0.015)" fill="none" stroke="#000" stroke-linecap="round" stroke-linejoin="round" stroke-miterlimit="10" stroke-width="2.5"/>
          </g>
          <g id="g5706" transform="translate(46.121 58.76)">
            <path id="path5708" d="M-.013,0l0,1.708" transform="translate(0.015)" fill="none" stroke="#000" stroke-linecap="round" stroke-linejoin="round" stroke-miterlimit="10" stroke-width="2.5"/>
          </g>
          <g id="g5710" transform="translate(35.441 60.436)">
            <path id="path5712" d="M-24.029-2.878a3.207,3.207,0,0,0-1.456-.349,3.207,3.207,0,0,0-1.456.346" transform="translate(26.941 3.227)" fill="none" stroke="#000" stroke-linecap="round" stroke-linejoin="round" stroke-miterlimit="10" stroke-width="2.5"/>
          </g>
          <g id="g5714" transform="translate(26.272 55.885)">
            <path id="path5716" d="M0,0,2.815.5" fill="none" stroke="#000" stroke-linecap="round" stroke-linejoin="round" stroke-miterlimit="10" stroke-width="2.5"/>
          </g>
          <g id="g5718" transform="translate(44.718 55.013)">
            <path id="path5720" d="M-23.235,0l-2.816.493" transform="translate(26.051)" fill="none" stroke="#000" stroke-linecap="round" stroke-linejoin="round" stroke-miterlimit="10" stroke-width="2.5"/>
          </g>
        </g>
      </g>
    </g>
  </g>
</svg>
