<svg xmlns="http://www.w3.org/2000/svg" width="295" height="140" viewBox="0 0 295 140">
  <g id="Grupo_971758" data-name="Grupo 971758" transform="translate(-915 -944)">
    <rect id="Rectángulo_342455" data-name="Rectángulo 342455" width="295" height="140" transform="translate(915 944)" fill="#ecf7f4"/>
    <g id="obediente" transform="translate(946.875 965.603)">
      <g id="Grupo_971653" data-name="Grupo 971653" transform="translate(34.217 1.418)">
        <path id="Trazado_735952" data-name="Trazado 735952" d="M177.465,7.5h-60.2a.945.945,0,0,0-.945.945V34.653h6.2a4.633,4.633,0,0,1,.323,9.254v5.747h0a1.889,1.889,0,0,1,1.6,1.866V63.256a1.889,1.889,0,0,1-1.6,1.866h0V70.87a4.633,4.633,0,0,1-.323,9.254h-6.2v7.758h13.047a1.89,1.89,0,0,1,1.891,1.891v3.762s0,0,0,0h1.44a1.891,1.891,0,0,1,1.891,1.891v6.029H178.41V8.445A.946.946,0,0,0,177.465,7.5Z" transform="translate(-116.315 -7.5)" fill="#fff3de"/>
      </g>
      <g id="Grupo_971654" data-name="Grupo 971654" transform="translate(34.217 1.418)">
        <path id="Trazado_735953" data-name="Trazado 735953" d="M122.515,34.653c.057,0,.112,0,.169,0V8.445a.945.945,0,0,1,.945-.945H117.26a.945.945,0,0,0-.945.945V34.653Z" transform="translate(-116.315 -7.5)" fill="#ffe5c2"/>
        <path id="Trazado_735954" data-name="Trazado 735954" d="M122.515,391.631h-6.2v7.758h6.368v-7.762C122.627,391.629,122.571,391.631,122.515,391.631Z" transform="translate(-116.315 -319.007)" fill="#ffe5c2"/>
      </g>
      <g id="Grupo_971672" data-name="Grupo 971672" transform="translate(16.496 28.571)">
        <g id="Grupo_971655" data-name="Grupo 971655" transform="translate(25.847 19.503)">
          <path id="Trazado_735955" data-name="Trazado 735955" d="M159.3,254.29h8.751v6.465H159.3Z" transform="translate(-159.296 -254.29)" fill="#883f2e"/>
          <path id="Trazado_735956" data-name="Trazado 735956" d="M237.5,254.29H250v6.465H237.5Z" transform="translate(-222.717 -254.29)" fill="#883f2e"/>
        </g>
        <g id="Grupo_971656" data-name="Grupo 971656" transform="translate(25.847 22.851)">
          <path id="Trazado_735957" data-name="Trazado 735957" d="M159.3,272h8.751v3.117H159.3Z" transform="translate(-159.296 -272)" fill="#6d3326"/>
          <path id="Trazado_735958" data-name="Trazado 735958" d="M237.5,272H250v3.117H237.5Z" transform="translate(-222.717 -272)" fill="#6d3326"/>
        </g>
        <g id="Grupo_971657" data-name="Grupo 971657" transform="translate(53.131 17.994)">
          <path id="Trazado_735959" data-name="Trazado 735959" d="M338.743,251.051A4.741,4.741,0,0,1,334,255.792H304.694a1.078,1.078,0,0,1-1.078-1.078v-7.327a1.078,1.078,0,0,1,1.078-1.078H334A4.741,4.741,0,0,1,338.743,251.051Z" transform="translate(-303.616 -246.31)" fill="#ca6e59"/>
        </g>
        <g id="Grupo_971658" data-name="Grupo 971658" transform="translate(53.131 17.994)">
          <path id="Trazado_735960" data-name="Trazado 735960" d="M310.06,251.734a1.077,1.077,0,0,1-1.077-1.078V246.31h-4.288a1.078,1.078,0,0,0-1.078,1.078v7.327a1.078,1.078,0,0,0,1.078,1.078H334a4.741,4.741,0,0,0,4.691-4.058Z" transform="translate(-303.616 -246.31)" fill="#bb5d4c"/>
        </g>
        <g id="Grupo_971659" data-name="Grupo 971659" transform="translate(34.598 17.995)">
          <path id="Trazado_735961" data-name="Trazado 735961" d="M211.619,247.256v7.592a.945.945,0,0,1-.945.945H206.53a.945.945,0,0,1-.945-.945v-7.592a.945.945,0,0,1,.945-.945h4.143A.945.945,0,0,1,211.619,247.256Z" transform="translate(-205.585 -246.311)" fill="#ca6e59"/>
        </g>
        <g id="Grupo_971660" data-name="Grupo 971660" transform="translate(34.598 17.995)">
          <path id="Trazado_735962" data-name="Trazado 735962" d="M208.326,254.848v-7.592a.945.945,0,0,1,.945-.945H206.53a.945.945,0,0,0-.945.945v7.592a.945.945,0,0,0,.945.945h2.741A.945.945,0,0,1,208.326,254.848Z" transform="translate(-205.585 -246.311)" fill="#bb5d4c"/>
        </g>
        <g id="Grupo_971661" data-name="Grupo 971661" transform="translate(11.745 9.254)">
          <path id="Trazado_735963" data-name="Trazado 735963" d="M96.915,312.321H84.991a1.9,1.9,0,0,1-.288-.024v5.747c.107-.007.214-.012.323-.012H96.879c.109,0,.216.005.323.012V312.3A1.872,1.872,0,0,1,96.915,312.321Z" transform="translate(-84.703 -291.082)" fill="#883f2e"/>
          <path id="Trazado_735964" data-name="Trazado 735964" d="M84.991,312.321a1.9,1.9,0,0,1-.288-.024v5.747c.107-.007.214-.012.323-.012h4.437v-5.711H84.991Z" transform="translate(-84.703 -291.082)" fill="#6d3326"/>
          <path id="Trazado_735965" data-name="Trazado 735965" d="M84.991,205.8H96.914a1.9,1.9,0,0,1,.288.024v-5.747c-.107.007-.215.012-.323.012H85.026c-.109,0-.216-.005-.323-.012v5.747A1.9,1.9,0,0,1,84.991,205.8Z" transform="translate(-84.703 -200.079)" fill="#883f2e"/>
          <path id="Trazado_735966" data-name="Trazado 735966" d="M84.991,205.8h4.473V200.09H85.026c-.109,0-.216-.005-.323-.012v5.747A1.925,1.925,0,0,1,84.991,205.8Z" transform="translate(-84.703 -200.078)" fill="#6d3326"/>
        </g>
        <g id="Grupo_971662" data-name="Grupo 971662" transform="translate(10.142 14.978)">
          <path id="Trazado_735967" data-name="Trazado 735967" d="M91.93,232.243v11.735a1.89,1.89,0,0,1-1.891,1.891H78.116a1.89,1.89,0,0,1-1.891-1.891V232.243a1.89,1.89,0,0,1,1.891-1.891H90.039a1.89,1.89,0,0,1,1.891,1.891Z" transform="translate(-76.225 -230.352)" fill="#ca6e59"/>
        </g>
        <g id="Grupo_971663" data-name="Grupo 971663" transform="translate(10.142 14.978)">
          <path id="Trazado_735968" data-name="Trazado 735968" d="M82.61,243.978V232.243a1.89,1.89,0,0,1,1.891-1.891H78.116a1.891,1.891,0,0,0-1.891,1.891v11.735a1.89,1.89,0,0,0,1.891,1.891H84.5A1.89,1.89,0,0,1,82.61,243.978Z" transform="translate(-76.225 -230.352)" fill="#bb5d4c"/>
        </g>
        <g id="Grupo_971666" data-name="Grupo 971666" transform="translate(0 53.229)">
          <path id="Trazado_735969" data-name="Trazado 735969" d="M69.513,438.531a1.935,1.935,0,0,0,.01-.194v-3.762a1.89,1.89,0,0,0-1.891-1.891H42.086a1.89,1.89,0,0,0-1.891,1.891v3.762a1.935,1.935,0,0,0,.01.194Z" transform="translate(-36.864 -432.685)" fill="#ca6e59"/>
          <path id="Trazado_735970" data-name="Trazado 735970" d="M46.6,438.531a1.935,1.935,0,0,1-.01-.194v-3.762a1.89,1.89,0,0,1,1.891-1.891H42.086a1.89,1.89,0,0,0-1.891,1.891v3.762a1.935,1.935,0,0,0,.01.194Z" transform="translate(-36.864 -432.685)" fill="#bb5d4c"/>
          <g id="Grupo_971664" data-name="Grupo 971664" transform="translate(0 5.657)">
            <path id="Trazado_735971" data-name="Trazado 735971" d="M58.567,470.528H23.523a.945.945,0,0,1-.945-.945V464.5a1.89,1.89,0,0,1,1.891-1.891H56.677a1.89,1.89,0,0,1,1.891,1.891Z" transform="translate(-22.578 -462.608)" fill="#883f2e"/>
          </g>
          <g id="Grupo_971665" data-name="Grupo 971665" transform="translate(0 5.657)">
            <path id="Trazado_735972" data-name="Trazado 735972" d="M28.9,469.583V464.5a1.89,1.89,0,0,1,1.891-1.891H24.469a1.89,1.89,0,0,0-1.891,1.891v5.084a.945.945,0,0,0,.945.945h6.319A.945.945,0,0,1,28.9,469.583Z" transform="translate(-22.578 -462.608)" fill="#6d3326"/>
          </g>
        </g>
        <g id="Grupo_971671" data-name="Grupo 971671" transform="translate(7.435)">
          <g id="Grupo_971667" data-name="Grupo 971667" transform="translate(0 36.205)">
            <path id="Trazado_735973" data-name="Trazado 735973" d="M83.024,347.266a4.633,4.633,0,0,1-4.633,4.633H66.538a4.633,4.633,0,1,1,0-9.267H78.391A4.633,4.633,0,0,1,83.024,347.266Z" transform="translate(-61.905 -342.633)" fill="#ca6e59"/>
          </g>
          <g id="Grupo_971668" data-name="Grupo 971668" transform="translate(0 36.205)">
            <path id="Trazado_735974" data-name="Trazado 735974" d="M68.216,347.266a4.633,4.633,0,0,1,4.633-4.633H66.538a4.633,4.633,0,1,0,0,9.267H72.85A4.633,4.633,0,0,1,68.216,347.266Z" transform="translate(-61.905 -342.633)" fill="#bb5d4c"/>
          </g>
          <g id="Grupo_971669" data-name="Grupo 971669" transform="translate(0)">
            <path id="Trazado_735975" data-name="Trazado 735975" d="M83.024,155.761a4.633,4.633,0,0,1-4.633,4.633H66.538a4.633,4.633,0,0,1,0-9.267H78.391A4.633,4.633,0,0,1,83.024,155.761Z" transform="translate(-61.905 -151.128)" fill="#ca6e59"/>
          </g>
          <g id="Grupo_971670" data-name="Grupo 971670">
            <path id="Trazado_735976" data-name="Trazado 735976" d="M68.216,155.761a4.633,4.633,0,0,1,4.633-4.633H66.538a4.633,4.633,0,0,0,0,9.267H72.85A4.633,4.633,0,0,1,68.216,155.761Z" transform="translate(-61.905 -151.128)" fill="#bb5d4c"/>
          </g>
        </g>
      </g>
      <g id="Grupo_971675" data-name="Grupo 971675" transform="translate(51.999 10.229)">
        <g id="Grupo_971673" data-name="Grupo 971673" transform="translate(0)">
          <circle id="Elipse_6744" data-name="Elipse 6744" cx="13.266" cy="13.266" r="13.266" fill="#52c194"/>
        </g>
        <g id="Grupo_971674" data-name="Grupo 971674" transform="translate(0)">
          <path id="Trazado_735977" data-name="Trazado 735977" d="M216.729,67.373a13.269,13.269,0,0,1,10.087-12.88,13.266,13.266,0,1,0,0,25.759A13.269,13.269,0,0,1,216.729,67.373Z" transform="translate(-210.372 -54.107)" fill="#47a920"/>
        </g>
      </g>
      <g id="Grupo_971676" data-name="Grupo 971676" transform="translate(15.078 0)">
        <path id="Trazado_735978" data-name="Trazado 735978" d="M100.013,45.148H97.73V20.607a1.418,1.418,0,0,0-1.461-1.417,1.457,1.457,0,0,0-1.374,1.477V45.148h-9.5a1.418,1.418,0,1,0,0,2.836h14.622a3.323,3.323,0,0,1,0,6.646H71.045V47.984h7.729a1.418,1.418,0,1,0,0-2.836H70.7a2.5,2.5,0,0,0-2.291,1.508H58.383a2.365,2.365,0,0,0-2.2-1.508H52.039a2.365,2.365,0,0,0-2.2,1.508H43.761V45.439a3.306,3.306,0,0,0-1.6-2.83V39a6.051,6.051,0,0,0-1.741-11.846H35.635V2.836H94.894V13.99a1.418,1.418,0,0,0,1.461,1.417,1.457,1.457,0,0,0,1.374-1.477V2.363A2.363,2.363,0,0,0,95.367,0h-60.2A2.363,2.363,0,0,0,32.8,2.363v24.79H28.564A6.051,6.051,0,0,0,26.823,39v3.61a3.306,3.306,0,0,0-1.6,2.83V57.174a3.306,3.306,0,0,0,1.6,2.83v3.61A6.051,6.051,0,0,0,28.564,75.46H32.8v4.922H21.717a3.312,3.312,0,0,0-3.308,3.308V86.04h-.022a3.312,3.312,0,0,0-3.308,3.308v5.084A2.366,2.366,0,0,0,17.441,96.8H95.367a2.363,2.363,0,0,0,2.363-2.363V57.466h2.283a6.159,6.159,0,0,0,0-12.318ZM58.546,49.492h9.663v3.629H58.546Zm-6.034-1.508h3.2V54.63h-3.2Zm-8.751,1.508h5.915v3.629H43.761ZM25.349,33.2a3.219,3.219,0,0,1,3.215-3.215H40.417a3.215,3.215,0,0,1,0,6.431H28.564A3.219,3.219,0,0,1,25.349,33.2Zm3.18,24.442a.473.473,0,0,1-.473-.473V45.439a.473.473,0,0,1,.473-.473H40.452a.473.473,0,0,1,.473.473V57.174a.473.473,0,0,1-.473.473Zm10.793,2.836v2.875H29.659V60.483ZM29.659,42.131V39.256h9.663v2.875ZM28.564,72.625a3.215,3.215,0,0,1,0-6.431H40.417a3.215,3.215,0,0,1,0,6.431Zm22.5,21.335H17.914V89.348a.473.473,0,0,1,.473-.473h8.776a1.418,1.418,0,1,0,0-2.836H21.244V83.691a.473.473,0,0,1,.473-.473H47.264a.473.473,0,0,1,.473.473V86.04H33.78a1.418,1.418,0,0,0,0,2.836H50.594a.473.473,0,0,1,.473.473Zm43.827,0H53.9V89.348a3.312,3.312,0,0,0-3.308-3.308h-.022V83.691a3.312,3.312,0,0,0-3.308-3.308H35.635V75.46h4.782a6.051,6.051,0,0,0,1.741-11.846V60a3.306,3.306,0,0,0,1.6-2.83V55.957h6.078a2.365,2.365,0,0,0,2.2,1.508h4.143a2.365,2.365,0,0,0,2.2-1.508h10.03A2.5,2.5,0,0,0,70.7,57.466h24.19V93.959Z" transform="translate(-15.078 0)"/>
        <path id="Trazado_735979" data-name="Trazado 735979" d="M202.872,61.291a14.684,14.684,0,1,0,14.684-14.684A14.7,14.7,0,0,0,202.872,61.291Zm26.531,0a11.848,11.848,0,1,1-11.848-11.848A11.861,11.861,0,0,1,229.4,61.291Z" transform="translate(-167.369 -37.796)"/>
        <path id="Trazado_735980" data-name="Trazado 735980" d="M248.764,103.973a1.418,1.418,0,1,0-2.005,2.005l4.361,4.361a1.418,1.418,0,0,0,2.005,0l6.76-6.76a1.418,1.418,0,0,0-2.005-2.005l-5.757,5.758Z" transform="translate(-202.622 -82.035)"/>
        <path id="Trazado_735981" data-name="Trazado 735981" d="M243.681,328.487A1.418,1.418,0,0,0,245.1,329.9h26.076a1.418,1.418,0,0,0,0-2.836H245.1A1.418,1.418,0,0,0,243.681,328.487Z" transform="translate(-200.463 -265.236)"/>
        <path id="Trazado_735982" data-name="Trazado 735982" d="M325.361,363.546H311.918a1.418,1.418,0,0,0,0,2.836h13.444a1.418,1.418,0,0,0,0-2.836Z" transform="translate(-254.65 -294.817)"/>
        <path id="Trazado_735983" data-name="Trazado 735983" d="M245.1,366.382h7.717a1.418,1.418,0,1,0,0-2.836H245.1a1.418,1.418,0,0,0,0,2.836Z" transform="translate(-200.463 -294.817)"/>
        <path id="Trazado_735984" data-name="Trazado 735984" d="M271.174,400.023H245.1a1.418,1.418,0,1,0,0,2.836h26.076a1.418,1.418,0,1,0,0-2.836Z" transform="translate(-200.462 -324.397)"/>
        <path id="Trazado_735985" data-name="Trazado 735985" d="M353.745,436.5h-6.827a1.418,1.418,0,1,0,0,2.836h6.827a1.418,1.418,0,0,0,0-2.836Z" transform="translate(-283.033 -353.978)"/>
        <path id="Trazado_735986" data-name="Trazado 735986" d="M260,436.5H245.1a1.418,1.418,0,0,0,0,2.836H260a1.418,1.418,0,1,0,0-2.836Z" transform="translate(-200.463 -353.978)"/>
      </g>
    </g>
  </g>
</svg>
