<svg xmlns="http://www.w3.org/2000/svg" width="295" height="140" viewBox="0 0 295 140">
  <g id="Grupo_971759" data-name="Grupo 971759" transform="translate(-285 -1118)">
    <rect id="Rectángulo_342454" data-name="Rectángulo 342454" width="295" height="140" transform="translate(285 1118)" fill="#ecf7f4"/>
    <g id="_011---Completed-Task-List" data-name="011---Completed-Task-List" transform="translate(456 1145)">
      <path id="Path" d="M58.333,41.563V12.223a2.875,2.875,0,0,0-.846-2.035L49.146,1.846A2.875,2.875,0,0,0,47.11,1H5.3A4.3,4.3,0,0,0,1,5.3V66.933a4.3,4.3,0,0,0,4.3,4.3H42.925Z" transform="translate(0.433 0.433)" fill="#fdf8e4"/>
      <rect id="Rectangle" width="14" height="14" rx="2" transform="translate(9 10)" fill="#feb12e"/>
      <rect id="Rectangle-2" data-name="Rectangle" width="14" height="14" rx="2" transform="translate(9 30)" fill="#badc61"/>
      <rect id="Rectangle-3" data-name="Rectangle" width="14" height="15" rx="2" transform="translate(9 50)" fill="#feb12e"/>
      <circle id="Oval" cx="21.5" cy="21.5" r="21.5" transform="translate(42 42)" fill="#52c194"/>
      <path id="Path-2" data-name="Path" d="M43.775,10.955H38.3a4.3,4.3,0,0,1-4.3-4.3V1.18a2.891,2.891,0,0,1,.846.588l8.342,8.342A2.891,2.891,0,0,1,43.775,10.955Z" transform="translate(14.733 0.511)" fill="#8e95a0"/>
      <g id="Grupo_971677" data-name="Grupo 971677" transform="translate(0 0)">
        <path id="Shape" d="M63.067,40.133a22.79,22.79,0,0,0-2.867.2V12.656a4.3,4.3,0,0,0-.364-1.72c-.014-.034-.036-.063-.052-.095a4.316,4.316,0,0,0-.85-1.234L50.6,1.266a4.316,4.316,0,0,0-1.238-.85C49.327.4,49.3.378,49.264.364A4.3,4.3,0,0,0,47.544,0H5.733A5.733,5.733,0,0,0,0,5.733V67.367A5.733,5.733,0,0,0,5.733,73.1H37.267a1.433,1.433,0,1,0,0-2.867H5.733a2.867,2.867,0,0,1-2.867-2.867V5.733A2.867,2.867,0,0,1,5.733,2.867H47.3v4.3A5.733,5.733,0,0,0,53.033,12.9h4.3V40.889A22.92,22.92,0,1,0,76.827,81.413a1.433,1.433,0,0,0-1.72-2.293,20.067,20.067,0,1,1,4.013-4.013,1.433,1.433,0,0,0,2.293,1.72A22.933,22.933,0,0,0,63.067,40.133Zm-10.033-30.1a2.867,2.867,0,0,1-2.867-2.867V4.893l5.14,5.14Z" transform="translate(0 0)" fill="#2b2b2b"/>
        <path id="Shape-2" data-name="Shape" d="M26.08,5.42a1.433,1.433,0,0,0-2.027,0L21.318,8.153A4.278,4.278,0,0,0,17.9,6.433H9.3a4.3,4.3,0,0,0-4.3,4.3v8.6a4.3,4.3,0,0,0,4.3,4.3h8.6a4.3,4.3,0,0,0,4.3-4.3V11.327l3.88-3.88a1.433,1.433,0,0,0,0-2.027ZM19.333,19.333A1.433,1.433,0,0,1,17.9,20.767H9.3a1.433,1.433,0,0,1-1.433-1.433v-8.6A1.433,1.433,0,0,1,9.3,9.3h8.6a1.425,1.425,0,0,1,1.333.94l-4.2,4.2L13.18,12.587a1.433,1.433,0,0,0-2.027,2.027L14.02,17.48a1.433,1.433,0,0,0,2.027,0l3.287-3.287Z" transform="translate(2.167 2.167)" fill="#2b2b2b"/>
        <path id="Shape-3" data-name="Shape" d="M26.08,19.42a1.433,1.433,0,0,0-2.027,0l-2.735,2.733a4.279,4.279,0,0,0-3.418-1.72H9.3a4.3,4.3,0,0,0-4.3,4.3v8.6a4.3,4.3,0,0,0,4.3,4.3h8.6a4.3,4.3,0,0,0,4.3-4.3V25.327l3.88-3.88a1.433,1.433,0,0,0,0-2.027ZM19.333,33.333A1.433,1.433,0,0,1,17.9,34.767H9.3a1.433,1.433,0,0,1-1.433-1.433v-8.6A1.433,1.433,0,0,1,9.3,23.3h8.6a1.425,1.425,0,0,1,1.333.94l-4.2,4.2L13.18,26.587a1.433,1.433,0,0,0-2.027,2.027L14.02,31.48a1.433,1.433,0,0,0,2.027,0l3.287-3.287Z" transform="translate(2.167 8.233)" fill="#2b2b2b"/>
        <path id="Shape-4" data-name="Shape" d="M24.053,33.415l-2.735,2.733a4.279,4.279,0,0,0-3.418-1.72H9.3a4.3,4.3,0,0,0-4.3,4.3v8.6a4.3,4.3,0,0,0,4.3,4.3h8.6a4.3,4.3,0,0,0,4.3-4.3V39.321l3.88-3.88a1.433,1.433,0,0,0-2.027-2.027Zm-4.72,13.913A1.433,1.433,0,0,1,17.9,48.761H9.3a1.433,1.433,0,0,1-1.433-1.433v-8.6A1.433,1.433,0,0,1,9.3,37.295h8.6a1.425,1.425,0,0,1,1.333.94l-4.2,4.2L13.18,40.581a1.433,1.433,0,0,0-2.027,2.027l2.867,2.867a1.433,1.433,0,0,0,2.027,0l3.287-3.287Z" transform="translate(2.167 14.305)" fill="#2b2b2b"/>
        <path id="Path-3" data-name="Path" d="M54.423,36.656,42.484,55.227l-3.043-3.043a1.433,1.433,0,0,0-2.027,2.027l4.3,4.3a1.433,1.433,0,0,0,1.013.42,1.351,1.351,0,0,0,.152-.009,1.433,1.433,0,0,0,1.054-.649l12.9-20.067a1.433,1.433,0,0,0-2.411-1.551Z" transform="translate(16.039 15.602)" fill="#2b2b2b"/>
        <path id="Path-4" data-name="Path" d="M23.433,10.867H33.467a1.433,1.433,0,0,0,0-2.867H23.433a1.433,1.433,0,0,0,0,2.867Z" transform="translate(9.533 3.467)" fill="#2b2b2b"/>
        <path id="Path-5" data-name="Path" d="M23.433,15.867h8.6a1.433,1.433,0,1,0,0-2.867h-8.6a1.433,1.433,0,0,0,0,2.867Z" transform="translate(9.533 5.633)" fill="#2b2b2b"/>
        <path id="Path-6" data-name="Path" d="M23.433,24.867H42.067a1.433,1.433,0,1,0,0-2.867H23.433a1.433,1.433,0,0,0,0,2.867Z" transform="translate(9.533 9.533)" fill="#2b2b2b"/>
        <path id="Path-7" data-name="Path" d="M23.433,29.867h8.6a1.433,1.433,0,1,0,0-2.867h-8.6a1.433,1.433,0,0,0,0,2.867Z" transform="translate(9.533 11.7)" fill="#2b2b2b"/>
        <path id="Path-8" data-name="Path" d="M29.167,37.433A1.433,1.433,0,0,0,27.733,36h-4.3a1.433,1.433,0,0,0,0,2.867h4.3A1.433,1.433,0,0,0,29.167,37.433Z" transform="translate(9.533 15.6)" fill="#2b2b2b"/>
        <path id="Path-9" data-name="Path" d="M23.433,41a1.433,1.433,0,0,0,0,2.867H26.3A1.433,1.433,0,1,0,26.3,41Z" transform="translate(9.533 17.767)" fill="#2b2b2b"/>
      </g>
    </g>
  </g>
</svg>
