<svg xmlns="http://www.w3.org/2000/svg" xmlns:xlink="http://www.w3.org/1999/xlink" width="116" height="116" viewBox="0 0 116 116">
  <defs>
    <clipPath id="clip-path">
      <path id="path3732" d="M0-682.665H74v74H0Z" transform="translate(0 682.665)"/>
    </clipPath>
  </defs>
  <g id="Grupo_971743" data-name="Grupo 971743" transform="translate(-485 -3239)">
    <circle id="Elipse_6760" data-name="Elipse 6760" cx="58" cy="58" r="58" transform="translate(485 3239)" fill="#fff"/>
    <g id="g3726" transform="translate(506 3941.665)">
      <g id="g3728" transform="translate(0 -682.665)">
        <g id="g3730" clip-path="url(#clip-path)">
          <g id="g3736" transform="translate(15.237 1.084)">
            <path id="path3738" d="M-378.3-549.571h-43.444a2.549,2.549,0,0,1-2.549-2.549v-61.717a2.549,2.549,0,0,1,2.549-2.549H-378.3a2.549,2.549,0,0,1,2.549,2.549v61.717a2.549,2.549,0,0,1-2.549,2.549" transform="translate(424.296 616.386)" fill="#f6b84d"/>
          </g>
          <g id="g3740" transform="translate(10.221 6.101)">
            <path id="path3742" d="M-378.3-549.571h-43.444a2.549,2.549,0,0,1-2.549-2.549v-61.717a2.549,2.549,0,0,1,2.549-2.549H-378.3a2.549,2.549,0,0,1,2.549,2.549v61.717a2.549,2.549,0,0,1-2.549,2.549" transform="translate(424.296 616.386)" fill="#c8effe"/>
          </g>
          <g id="g3744" transform="translate(50.886 6.101)">
            <path id="path3746" d="M-43.823,0h-5.328A2.549,2.549,0,0,1-46.6,2.549V64.266a2.549,2.549,0,0,1-2.549,2.549h5.328a2.549,2.549,0,0,0,2.549-2.549V2.549A2.549,2.549,0,0,0-43.823,0" transform="translate(49.151)" fill="#a8d3d8"/>
          </g>
          <g id="g3748" transform="translate(37.404 15.66)">
            <path id="path3750" d="M-123.566-16.587h-14.015a1.008,1.008,0,0,1-1.008-1.008,1.008,1.008,0,0,1,1.008-1.008h14.015a1.008,1.008,0,0,1,1.008,1.008,1.008,1.008,0,0,1-1.008,1.008" transform="translate(138.589 18.604)" fill="#3e5959"/>
          </g>
          <g id="g3752" transform="translate(37.404 20.377)">
            <path id="path3754" d="M-123.566-16.586h-14.015a1.008,1.008,0,0,1-1.008-1.008,1.008,1.008,0,0,1,1.008-1.008h14.015a1.008,1.008,0,0,1,1.008,1.008,1.008,1.008,0,0,1-1.008,1.008" transform="translate(138.589 18.603)" fill="#3e5959"/>
          </g>
          <g id="g3756" transform="translate(37.404 25.094)">
            <path id="path3758" d="M-123.566-16.587h-14.015a1.008,1.008,0,0,1-1.008-1.008,1.008,1.008,0,0,1,1.008-1.008h14.015a1.008,1.008,0,0,1,1.008,1.008,1.008,1.008,0,0,1-1.008,1.008" transform="translate(138.589 18.604)" fill="#3e5959"/>
          </g>
          <g id="g3760" transform="translate(38.39 51.417)">
            <path id="path3762" d="M-115.453-16.586h-13.028a1.008,1.008,0,0,1-1.008-1.008,1.008,1.008,0,0,1,1.008-1.008h13.028a1.008,1.008,0,0,1,1.008,1.008,1.008,1.008,0,0,1-1.008,1.008" transform="translate(129.489 18.603)" fill="#3e5959"/>
          </g>
          <g id="g3764" transform="translate(15.548 41.579)">
            <path id="path3766" d="M-123.566-16.587h-14.015a1.008,1.008,0,0,1-1.008-1.008,1.008,1.008,0,0,1,1.008-1.008h14.015a1.008,1.008,0,0,1,1.008,1.008,1.008,1.008,0,0,1-1.008,1.008" transform="translate(138.589 18.604)" fill="#3e5959"/>
          </g>
          <g id="g3768" transform="translate(15.548 36.862)">
            <path id="path3770" d="M-123.566-16.586h-14.015a1.008,1.008,0,0,1-1.008-1.008,1.008,1.008,0,0,1,1.008-1.008h14.015a1.008,1.008,0,0,1,1.008,1.008,1.008,1.008,0,0,1-1.008,1.008" transform="translate(138.589 18.603)" fill="#3e5959"/>
          </g>
          <g id="g3772" transform="translate(24.915 11.591)">
            <path id="path3774" d="M0,0V9.366H9.366A9.366,9.366,0,0,0,0,0" fill="#ee6161"/>
          </g>
          <g id="g3776" transform="translate(15.549 11.591)">
            <path id="path3778" d="M-77.035,0A9.366,9.366,0,0,0-86.4,9.366a9.366,9.366,0,0,0,9.366,9.366A9.366,9.366,0,0,0-67.67,9.366h-9.366Z" transform="translate(86.401)" fill="#fea95c"/>
          </g>
          <g id="g3780" transform="translate(35.254 34.717)">
            <path id="path3782" d="M-144.018-90.673h-16.837a.672.672,0,0,1-.672-.672v-9.68a.672.672,0,0,1,.672-.672h16.837a.672.672,0,0,1,.672.672v9.68a.672.672,0,0,1-.672.672" transform="translate(161.528 101.697)" fill="#ee6161"/>
          </g>
          <g id="g3784" transform="translate(15.548 49.658)">
            <path id="path3786" d="M-29.754-132H-32.7a.672.672,0,0,1-.672-.672v-14.7a.672.672,0,0,1,.672-.672h2.945a.672.672,0,0,1,.672.672v14.7a.672.672,0,0,1-.672.672" transform="translate(33.372 148.048)" fill="#fe7701"/>
          </g>
          <g id="g3788" transform="translate(23.551 53.516)">
            <path id="path3790" d="M-29.754-100.267H-32.7a.672.672,0,0,1-.672-.672v-10.846a.672.672,0,0,1,.672-.672h2.945a.672.672,0,0,1,.672.672v10.846a.672.672,0,0,1-.672.672" transform="translate(33.372 112.457)" fill="#fe9738"/>
          </g>
          <g id="g3792" transform="translate(31.554 58.323)">
            <path id="path3794" d="M-29.756-60.731H-32.7a.672.672,0,0,1-.672-.672v-6.039a.672.672,0,0,1,.672-.672h2.945a.672.672,0,0,1,.672.672V-61.4a.672.672,0,0,1-.672.672" transform="translate(33.373 68.115)" fill="#fea95c"/>
          </g>
          <g id="g3796" transform="translate(38.39 56.372)">
            <path id="path3798" d="M-115.453-16.586h-13.028a1.008,1.008,0,0,1-1.008-1.008,1.008,1.008,0,0,1,1.008-1.008h13.028a1.008,1.008,0,0,1,1.008,1.008,1.008,1.008,0,0,1-1.008,1.008" transform="translate(129.489 18.603)" fill="#3e5959"/>
          </g>
          <g id="g3800" transform="translate(38.39 61.326)">
            <path id="path3802" d="M-115.453-16.586h-13.028a1.008,1.008,0,0,1-1.008-1.008,1.008,1.008,0,0,1,1.008-1.008h13.028a1.008,1.008,0,0,1,1.008,1.008,1.008,1.008,0,0,1-1.008,1.008" transform="translate(129.489 18.603)" fill="#3e5959"/>
          </g>
          <g id="g3804" transform="translate(37.404 15.66)">
            <path id="path3806" d="M-8.294-16.587H5.72A1.008,1.008,0,0,0,6.729-17.6,1.008,1.008,0,0,0,5.72-18.6H-8.294A1.008,1.008,0,0,0-9.3-17.6a1.008,1.008,0,0,0,1.008,1.008" transform="translate(9.303 18.604)"/>
          </g>
          <g id="g3808" transform="translate(37.404 20.377)">
            <path id="path3810" d="M0-8.294A1.008,1.008,0,0,0,1.008-7.286H15.023a1.008,1.008,0,0,0,1.008-1.008A1.008,1.008,0,0,0,15.023-9.3H1.008A1.008,1.008,0,0,0,0-8.294" transform="translate(0 9.303)"/>
          </g>
          <g id="g3812" transform="translate(37.404 25.094)">
            <path id="path3814" d="M-8.294-16.587H5.72A1.008,1.008,0,0,0,6.729-17.6,1.008,1.008,0,0,0,5.72-18.6H-8.294A1.008,1.008,0,0,0-9.3-17.6a1.008,1.008,0,0,0,1.008,1.008" transform="translate(9.303 18.604)"/>
          </g>
          <g id="g3816" transform="translate(38.39 51.417)">
            <path id="path3818" d="M-123.746-8.293A1.008,1.008,0,0,0-124.754-9.3h-13.028a1.008,1.008,0,0,0-1.008,1.008,1.008,1.008,0,0,0,1.008,1.008h13.028a1.008,1.008,0,0,0,1.008-1.008" transform="translate(138.79 9.301)"/>
          </g>
          <g id="g3820" transform="translate(15.548 41.579)">
            <path id="path3822" d="M-131.859-8.293A1.008,1.008,0,0,0-132.867-9.3h-14.015a1.008,1.008,0,0,0-1.008,1.008,1.008,1.008,0,0,0,1.008,1.008h14.015a1.008,1.008,0,0,0,1.008-1.008" transform="translate(147.89 9.301)"/>
          </g>
          <g id="g3824" transform="translate(15.548 36.862)">
            <path id="path3826" d="M-8.294-16.586H5.72a1.008,1.008,0,0,0,1.008-1.008A1.008,1.008,0,0,0,5.72-18.6H-8.294A1.008,1.008,0,0,0-9.3-17.594a1.008,1.008,0,0,0,1.008,1.008" transform="translate(9.303 18.603)"/>
          </g>
          <g id="g3828" transform="translate(14.465 10.507)">
            <path id="path3830" d="M-94.867-77.035v-7.127a8.3,8.3,0,0,1,7.127,7.127Zm-1.084,9.366a8.291,8.291,0,0,1-8.282-8.282,8.3,8.3,0,0,1,7.2-8.211v8.211a1.084,1.084,0,0,0,1.084,1.084h8.211a8.3,8.3,0,0,1-8.211,7.2m0-18.732a10.462,10.462,0,0,0-10.45,10.45A10.462,10.462,0,0,0-95.951-65.5,10.462,10.462,0,0,0-85.5-75.951,10.462,10.462,0,0,0-95.951-86.4" transform="translate(106.401 86.401)"/>
          </g>
          <path id="path3832" d="M317.39-370.228H333.4v8.856H317.39Zm-2.168-.412v9.679a1.758,1.758,0,0,0,1.756,1.756h16.837a1.758,1.758,0,0,0,1.756-1.756v-9.679a1.758,1.758,0,0,0-1.756-1.756H316.978a1.758,1.758,0,0,0-1.756,1.756" transform="translate(-281.052 406.029)"/>
          <path id="path3834" d="M135.6-232.389h2.122v13.88H135.6ZM133.437-218.1a1.758,1.758,0,0,0,1.756,1.756h2.945a1.758,1.758,0,0,0,1.756-1.756v-14.7a1.758,1.758,0,0,0-1.756-1.756h-2.945a1.758,1.758,0,0,0-1.756,1.756Z" transform="translate(-118.973 283.131)"/>
          <path id="path3836" d="M211.553-186.776h-2.122V-196.8h2.122Zm-2.533-12.19a1.758,1.758,0,0,0-1.756,1.756v10.846a1.758,1.758,0,0,0,1.756,1.756h2.945a1.758,1.758,0,0,0,1.756-1.756V-197.21a1.758,1.758,0,0,0-1.756-1.756Z" transform="translate(-184.796 251.398)"/>
          <path id="path3838" d="M283.258-152.457h2.122v5.216h-2.122Zm-.412,7.384h2.945a1.758,1.758,0,0,0,1.756-1.756v-6.039a1.758,1.758,0,0,0-1.756-1.756h-2.945a1.758,1.758,0,0,0-1.756,1.756v6.039a1.758,1.758,0,0,0,1.756,1.756" transform="translate(-250.62 211.864)"/>
          <g id="g3840" transform="translate(38.39 56.371)">
            <path id="path3842" d="M-115.453,0h-13.028a1.008,1.008,0,0,0-1.008,1.008,1.008,1.008,0,0,0,1.008,1.008h13.028a1.008,1.008,0,0,0,1.008-1.008A1.008,1.008,0,0,0-115.453,0" transform="translate(129.489)"/>
          </g>
          <g id="g3844" transform="translate(38.39 61.326)">
            <path id="path3846" d="M-115.453,0h-13.028a1.008,1.008,0,0,0-1.008,1.008,1.008,1.008,0,0,0,1.008,1.008h13.028a1.008,1.008,0,0,0,1.008-1.008A1.008,1.008,0,0,0-115.453,0" transform="translate(129.489)"/>
          </g>
          <g id="g3848" transform="translate(9.137 0)">
            <path id="path3850" d="M-449.449-110.545a1.084,1.084,0,0,0,1.084-1.084v-8.723A3.637,3.637,0,0,0-452-123.985h-43.444a3.637,3.637,0,0,0-3.633,3.633v1.383h-1.383a3.637,3.637,0,0,0-3.633,3.633v46.44a1.084,1.084,0,0,0,1.084,1.084,1.084,1.084,0,0,0,1.084-1.084v-46.44a1.467,1.467,0,0,1,1.465-1.465h43.444a1.467,1.467,0,0,1,1.465,1.465v61.717a1.467,1.467,0,0,1-1.465,1.465h-43.444a1.467,1.467,0,0,1-1.465-1.465V-63.836a1.084,1.084,0,0,0-1.084-1.084,1.084,1.084,0,0,0-1.084,1.084v10.218a3.637,3.637,0,0,0,3.633,3.633h43.444a3.637,3.637,0,0,0,3.633-3.633V-55H-452a3.637,3.637,0,0,0,3.633-3.633v-47.936a1.084,1.084,0,0,0-1.084-1.084,1.084,1.084,0,0,0-1.084,1.084v47.936A1.467,1.467,0,0,1-452-57.17h-1.383v-58.166a3.637,3.637,0,0,0-3.633-3.633h-39.893v-1.383a1.467,1.467,0,0,1,1.465-1.465H-452a1.467,1.467,0,0,1,1.465,1.465v8.723a1.084,1.084,0,0,0,1.084,1.084" transform="translate(504.092 123.985)"/>
          </g>
        </g>
      </g>
    </g>
  </g>
</svg>
