<svg xmlns="http://www.w3.org/2000/svg" width="116" height="116" viewBox="0 0 116 116">
  <g id="Grupo_971742" data-name="Grupo 971742" transform="translate(-1005 -3239)">
    <circle id="Elipse_6761" data-name="Elipse 6761" cx="58" cy="58" r="58" transform="translate(1005 3239)" fill="#fff"/>
    <g id="zzz" transform="translate(1022 3256)">
      <path id="Trazado_736066" data-name="Trazado 736066" d="M87.1,47.3A39.8,39.8,0,1,1,47.3,7.5,39.8,39.8,0,0,1,87.1,47.3Zm0,0" transform="translate(-6.299 -6.299)" fill="#c3ddff"/>
      <path id="Trazado_736067" data-name="Trazado 736067" d="M7.5,78.2a39.807,39.807,0,0,0,28.891,38.273c10.106-3.633,11.959-11.731,10.266-17.01-1.364-4.252-6.5-6.66-12.945-4.573-7.9,2.557-13.524,1.213-16.583-1.846a7.036,7.036,0,0,1-.788-8.494,8.8,8.8,0,0,1,5.868-4.173c5.661-1.246,22.229-5.414,22.362-11.512.109-4.989-3.61-8.045-12.677-12.155-6.026-2.731-7.691-8.423-5.434-12.418A39.768,39.768,0,0,0,7.5,78.2Zm0,0" transform="translate(-6.299 -37.196)" fill="#ccf49f"/>
      <path id="Trazado_736068" data-name="Trazado 736068" d="M53.718,125.971A39.788,39.788,0,0,1,22.557,61.43a39.791,39.791,0,1,0,55.9,55.9A39.616,39.616,0,0,1,53.718,125.971Zm0,0" transform="translate(-6.299 -51.591)" fill="#a4ccff"/>
      <path id="Trazado_736069" data-name="Trazado 736069" d="M21.926,110.115a10.629,10.629,0,0,1-4.8-2.676,6.949,6.949,0,0,1-.972-8.1,39.777,39.777,0,0,1,6.4-37.9,39.787,39.787,0,0,0,13.835,69.434,17.112,17.112,0,0,0,8.365-5.919A39.814,39.814,0,0,1,21.926,110.115Zm0,0" transform="translate(-6.299 -51.595)" fill="#b3e59f"/>
      <path id="Trazado_736070" data-name="Trazado 736070" d="M192.471,7.5a39.836,39.836,0,0,0-10.485,1.406c-4.858,8.392,2.033,13,9.041,13.506,8.907.646,14.913-6.474,19.525-.457,3.552,4.634-8.926,9.587-5.548,16.358l-3.44,18.631a7.4,7.4,0,0,0,.7,5.789c3.691,6.051,15.032-1.815,12.57,7.528-1.249,4.741-1.5,8.189-1.152,10.71A39.794,39.794,0,0,0,192.471,7.5Zm0,0" transform="translate(-151.471 -6.299)" fill="#ccf49f"/>
      <path id="Trazado_736071" data-name="Trazado 736071" d="M131,212.412H84.78a5.135,5.135,0,0,1-5.136-5.136V197.006a5.135,5.135,0,0,1,5.136-5.135H131a5.135,5.135,0,0,1,5.136,5.135v10.271A5.135,5.135,0,0,1,131,212.412Zm0,0" transform="translate(-66.889 -161.142)" fill="#fff"/>
      <path id="Trazado_736072" data-name="Trazado 736072" d="M387.572,416.521a17.469,17.469,0,0,0,.12,3.092,40.037,40.037,0,0,0,9.9-8.891A39.844,39.844,0,0,1,387.572,416.521Zm0,0" transform="translate(-325.483 -344.943)" fill="#b3e59f"/>
      <path id="Trazado_736073" data-name="Trazado 736073" d="M88.631,209.513a5.136,5.136,0,0,1-5.136-5.136V193a5.123,5.123,0,0,0-3.851,4.954v10.271a5.135,5.135,0,0,0,5.136,5.136H131a5.124,5.124,0,0,0,4.954-3.851Zm0,0" transform="translate(-66.889 -162.093)" fill="#edf4ff"/>
      <path id="Trazado_736074" data-name="Trazado 736074" d="M118.708,224.541a1.2,1.2,0,0,0-1.571.647l-2.1,5.042-2.1-5.042a1.2,1.2,0,0,0-2.218,0l-2.1,5.042-2.1-5.042a1.2,1.2,0,0,0-2.218.924l3.209,7.7a1.2,1.2,0,0,0,2.218,0l2.1-5.042,2.1,5.042a1.2,1.2,0,0,0,2.218,0l3.209-7.7A1.2,1.2,0,0,0,118.708,224.541Zm0,0" transform="translate(-87.517 -188.501)"/>
      <path id="Trazado_736075" data-name="Trazado 736075" d="M222.917,224.541a1.2,1.2,0,0,0-1.571.647l-2.1,5.042-2.1-5.042a1.2,1.2,0,0,0-2.218,0l-2.1,5.042-2.1-5.042a1.2,1.2,0,0,0-2.218.924l3.21,7.7a1.2,1.2,0,0,0,2.218,0l2.1-5.042,2.1,5.042a1.2,1.2,0,0,0,2.218,0l3.209-7.7A1.2,1.2,0,0,0,222.917,224.541Zm0,0" transform="translate(-175.036 -188.501)"/>
      <path id="Trazado_736076" data-name="Trazado 736076" d="M324.565,233.815l3.21-7.7a1.2,1.2,0,0,0-2.218-.924l-2.1,5.042-2.1-5.042a1.2,1.2,0,0,0-2.218,0l-2.1,5.042-2.1-5.042a1.2,1.2,0,1,0-2.218.924l3.21,7.7a1.2,1.2,0,0,0,2.218,0l2.1-5.042,2.1,5.042a1.2,1.2,0,0,0,2.217,0Zm0,0" transform="translate(-262.557 -188.501)"/>
      <path id="Trazado_736077" data-name="Trazado 736077" d="M69.991,12.009A41,41,0,0,0,12.009,69.991,41,41,0,0,0,69.991,12.009Zm-41.45-.421c1.684,3.223,5.871,5.452,10.928,5.816A25.425,25.425,0,0,0,49.464,15.7c4.355-1.41,6.542-1.964,8.666.788.79,1.024.583,1.8-2.246,4.625-2.08,2.08-4.836,4.838-3.977,8.419H39.458c-.368-4.865-5.086-7.762-13.4-11.222-4.569-1.9-5.452-4.945-5.62-6.165a5.4,5.4,0,0,1,2.131-5.049c.024-.018.045-.038.067-.058a38.032,38.032,0,0,1,5.721-2.519A8.427,8.427,0,0,0,28.541,11.588ZM33.8,78.929a15.4,15.4,0,0,0,7.075-6.948A13.853,13.853,0,0,0,41.5,61.9a8.552,8.552,0,0,0-4.319-4.989,13.267,13.267,0,0,0-10.139-.361c-6.631,2.146-12.231,1.58-15.364-1.552a5.361,5.361,0,0,1-1.485-4.581,6.874,6.874,0,0,1,1.425-3.38,6.345,6.345,0,0,0,6.272,5.438h30.78a7.425,7.425,0,0,0,1.11,4.989c2.023,3.122,5.721,3.026,8.693,2.95,1.577-.041,3.363-.087,3.825.505.3.388.267,1.356-.1,2.656A26.906,26.906,0,0,0,60.995,74.03,38.35,38.35,0,0,1,41,79.6,38.979,38.979,0,0,1,33.8,78.929Zm34.49-10.636a39.042,39.042,0,0,1-5.018,4.239,27.7,27.7,0,0,1,1.242-8.313c.613-2.192.511-3.71-.322-4.78-1.207-1.548-3.429-1.491-5.782-1.431-2.618.068-5.325.138-6.615-1.854a5.049,5.049,0,0,1-.706-3.682h6.6a1.2,1.2,0,0,0,0-2.4h-39.8a3.939,3.939,0,0,1-3.934-3.934V35.865a3.939,3.939,0,0,1,3.934-3.934h1.284a1.2,1.2,0,0,0,0-2.4H17.891a6.344,6.344,0,0,0-6.337,6.337v7.972A9.131,9.131,0,0,0,7.812,50.11,7.715,7.715,0,0,0,9.98,56.693c3.794,3.794,10.282,4.573,17.8,2.139a10.915,10.915,0,0,1,8.3.213,6.091,6.091,0,0,1,3.128,3.585,11.43,11.43,0,0,1-.505,8.318C37.2,74.125,34.233,76.49,29.9,77.985a38.613,38.613,0,0,1-16.2-64.278,39.146,39.146,0,0,1,4.416-3.8,7.776,7.776,0,0,0-.068,2.564c.474,3.446,3.054,6.383,7.078,8.057,8.29,3.448,11.534,5.843,11.91,9H24.311a1.2,1.2,0,0,0,0,2.4h39.8a3.939,3.939,0,0,1,3.934,3.934V46.135a3.939,3.939,0,0,1-3.934,3.934H62.824a1.2,1.2,0,0,0,0,2.4h1.284a6.344,6.344,0,0,0,6.337-6.337V35.864a6.344,6.344,0,0,0-6.337-6.336H54.422c-.928-2.372.666-4.227,3.16-6.72,2.128-2.128,4.776-4.775,2.449-7.791-3.251-4.213-7.164-2.947-11.307-1.606a23.49,23.49,0,0,1-9.083,1.6c-4.233-.305-7.671-2.042-8.971-4.533-1-1.907-.737-4.223.763-6.884A38.863,38.863,0,0,1,41,2.4,38.6,38.6,0,0,1,68.293,68.293Zm0,0"/>
    </g>
  </g>
</svg>
