<svg xmlns="http://www.w3.org/2000/svg" width="50.019" height="47.415" viewBox="0 0 50.019 47.415">
  <g id="dominio" transform="translate(0 -13.455)">
    <g id="Grupo_971678" data-name="Grupo 971678" transform="translate(9.643 14.422)">
      <path id="Trazado_735987" data-name="Trazado 735987" d="M111.358,23.455A13.925,13.925,0,0,0,99.671,29.8a20.705,20.705,0,0,0,4.584,1.408c1.3-4.592,3.99-7.749,7.1-7.749Z" transform="translate(-99.671 -23.455)" fill="#98eaf9" fill-rule="evenodd"/>
    </g>
    <g id="Grupo_971679" data-name="Grupo 971679" transform="translate(14.227 14.422)">
      <path id="Trazado_735988" data-name="Trazado 735988" d="M154.152,31.844V23.455c-3.113,0-5.808,3.157-7.1,7.749A36.528,36.528,0,0,0,154.152,31.844Z" transform="translate(-147.048 -23.455)" fill="#cbf4fb" fill-rule="evenodd"/>
    </g>
    <g id="Grupo_971680" data-name="Grupo 971680" transform="translate(21.33 14.423)">
      <path id="Trazado_735989" data-name="Trazado 735989" d="M227.558,31.142c-1.3-4.556-3.985-7.686-7.085-7.686v8.389A35.749,35.749,0,0,0,227.558,31.142Z" transform="translate(-220.473 -23.456)" fill="#98eaf9" fill-rule="evenodd"/>
    </g>
    <g id="Grupo_971681" data-name="Grupo 971681" transform="translate(21.33 14.423)">
      <path id="Trazado_735990" data-name="Trazado 735990" d="M232.078,29.677a13.917,13.917,0,0,0-11.605-6.221c3.1,0,5.784,3.13,7.085,7.686A19.6,19.6,0,0,0,232.078,29.677Z" transform="translate(-220.473 -23.456)" fill="#cbf4fb" fill-rule="evenodd"/>
    </g>
    <g id="Grupo_971682" data-name="Grupo 971682" transform="translate(28.415 20.644)">
      <path id="Trazado_735991" data-name="Trazado 735991" d="M300.552,95.471a13.87,13.87,0,0,0-2.329-7.714,19.592,19.592,0,0,1-4.521,1.465,22.937,22.937,0,0,1,.839,6.248Z" transform="translate(-293.702 -87.757)" fill="#98eaf9" fill-rule="evenodd"/>
    </g>
    <g id="Grupo_971683" data-name="Grupo 971683" transform="translate(21.33 22.109)">
      <path id="Trazado_735992" data-name="Trazado 735992" d="M227.558,102.9a35.75,35.75,0,0,1-7.085.7v5.546H228.4A22.93,22.93,0,0,0,227.558,102.9Z" transform="translate(-220.473 -102.901)" fill="#cbf4fb" fill-rule="evenodd"/>
    </g>
    <g id="Grupo_971684" data-name="Grupo 971684" transform="translate(13.407 22.172)">
      <path id="Trazado_735993" data-name="Trazado 735993" d="M146.5,104.191a36.537,36.537,0,0,1-7.1-.64,22.957,22.957,0,0,0-.82,6.186H146.5Z" transform="translate(-138.573 -103.551)" fill="#98eaf9" fill-rule="evenodd"/>
    </g>
    <g id="Grupo_971685" data-name="Grupo 971685" transform="translate(7.396 20.764)">
      <path id="Trazado_735994" data-name="Trazado 735994" d="M83.278,90.409A20.7,20.7,0,0,1,78.694,89a13.873,13.873,0,0,0-2.247,7.593h6.01A22.957,22.957,0,0,1,83.278,90.409Z" transform="translate(-76.447 -89.001)" fill="#cbf4fb" fill-rule="evenodd"/>
    </g>
    <g id="Grupo_971686" data-name="Grupo 971686" transform="translate(7.396 28.357)">
      <path id="Trazado_735995" data-name="Trazado 735995" d="M82.963,172.4a23.5,23.5,0,0,1-.506-4.915h-6.01a13.888,13.888,0,0,0,.891,4.915Z" transform="translate(-76.447 -167.485)" fill="#98eaf9" fill-rule="evenodd"/>
    </g>
    <g id="Grupo_971687" data-name="Grupo 971687" transform="translate(13.407 28.357)">
      <path id="Trazado_735996" data-name="Trazado 735996" d="M146.5,167.485h-7.924a23.493,23.493,0,0,0,.506,4.915H146.5v-4.915Z" transform="translate(-138.573 -167.485)" fill="#cbf4fb" fill-rule="evenodd"/>
    </g>
    <g id="Grupo_971688" data-name="Grupo 971688" transform="translate(21.33 28.357)">
      <path id="Trazado_735997" data-name="Trazado 735997" d="M228.4,167.485h-7.924V172.4h7.415A23.5,23.5,0,0,0,228.4,167.485Z" transform="translate(-220.474 -167.485)" fill="#98eaf9" fill-rule="evenodd"/>
    </g>
    <g id="Grupo_971689" data-name="Grupo 971689" transform="translate(28.746 28.357)">
      <path id="Trazado_735998" data-name="Trazado 735998" d="M302.744,172.4a13.89,13.89,0,0,0,.894-4.915h-6.01a23.5,23.5,0,0,1-.508,4.915Z" transform="translate(-297.119 -167.485)" fill="#cbf4fb" fill-rule="evenodd"/>
    </g>
    <g id="Grupo_971690" data-name="Grupo 971690" transform="translate(0.967 33.272)">
      <path id="Trazado_735999" data-name="Trazado 735999" d="M11.263,218.282A1.267,1.267,0,0,0,10,219.545v15.424a1.267,1.267,0,0,0,1.263,1.266H46.724l4-1.271V219.545a1.267,1.267,0,0,0-1.265-1.263h-38.2Z" transform="translate(-10 -218.282)" fill="#feb12e" fill-rule="evenodd"/>
    </g>
    <g id="Grupo_971691" data-name="Grupo 971691" transform="translate(37.465 48.316)">
      <path id="Trazado_736000" data-name="Trazado 736000" d="M387.242,373.783l.681,8.706,2.389-2.389,5.27,5.27,1.624-1.624,1.624-1.624-5.27-5.27,2.389-2.389Z" transform="translate(-387.242 -373.783)" fill="#fff"/>
    </g>
    <g id="Grupo_971692" data-name="Grupo 971692" transform="translate(0 13.455)">
      <path id="Trazado_736001" data-name="Trazado 736001" d="M51.789,264.589l-.784,3.939-1.248-4.049a.967.967,0,0,0-1.869.079l-1.229,3.974-.782-3.955a.967.967,0,0,0-1.9.375s1.427,7.195,1.443,7.24a1.132,1.132,0,0,0,1.065.749H46.5a1.131,1.131,0,0,0,1.059-.773l.006-.02,1.268-4.1,1.264,4.1c0,.014.009.028.014.042a1.131,1.131,0,0,0,1.064.749h.013a1.13,1.13,0,0,0,1.058-.773c.013-.038,1.441-7.2,1.441-7.2a.968.968,0,0,0-1.9-.378Z" transform="translate(-39.706 -239.577)"/>
      <path id="Trazado_736002" data-name="Trazado 736002" d="M179.829,264.966a.967.967,0,0,0-1.9-.378l-.785,3.942-1.248-4.052a.967.967,0,0,0-1.869.079l-1.23,3.97-.782-3.952a.967.967,0,0,0-1.9.375s1.427,7.195,1.443,7.24a1.131,1.131,0,0,0,1.064.749h.013a1.13,1.13,0,0,0,1.058-.772l.006-.02,1.27-4.1,1.263,4.1c0,.014.009.028.014.042a1.132,1.132,0,0,0,1.065.749h.013a1.131,1.131,0,0,0,1.059-.773C178.4,272.13,179.829,264.966,179.829,264.966Z" transform="translate(-153.644 -239.576)"/>
      <path id="Trazado_736003" data-name="Trazado 736003" d="M298.762,272.939h.013a1.131,1.131,0,0,0,1.064-.749l.014-.042,1.263-4.1,1.27,4.1.006.02a1.129,1.129,0,0,0,1.058.772h.013a1.131,1.131,0,0,0,1.064-.749c.016-.045,1.443-7.24,1.443-7.24a.967.967,0,0,0-1.9-.375l-.782,3.952-1.23-3.97a.967.967,0,0,0-1.869-.079l-1.246,4.046-.784-3.937a.967.967,0,0,0-1.9.378s1.429,7.164,1.441,7.2a1.129,1.129,0,0,0,1.058.773Z" transform="translate(-267.583 -239.574)"/>
      <path id="Trazado_736004" data-name="Trazado 736004" d="M211.441,393.844a.967.967,0,1,0,0,1.935h0a.967.967,0,1,0,0-1.935Z" transform="translate(-190.111 -357.042)"/>
      <path id="Trazado_736005" data-name="Trazado 736005" d="M49.735,55.971,45.15,51.386l1.7-1.7a.967.967,0,0,0-.609-1.649l-3.585-.28V34.534a2.234,2.234,0,0,0-2.233-2.23H35.7a14.9,14.9,0,1,0-28.745,0H2.23A2.233,2.233,0,0,0,0,34.534V49.959a2.234,2.234,0,0,0,2.23,2.233H17a.967.967,0,0,0,0-1.935H2.23a.3.3,0,0,1-.3-.3V34.534a.3.3,0,0,1,.3-.3h38.2a.3.3,0,0,1,.3.3V47.6l-3.185-.249a.967.967,0,0,0-1.04,1.04l.146,1.865H25.66a.967.967,0,0,0,0,1.935H36.8l.384,4.905a.967.967,0,0,0,1.649.609l1.7-1.7,4.586,4.586a.967.967,0,0,0,1.368,0l3.247-3.247a.968.968,0,0,0,0-1.368ZM8.975,32.3a12.86,12.86,0,0,1-.576-2.98h4.06a24.6,24.6,0,0,0,.289,2.98Zm3.484-4.915H8.4a12.873,12.873,0,0,1,1.642-5.406,21.861,21.861,0,0,0,3,.921A24.038,24.038,0,0,0,12.459,27.39ZM11.15,20.334a13.047,13.047,0,0,1,4.649-3.7,12.949,12.949,0,0,0-.913,1.394,16.849,16.849,0,0,0-1.323,3.015A20.715,20.715,0,0,1,11.15,20.334ZM20.363,32.3H14.711a22.465,22.465,0,0,1-.316-2.98h5.968Zm0-4.915H14.394a21.946,21.946,0,0,1,.556-4.1,37.718,37.718,0,0,0,5.413.485Zm0-5.557a36.126,36.126,0,0,1-4.87-.419c1.082-3.1,2.853-5.341,4.87-5.891Zm1.935-6.31c2.007.547,3.768,2.762,4.852,5.84a35.565,35.565,0,0,1-4.852.462ZM27.947,32.3H22.3v-2.98h5.967a22.471,22.471,0,0,1-.318,2.98ZM22.3,27.39V23.762a37.183,37.183,0,0,0,5.4-.532,21.914,21.914,0,0,1,.569,4.16H22.3Zm5.476-9.365a12.95,12.95,0,0,0-.913-1.395,13.046,13.046,0,0,1,4.572,3.608,19.633,19.633,0,0,1-2.36.729A16.8,16.8,0,0,0,27.774,18.025ZM33.683,32.3H29.91a24.552,24.552,0,0,0,.291-2.98h4.059A12.869,12.869,0,0,1,33.683,32.3ZM30.2,27.39a24.008,24.008,0,0,0-.6-4.562,20.832,20.832,0,0,0,2.955-.955,12.874,12.874,0,0,1,1.7,5.516ZM45.8,58.534l-4.586-4.586a.967.967,0,0,0-1.368,0l-.9.9-.429-5.484L44,49.8l-.9.9a.968.968,0,0,0,0,1.368l4.586,4.586Z" transform="translate(0 -13.455)"/>
    </g>
  </g>
</svg>
